<?xml version="1.0" encoding="utf-8"?>
<!-- Generator: Adobe Illustrator 27.5.0, SVG Export Plug-In . SVG Version: 6.00 Build 0)  -->
<svg version="1.1" xmlns="http://www.w3.org/2000/svg" xmlns:xlink="http://www.w3.org/1999/xlink" x="0px" y="0px"
	 viewBox="0 0 500 500" style="enable-background:new 0 0 500 500;" xml:space="preserve">
<g id="BACKGROUND">
	<rect style="fill:#FFFDD9;" width="500" height="436.56"/>
	<g>
		<rect x="87.841" y="286.44" style="fill:#F2F1CE;" width="59.639" height="150.12"/>
		<rect x="187.043" y="259.073" style="fill:#F2F1CE;" width="34.11" height="177.487"/>
		<g>
			<rect x="0.044" y="306.885" style="fill:#F2F1CE;" width="44.996" height="129.674"/>
			<rect x="38.992" y="241.445" style="fill:#F2F1CE;" width="37.208" height="194.874"/>
			<rect x="47.663" y="226.553" style="fill:#F2F1CE;" width="19.865" height="36.946"/>
			<rect x="54.987" y="195" style="fill:#F2F1CE;" width="5.219" height="36.946"/>
		</g>
		<polygon style="fill:#F2F1CE;" points="182.453,436.56 143.873,436.56 143.873,287.567 182.453,320.396 		"/>
		<rect x="370.078" y="306.885" style="fill:#F2F1CE;" width="34.11" height="129.674"/>
		<rect x="465.876" y="259.073" style="fill:#F2F1CE;" width="34.11" height="177.487"/>
		<polygon style="fill:#F2F1CE;" points="454.806,436.56 416.225,436.56 416.225,287.567 454.806,320.396 		"/>
		<rect x="0.044" y="370.68" style="fill:#F2F1CE;" width="499.936" height="65.88"/>
	</g>
	<path style="fill:#FFFFFF;" d="M74.094,128.995c0,0,2.408-23.444,16.058-11.876c9.869,8.364-7.025,13.549-7.025,13.549
		l26.596,3.931h-74.52l15.306-2.927c0,0-13.603-4.669-6.691-12.545c7.193-8.196,14.72,7.193,14.72,7.193
		s-15.907-13.301-2.676-23.418c14.218-10.873,25.425,10.873,20.575,21.745C71.586,135.519,74.094,128.995,74.094,128.995z"/>
	<path style="fill:#FFFFFF;" d="M135.633,224.035c0,0-2.408-23.444-16.058-11.876c-9.869,8.364,7.026,13.549,7.026,13.549
		l-26.596,3.931h74.52l-15.305-2.927c0,0,13.603-4.669,6.691-12.545c-7.193-8.196-14.72,7.193-14.72,7.193
		s15.906-13.301,2.676-23.418c-14.218-10.873-25.425,10.873-20.575,21.745C138.142,230.559,135.633,224.035,135.633,224.035z"/>
	<path style="fill:#FFFFFF;" d="M418.018,84.509c0,0,2.408-23.444,16.058-11.876c9.869,8.364-7.025,13.549-7.025,13.549
		l26.596,3.931h-74.52l15.305-2.927c0,0-13.603-4.669-6.691-12.546c7.193-8.196,14.72,7.193,14.72,7.193
		s-15.906-13.301-2.676-23.418c14.218-10.873,25.425,10.873,20.574,21.746S418.018,84.509,418.018,84.509z"/>
</g>
<g id="OBJECTS">
	<g>
		<ellipse style="fill:#DBD4A2;" cx="96.165" cy="463.2" rx="20.4" ry="1.32"/>
		<g>
			<rect x="102.405" y="364.92" style="fill:#DE6126;" width="6.84" height="61.56"/>
			<path style="fill:#853A17;" d="M104.025,364.92h-1.62v36.36v25.2h1.62v-21.115c0-1.458,1.092-2.654,2.535-2.859
				c0.966-0.137,1.901-0.546,2.685-1.226v-36.36H104.025z"/>
			<polygon style="fill:#DBD4A2;" points="117.713,463.56 95.737,463.56 87.285,413.88 126.165,413.88 			"/>
			<rect x="88.275" y="414.33" style="fill:#CCC597;" width="36.45" height="2.07"/>
			<g>
				<ellipse style="fill:#42B349;" cx="107.445" cy="350.34" rx="26.956" ry="45.18"/>
				<g>
					<path style="fill:#7CCF4C;" d="M107.628,395.512c0.896-0.01,1.781-0.09,2.654-0.243c-0.416,0.061-0.834,0.112-1.257,0.141
						c-0.549,0.038-1.096,0.045-1.641,0.028c-1.056-0.009-2.103-0.118-3.137-0.326C105.355,395.359,106.482,395.5,107.628,395.512z"
						/>
					<path style="fill:#7CCF4C;" d="M107.62,305.167c-0.68,0.01-1.353,0.065-2.02,0.156c13.683,1.435,25.554,19.858,27.176,43.144
						c1.03,14.788-2.305,28.209-8.297,36.885c6.055-8.285,9.922-20.889,9.922-35.011
						C134.401,325.486,122.427,305.326,107.62,305.167z"/>
					<path style="fill:#7CCF4C;" d="M103.453,394.926c0.106,0.029,0.212,0.056,0.319,0.083
						C103.666,394.984,103.56,394.952,103.453,394.926z"/>
				</g>
			</g>
			<path style="fill:#7CCF4C;" d="M119.562,331.053c1.814,3.76,1.813,7.519-0.004,8.396c-1.817,0.877-4.76-1.461-6.575-5.222
				c-1.814-3.76-1.812-7.519,0.004-8.396C114.804,324.954,117.748,327.292,119.562,331.053z"/>
			<path style="fill:#7CCF4C;" d="M126.762,331.773c1.814,3.76,1.812,7.519-0.004,8.396c-1.817,0.877-4.76-1.461-6.575-5.222
				c-1.814-3.76-1.812-7.519,0.004-8.396C122.004,325.674,124.948,328.012,126.762,331.773z"/>
			<path style="fill:#7CCF4C;" d="M128.268,365.316c1.056,2.189,1.055,4.378-0.003,4.888c-1.058,0.51-2.771-0.851-3.828-3.04
				c-1.056-2.189-1.055-4.378,0.003-4.888C125.498,361.766,127.211,363.127,128.268,365.316z"/>
			<path style="fill:#7CCF4C;" d="M107.92,317.916c1.056,2.189,1.055,4.378-0.002,4.888c-1.058,0.51-2.772-0.851-3.828-3.04
				c-1.056-2.189-1.055-4.378,0.003-4.888C105.15,314.366,106.864,315.727,107.92,317.916z"/>
			<path style="fill:#7CCF4C;" d="M121.242,314.253c1.814,3.76,1.813,7.519-0.004,8.396c-1.817,0.877-4.76-1.461-6.575-5.222
				c-1.814-3.76-1.812-7.519,0.004-8.396C116.484,308.155,119.428,310.492,121.242,314.253z"/>
			
				<ellipse transform="matrix(0.9006 -0.4346 0.4346 0.9006 -138.3937 85.4711)" style="fill:#7CCF4C;" cx="117.717" cy="345.383" rx="5.256" ry="10.879"/>
			<path style="fill:#338C43;" d="M97.407,349.338c1.839,3.811,1.837,7.621-0.004,8.51c-1.841,0.888-4.825-1.481-6.664-5.292
				c-1.839-3.811-1.837-7.621,0.004-8.51C92.584,343.157,95.568,345.526,97.407,349.338z"/>
			<path style="fill:#379644;" d="M116.322,369.153c1.814,3.76,1.813,7.519-0.004,8.396c-1.817,0.877-4.76-1.461-6.575-5.222
				c-1.814-3.76-1.812-7.519,0.004-8.396C111.564,363.055,114.508,365.392,116.322,369.153z"/>
			<path style="fill:#338C43;" d="M96.102,337.953c1.814,3.76,1.813,7.519-0.004,8.396c-1.817,0.877-4.76-1.461-6.575-5.222
				c-1.814-3.76-1.812-7.519,0.004-8.396C91.344,331.854,94.288,334.192,96.102,337.953z"/>
			<path style="fill:#379644;" d="M103.276,348.287c0.907,1.879,0.906,3.757-0.002,4.195c-0.908,0.438-2.378-0.73-3.285-2.609
				c-0.907-1.879-0.906-3.757,0.002-4.195C100.899,345.24,102.37,346.408,103.276,348.287z"/>
			<path style="fill:#379644;" d="M116.236,320.387c0.907,1.879,0.906,3.757-0.002,4.195c-0.908,0.438-2.378-0.73-3.285-2.609
				c-0.907-1.879-0.906-3.757,0.002-4.195C113.859,317.34,115.33,318.508,116.236,320.387z"/>
			<path style="fill:#379644;" d="M119.409,369.167c0.906,1.879,0.906,3.757-0.002,4.195c-0.908,0.438-2.378-0.73-3.285-2.609
				c-0.907-1.879-0.906-3.757,0.002-4.195C117.031,366.12,118.502,367.288,119.409,369.167z"/>
			<path style="fill:#379644;" d="M118.043,380.971c-14.602,0-26.438-19.839-26.438-44.311c0-10.865,2.337-20.811,6.209-28.519
				c-10.13,6.499-17.326,22.936-17.326,42.199c0,24.952,12.069,45.18,26.956,45.18c9.003,0,16.969-7.404,21.865-18.77
				C125.892,379.453,122.074,380.971,118.043,380.971z"/>
			<path style="fill:#CCC597;" d="M115.995,463.56c-3.255-1.372-7.126-3.419-10.679-7.02c-9.555-9.687-12.609-26.37-13.068-42.66
				h-4.963l8.452,49.68H115.995z"/>
			<path style="fill:#338C43;" d="M93.132,312.066c-2.883,7.408-5.228,18.437-5.228,27.941c0,26.086,12.617,47.232,28.181,47.232
				c3.478,0,7.5-1.98,10.541-5.195c0.97-1.65,1.873-3.412,2.684-5.295c-3.418,2.704-7.236,4.222-11.267,4.222
				c-14.602,0-26.438-19.839-26.438-44.311c0-10.865,2.337-20.811,6.209-28.519C96.17,309.196,94.604,310.517,93.132,312.066z"/>
			<polygon style="fill:#FFFFFF;" points="87.285,413.88 87.494,415.11 124.665,415.11 116.422,463.56 117.713,463.56 
				126.165,413.88 			"/>
		</g>
	</g>
	<g>
		<polygon style="fill:#DBD4A2;" points="124.32,474.9 31.8,474.9 17.64,472.92 110.16,472.92 		"/>
		<g>
			<g>
				<rect x="73.214" y="329.387" style="fill:#DE6126;" width="1.509" height="143.99"/>
				<rect x="73.214" y="329.387" style="fill:#853A17;" width="0.256" height="143.99"/>
				<rect x="73.214" y="427.83" style="fill:#853A17;" width="1.509" height="5.67"/>
				<rect x="73.214" y="363.15" style="fill:#853A17;" width="1.509" height="5.67"/>
				<polygon style="fill:#D83B29;" points="73.119,334.751 73.47,334.751 54.016,359.829 40.695,359.829 				"/>
				<polygon style="fill:#DBDEB1;" points="73.47,334.751 73.821,334.751 67.337,359.829 54.016,359.829 				"/>
				<polygon style="fill:#D83B29;" points="73.821,334.751 74.173,334.751 80.657,359.829 67.337,359.829 				"/>
				<polygon style="fill:#F2F5C4;" points="74.173,334.751 74.524,334.751 93.978,359.829 80.657,359.829 				"/>
				<polygon style="fill:#FA5C2F;" points="74.524,334.751 74.875,334.751 107.299,359.829 93.978,359.829 				"/>
				<path style="fill:#DBDEB1;" d="M40.659,359.929c0,3.177,2.991,5.752,6.681,5.752c3.69,0,6.681-2.575,6.681-5.752
					c0-0.032-0.005-0.064-0.006-0.096h-13.35C40.664,359.866,40.659,359.897,40.659,359.929z"/>
				<path style="fill:#D83B29;" d="M54.014,359.929c0,3.177,2.991,5.752,6.681,5.752c3.69,0,6.681-2.575,6.681-5.752
					c0-0.032-0.005-0.064-0.006-0.096H54.02C54.019,359.866,54.014,359.897,54.014,359.929z"/>
				<path style="fill:#DBDEB1;" d="M67.369,359.929c0,3.177,2.991,5.752,6.681,5.752c3.69,0,6.681-2.575,6.681-5.752
					c0-0.032-0.005-0.064-0.006-0.096h-13.35C67.374,359.866,67.369,359.897,67.369,359.929z"/>
				<path style="fill:#D83B29;" d="M80.725,359.929c0,3.177,2.991,5.752,6.681,5.752c3.69,0,6.681-2.575,6.681-5.752
					c0-0.032-0.005-0.064-0.006-0.096H80.73C80.73,359.866,80.725,359.897,80.725,359.929z"/>
				<path style="fill:#F2F5C4;" d="M94.08,359.929c0,3.177,2.991,5.752,6.681,5.752c3.69,0,6.681-2.575,6.681-5.752
					c0-0.032-0.005-0.064-0.006-0.096h-13.35C94.085,359.866,94.08,359.897,94.08,359.929z"/>
			</g>
			<rect x="47.014" y="426.26" style="fill:#DE6126;" width="53.584" height="2.682"/>
			<rect x="47.014" y="427.659" style="fill:#853A17;" width="53.584" height="2.682"/>
			<g>
				<rect x="60.032" y="447.103" style="fill:#A3481C;" width="2" height="27.244"/>
				<rect x="61.59" y="447.103" style="fill:#DE6126;" width="0.442" height="27.244"/>
				<path style="fill:#853A17;" d="M62.032,447.103H60.78h-0.748v4.577v22.668h0.748c0,0,0-22.295,0-22.528
					c0-0.186,1.252-0.14,1.252-0.14V447.103z"/>
				<polygon style="fill:#A3481C;" points="37.012,474.348 35.012,474.348 35.012,447.059 31.527,415.627 33.515,415.406 
					37.012,447.003 				"/>
				<polygon style="fill:#853A17;" points="32.187,415.627 33.523,415.479 33.515,415.406 31.527,415.627 35.012,447.059 
					35.012,474.348 35.672,474.348 35.672,447.059 				"/>
				<polygon style="fill:#DE6126;" points="33.515,415.406 32.893,415.475 36.382,447.003 36.382,474.348 37.012,474.348 
					37.012,447.003 				"/>
				<path style="fill:#853A17;" d="M37.012,447.103H35.76h-0.748v4.577v22.668h0.748c0,0,0-22.295,0-22.528
					c0-0.186,1.252-0.14,1.252-0.14V447.103z"/>
				<rect x="34.682" y="446.511" style="fill:#A3481C;" width="29.468" height="3.554"/>
				<rect x="34.682" y="446.511" style="fill:#DE6126;" width="29.468" height="0.849"/>
				<rect x="34.682" y="448.92" style="fill:#853A17;" width="29.468" height="1.145"/>
			</g>
			<g>
				<rect x="84.045" y="447.103" style="fill:#A3481C;" width="2" height="27.244"/>
				<rect x="84.045" y="447.103" style="fill:#853A17;" width="0.442" height="27.244"/>
				<path style="fill:#DE6126;" d="M86.045,451.68v22.668h-0.748c0,0,0-22.433,0-22.666"/>
				<polyline style="fill:#853A17;" points="84.045,451.68 84.045,447.103 85.297,447.103 86.045,447.103 86.045,451.68 				"/>
				<polygon style="fill:#A3481C;" points="109.065,474.348 111.065,474.348 111.065,447.059 114.55,415.627 112.562,415.406 
					109.065,447.003 				"/>
				<polygon style="fill:#DE6126;" points="113.89,415.627 112.553,415.479 112.562,415.406 114.55,415.627 111.065,447.059 
					111.065,474.348 110.405,474.348 110.28,447.293 				"/>
				<polygon style="fill:#853A17;" points="112.562,415.406 113.184,415.475 109.695,447.003 109.695,474.348 109.065,474.348 
					109.065,447.003 				"/>
				<path style="fill:#DE6126;" d="M111.065,451.68v22.668h-0.748c0,0,0-22.295,0-22.528"/>
				<polyline style="fill:#853A17;" points="109.065,451.68 109.065,447.103 110.317,447.103 111.065,447.103 111.065,451.005 				
					"/>
				
					<rect x="81.927" y="446.511" transform="matrix(-1 -1.224647e-16 1.224647e-16 -1 193.3219 896.576)" style="fill:#A3481C;" width="29.467" height="3.554"/>
				
					<rect x="81.927" y="446.511" transform="matrix(-1 -1.224647e-16 1.224647e-16 -1 193.3219 893.8712)" style="fill:#853A17;" width="29.467" height="0.849"/>
				
					<rect x="81.927" y="448.92" transform="matrix(-1 -1.224647e-16 1.224647e-16 -1 193.3219 898.9848)" style="fill:#DE6126;" width="29.467" height="1.145"/>
			</g>
		</g>
	</g>
	<g>
		<ellipse style="fill:#DBD4A2;" cx="425.809" cy="463.2" rx="20.4" ry="1.32"/>
		<g>
			<rect x="432.048" y="364.92" style="fill:#DE6126;" width="6.84" height="61.56"/>
			<path style="fill:#853A17;" d="M433.668,364.92h-1.62v36.36v25.2h1.62v-21.115c0-1.458,1.092-2.654,2.535-2.859
				c0.966-0.137,1.901-0.546,2.685-1.226v-36.36H433.668z"/>
			<polygon style="fill:#DBD4A2;" points="447.356,463.56 425.381,463.56 416.928,413.88 455.809,413.88 			"/>
			<rect x="417.918" y="414.33" style="fill:#CCC597;" width="36.45" height="2.07"/>
			<g>
				<ellipse style="fill:#42B349;" cx="437.089" cy="350.34" rx="26.956" ry="45.18"/>
				<g>
					<path style="fill:#7CCF4C;" d="M437.271,395.512c0.896-0.01,1.781-0.09,2.654-0.243c-0.416,0.061-0.834,0.112-1.257,0.141
						c-0.549,0.038-1.096,0.045-1.641,0.028c-1.056-0.009-2.103-0.118-3.137-0.326C434.998,395.359,436.125,395.5,437.271,395.512z"
						/>
					<path style="fill:#7CCF4C;" d="M437.264,305.167c-0.68,0.01-1.353,0.065-2.02,0.156c13.683,1.435,25.554,19.858,27.176,43.144
						c1.03,14.788-2.305,28.209-8.297,36.885c6.055-8.285,9.922-20.889,9.922-35.011
						C464.045,325.486,452.07,305.326,437.264,305.167z"/>
					<path style="fill:#7CCF4C;" d="M433.097,394.926c0.106,0.029,0.212,0.056,0.319,0.083
						C433.309,394.984,433.203,394.952,433.097,394.926z"/>
				</g>
			</g>
			<path style="fill:#7CCF4C;" d="M449.206,331.053c1.814,3.76,1.813,7.519-0.004,8.396c-1.817,0.877-4.76-1.461-6.575-5.222
				c-1.814-3.76-1.813-7.519,0.004-8.396C444.447,324.954,447.391,327.292,449.206,331.053z"/>
			<path style="fill:#7CCF4C;" d="M456.406,331.773c1.814,3.76,1.813,7.519-0.004,8.396c-1.817,0.877-4.76-1.461-6.575-5.222
				c-1.814-3.76-1.813-7.519,0.004-8.396C451.647,325.674,454.591,328.012,456.406,331.773z"/>
			<path style="fill:#7CCF4C;" d="M457.911,365.316c1.056,2.189,1.055,4.378-0.003,4.888c-1.058,0.51-2.771-0.851-3.828-3.04
				c-1.056-2.189-1.055-4.378,0.002-4.888C455.141,361.766,456.855,363.127,457.911,365.316z"/>
			<path style="fill:#7CCF4C;" d="M437.564,317.916c1.056,2.189,1.055,4.378-0.003,4.888c-1.058,0.51-2.771-0.851-3.828-3.04
				c-1.056-2.189-1.055-4.378,0.003-4.888C434.794,314.366,436.507,315.727,437.564,317.916z"/>
			<path style="fill:#7CCF4C;" d="M450.886,314.253c1.814,3.76,1.813,7.519-0.004,8.396c-1.817,0.877-4.76-1.461-6.575-5.222
				c-1.814-3.76-1.813-7.519,0.004-8.396C446.128,308.155,449.071,310.492,450.886,314.253z"/>
			<path style="fill:#7CCF4C;" d="M452.094,343.099c2.611,5.411,2.608,10.82-0.006,12.082c-2.614,1.261-6.85-2.103-9.461-7.514
				c-2.611-5.411-2.608-10.82,0.006-12.082C445.247,334.324,449.483,337.688,452.094,343.099z"/>
			<path style="fill:#338C43;" d="M427.05,349.338c1.839,3.811,1.837,7.621-0.004,8.51c-1.841,0.888-4.825-1.481-6.664-5.292
				c-1.839-3.811-1.837-7.621,0.004-8.51C422.228,343.157,425.211,345.526,427.05,349.338z"/>
			<path style="fill:#379644;" d="M445.966,369.153c1.814,3.76,1.813,7.519-0.004,8.396c-1.817,0.877-4.761-1.461-6.575-5.222
				c-1.814-3.76-1.813-7.519,0.004-8.396C441.207,363.055,444.151,365.392,445.966,369.153z"/>
			<path style="fill:#338C43;" d="M425.746,337.953c1.814,3.76,1.813,7.519-0.004,8.396c-1.817,0.877-4.76-1.461-6.575-5.222
				c-1.814-3.76-1.813-7.519,0.004-8.396C420.987,331.854,423.931,334.192,425.746,337.953z"/>
			<path style="fill:#379644;" d="M432.92,348.287c0.906,1.879,0.906,3.757-0.002,4.195s-2.378-0.73-3.285-2.609
				c-0.906-1.879-0.905-3.757,0.002-4.195C430.542,345.24,432.013,346.408,432.92,348.287z"/>
			<path style="fill:#379644;" d="M445.88,320.387c0.907,1.879,0.906,3.757-0.002,4.195c-0.908,0.438-2.378-0.73-3.285-2.609
				c-0.906-1.879-0.905-3.757,0.002-4.195C443.502,317.34,444.973,318.508,445.88,320.387z"/>
			<path style="fill:#379644;" d="M449.052,369.167c0.906,1.879,0.905,3.757-0.002,4.195c-0.908,0.438-2.378-0.73-3.285-2.609
				c-0.906-1.879-0.906-3.757,0.002-4.195C446.675,366.12,448.145,367.288,449.052,369.167z"/>
			<path style="fill:#379644;" d="M447.687,380.971c-14.601,0-26.438-19.839-26.438-44.311c0-10.865,2.337-20.811,6.209-28.519
				c-10.13,6.499-17.326,22.936-17.326,42.199c0,24.952,12.069,45.18,26.956,45.18c9.003,0,16.969-7.404,21.865-18.77
				C455.535,379.453,451.717,380.971,447.687,380.971z"/>
			<path style="fill:#CCC597;" d="M445.638,463.56c-3.255-1.372-7.126-3.419-10.679-7.02c-9.555-9.687-12.609-26.37-13.068-42.66
				h-4.963l8.452,49.68H445.638z"/>
			<path style="fill:#338C43;" d="M422.775,312.066c-2.883,7.408-5.228,18.437-5.228,27.941c0,26.086,12.617,47.232,28.181,47.232
				c3.477,0,7.5-1.98,10.541-5.195c0.97-1.65,1.873-3.412,2.684-5.295c-3.418,2.704-7.236,4.222-11.267,4.222
				c-14.601,0-26.438-19.839-26.438-44.311c0-10.865,2.337-20.811,6.209-28.519C425.813,309.196,424.247,310.517,422.775,312.066z"
				/>
			<polygon style="fill:#FFFFFF;" points="416.928,413.88 417.138,415.11 454.309,415.11 446.066,463.56 447.356,463.56 
				455.809,413.88 			"/>
		</g>
	</g>
	<polygon style="fill:#FA5C2F;" points="412.919,236.555 411.001,236.555 412.462,264.32 414.38,264.32 	"/>
	<path style="fill:#F5F2C4;" d="M414.384,264.302h-2.16c0.001,0.088,0.013,0.173,0.013,0.261c0,8.284-6.51,15.048-14.742,15.6
		c0.358,0.024,0.715,0.054,1.08,0.054c8.738,0,15.822-7.008,15.822-15.654C414.397,264.475,414.386,264.39,414.384,264.302z"/>
	<g>
		<polygon style="fill:#D83B29;" points="446.903,114.985 424.638,114.985 422.733,116.379 422.733,202.37 444.999,202.37 
			446.903,200.977 		"/>
		<line style="fill:none;stroke:#9E7A70;stroke-width:0.5;stroke-miterlimit:10;" x1="393.198" y1="138" x2="423.313" y2="138"/>
		<rect x="424.638" y="114.985" style="fill:#FA5C2F;" width="22.266" height="85.992"/>
		<text transform="matrix(1 0 0 1 431.7122 137.3999)"><tspan x="0" y="0" style="fill:#F2F5C4; font-family:'Dosis-Regular'; font-size:13.8201px;">C</tspan><tspan x="-0.117" y="16.584" style="fill:#F2F5C4; font-family:'Dosis-Regular'; font-size:13.8201px;">A</tspan><tspan x="0.201" y="33.168" style="fill:#F2F5C4; font-family:'Dosis-Regular'; font-size:13.8201px;">F</tspan><tspan x="0.104" y="49.752" style="fill:#F2F5C4; font-family:'Dosis-Regular'; font-size:13.8201px;">É</tspan></text>
		<polygon style="fill:#FF7530;" points="425.238,114.985 425.238,115.538 446.398,115.538 446.398,200.977 447.503,200.977 
			447.503,114.985 		"/>
		<rect x="398.64" y="133.28" style="fill:#9E7A70;" width="1.68" height="9.24"/>
		<rect x="422.308" y="133.28" style="fill:#69504A;" width="1.052" height="9.24"/>
	</g>
	<g>
		<g>
			<polyline style="fill:none;stroke:#9E7A70;stroke-width:0.5;stroke-miterlimit:10;" points="155.909,255.283 118.751,255.283 
				118.751,265.176 			"/>
			<g>
				<polygon style="fill:#9E7A70;" points="123.352,293.779 114.5,293.779 111.128,275.295 126.724,275.295 				"/>
				<rect x="108.458" y="273.22" style="fill:#9E7A70;" width="20.653" height="3.018"/>
				<path style="fill:#9E7A70;" d="M125.492,273.503c-0.616-3.17-3.404-5.564-6.755-5.564c-3.35,0-6.138,2.394-6.755,5.564H125.492z
					"/>
				<circle style="fill:#9E7A70;" cx="118.832" cy="294.651" r="1.509"/>
				<circle style="fill:#9E7A70;" cx="118.832" cy="266.713" r="1.509"/>
				<polygon style="fill:#FFFDBD;" points="122.047,291.729 115.805,291.729 113.428,277.344 124.424,277.344 				"/>
			</g>
		</g>
		<path style="fill:#E3E3DA;" d="M119.583,268.014c0.451-0.261,0.757-0.743,0.757-1.301c0-0.833-0.675-1.509-1.509-1.509
			c-0.181,0-0.351,0.037-0.512,0.095v30.766c0.16,0.058,0.331,0.095,0.512,0.095c0.833,0,1.509-0.676,1.509-1.509
			c0-0.326-0.106-0.626-0.281-0.872h3.293l3.2-17.541h2.559v-3.018h-3.7C124.75,270.464,122.446,268.368,119.583,268.014z"/>
	</g>
	<g>
		<rect x="143.919" y="46.456" style="fill:#E8BB87;" width="255.443" height="413.485"/>
		<rect x="291.174" y="293.64" style="fill:#CCC597;" width="88.506" height="162.538"/>
		<path style="fill:#CFA278;" d="M399.362,231l-255.443-7.2v236.141h50.31c20.728-36.074,8.655-93.717,38.932-141.821
			c20.929-33.252,65.338-67.092,166.202-77.283V231z"/>
		<path style="fill:#CFA278;" d="M399.362,47.747L143.919,40.92v223.901h50.31c20.728-34.204,8.655-88.859,38.932-134.469
			c20.929-31.529,65.338-63.615,166.202-73.277V47.747z"/>
		<rect x="143.919" y="437.4" style="fill:#F5F2C4;" width="255.443" height="22.541"/>
		<rect x="143.919" y="437.4" style="fill:#FFFFFF;" width="255.443" height="0.96"/>
		<rect x="294.054" y="293.64" style="fill:#F5F2C4;" width="88.506" height="162.538"/>
		<rect x="294.054" y="293.64" style="fill:#FFFFFF;" width="88.506" height="1.44"/>
		<rect x="380.76" y="293.64" style="fill:#FFFFFF;" width="1.8" height="162.538"/>
		<rect x="298.981" y="298.913" style="fill:#A3481C;" width="78.653" height="152.351"/>
		<rect x="306.57" y="407.88" style="fill:#BF9A50;" width="63.473" height="36.518"/>
		<polygon style="fill:#DEB25D;" points="307.77,409.32 370.044,409.32 370.044,407.88 306.57,407.88 306.57,444.397 
			307.77,444.397 		"/>
		<rect x="306.57" y="305.78" style="fill:#FFFDCF;" width="63.473" height="102.22"/>
		<g>
			<defs>
				<rect id="SVGID_1_" x="310.68" y="313.56" width="52.8" height="86.66"/>
			</defs>
			<clipPath id="SVGID_00000003082682878948365930000000454460446138613399_">
				<use xlink:href="#SVGID_1_"  style="overflow:visible;"/>
			</clipPath>
			<polyline style="clip-path:url(#SVGID_00000003082682878948365930000000454460446138613399_);fill:#FFFFFF;" points="
				379.68,317.046 379.68,329.598 286.327,390.207 287.106,377.864 			"/>
			<polyline style="clip-path:url(#SVGID_00000003082682878948365930000000454460446138613399_);fill:#FFFFFF;" points="
				379.68,362.406 379.68,374.958 286.327,435.567 287.106,423.224 			"/>
			<polyline style="clip-path:url(#SVGID_00000003082682878948365930000000454460446138613399_);fill:#FFFFFF;" points="
				287.106,374.947 287.106,370.279 379.68,309.738 379.68,313.904 			"/>
		</g>
		<path style="fill:#EADFAE;" d="M357.655,345.999c-0.255-0.21-0.521-0.407-0.795-0.592c-0.55-0.37-1.137-0.688-1.754-0.948
			c-0.943-0.397-1.958-0.656-3.019-0.758v-3.094h-0.53V308.64h-0.507v31.968h-0.424v3.061c-0.163,0.007-0.326,0.015-0.487,0.03
			c-0.095,0.009-0.188,0.021-0.282,0.032c-0.226,0.027-0.45,0.061-0.672,0.102c-0.095,0.018-0.19,0.034-0.283,0.054
			c-0.274,0.059-0.544,0.127-0.81,0.207c-0.027,0.008-0.055,0.014-0.081,0.022c-0.287,0.089-0.566,0.194-0.842,0.307
			c-0.09,0.037-0.178,0.078-0.267,0.117c-0.192,0.085-0.38,0.175-0.566,0.271c-0.091,0.047-0.182,0.094-0.271,0.144
			c-0.215,0.12-0.425,0.247-0.631,0.381c-0.044,0.029-0.09,0.054-0.134,0.084c-0.003,0.002-0.006,0.004-0.009,0.006
			c0.001,0,0.001,0,0.001,0c-2.732,1.85-4.534,4.97-4.557,8.512h15.773h4.937l0,0C361.423,350.74,359.952,347.885,357.655,345.999z"
			/>
		<g>
			<polyline style="fill:#DBD4A2;" points="370.039,305.681 306.558,305.681 306.558,309.281 366.191,309.281 			"/>
			<polygon style="fill:#CCC597;" points="366.191,309.281 366.191,408 370.039,408 370.039,305.681 			"/>
		</g>
		<rect x="159.193" y="293.46" style="fill:#F5F2C4;" width="122.808" height="114.978"/>
		<rect x="164.189" y="299" style="fill:#FFFDCF;" width="112.818" height="104.798"/>
		<path style="fill:#EADFAE;" d="M196.88,345.999c-0.255-0.21-0.521-0.407-0.796-0.592c-0.55-0.37-1.137-0.688-1.754-0.948
			c-0.943-0.397-1.958-0.656-3.019-0.758v-3.094h-0.53V301.02h-0.507v39.588h-0.424v3.061c-0.163,0.007-0.326,0.015-0.487,0.03
			c-0.095,0.009-0.188,0.021-0.282,0.032c-0.226,0.027-0.45,0.061-0.672,0.102c-0.095,0.018-0.19,0.034-0.283,0.054
			c-0.274,0.059-0.544,0.127-0.81,0.207c-0.027,0.008-0.055,0.014-0.081,0.022c-0.287,0.089-0.566,0.194-0.842,0.307
			c-0.09,0.037-0.178,0.078-0.267,0.117c-0.192,0.085-0.381,0.175-0.566,0.271c-0.091,0.047-0.182,0.094-0.271,0.144
			c-0.215,0.12-0.425,0.247-0.631,0.381c-0.044,0.029-0.09,0.054-0.134,0.084c-0.003,0.002-0.006,0.004-0.009,0.006
			c0.001,0,0.001,0,0.001,0c-2.732,1.85-4.534,4.97-4.557,8.512h15.773h4.937l0,0C200.648,350.74,199.177,347.885,196.88,345.999z"
			/>
		<path style="fill:#EADFAE;" d="M252.14,345.999c-0.255-0.21-0.521-0.407-0.796-0.592c-0.55-0.37-1.137-0.688-1.754-0.948
			c-0.943-0.397-1.958-0.656-3.019-0.758v-3.094h-0.53V301.02h-0.507v39.588h-0.424v3.061c-0.163,0.007-0.326,0.015-0.487,0.03
			c-0.095,0.009-0.188,0.021-0.282,0.032c-0.226,0.027-0.45,0.061-0.672,0.102c-0.095,0.018-0.19,0.034-0.283,0.054
			c-0.274,0.059-0.544,0.127-0.81,0.207c-0.027,0.008-0.055,0.014-0.081,0.022c-0.287,0.089-0.566,0.194-0.842,0.307
			c-0.09,0.037-0.178,0.078-0.267,0.117c-0.192,0.085-0.38,0.175-0.566,0.271c-0.091,0.047-0.182,0.094-0.271,0.144
			c-0.215,0.12-0.425,0.247-0.631,0.381c-0.044,0.029-0.09,0.054-0.134,0.084c-0.003,0.002-0.006,0.004-0.009,0.006
			c0.001,0,0.001,0,0.002,0c-2.732,1.85-4.534,4.97-4.557,8.512h15.773h4.937l0,0C255.908,350.74,254.437,347.885,252.14,345.999z"
			/>
		<g>
			<polyline style="fill:#DBD4A2;" points="277.009,299.006 164.04,299.006 164.04,302.606 273.161,302.606 			"/>
			<polyline style="fill:#CCC597;" points="273.161,302.612 273.161,397.725 277.009,397.725 277.009,299.006 			"/>
		</g>
		<polygon style="fill:#FFFFFF;" points="159.193,293.46 159.193,295.08 280.322,295.08 280.322,408.438 282.002,408.438 
			282.002,293.46 		"/>
		<polyline style="fill:#FFFFFF;" points="265.92,317.046 265.92,329.598 172.567,390.207 173.346,377.864 		"/>
		<polyline style="fill:#FFFFFF;" points="173.346,374.947 173.346,370.279 265.92,309.738 265.92,313.904 		"/>
		<polygon style="fill:#E3E3DA;" points="282.36,407.64 158.441,407.64 158.441,413.16 282.36,410.1 		"/>
		<polygon style="fill:#E3E3DA;" points="386.85,210.39 158.441,210.39 158.441,215.91 386.85,212.85 		"/>
		<rect x="137.521" y="39.48" style="fill:#F5F2C4;" width="268.239" height="11.962"/>
		<rect x="141.045" y="95" style="fill:#E0DDB1;" width="261.19" height="7.591"/>
		<polygon style="fill:#E3E3DA;" points="399.341,102.58 143.94,102.58 143.94,109.32 399.341,106.2 		"/>
		<rect x="141.045" y="51.44" style="fill:#E0DDB1;" width="261.19" height="7.591"/>
		<polygon style="fill:#E3E3DA;" points="399.341,59.02 143.94,59.02 143.94,65.76 399.341,62.64 		"/>
		<rect x="312.254" y="415" style="fill:#853A17;" width="52.106" height="22"/>
		<rect x="137.521" y="84" style="fill:#F5F2C4;" width="268.239" height="12"/>
		<path style="fill:#E3E3DA;" d="M399.362,244.063l-4.548-6.521h-28.228h-28.228h-28.228H281.9h-28.228h-28.228h-28.228h-28.229
			h-25.068v44.498c4.762-2.674,7.979-7.508,8.067-13.062h0.011c0.134,8.458,7.498,15.278,16.576,15.278
			c9.078,0,16.442-6.821,16.576-15.278h0.011c0.134,8.458,7.498,15.278,16.576,15.278c9.078,0,16.441-6.821,16.576-15.278h0.011
			c0.134,8.458,7.498,15.278,16.576,15.278c9.078,0,16.441-6.82,16.576-15.278h0.011c0.134,8.458,7.498,15.278,16.576,15.278
			c9.078,0,16.442-6.821,16.576-15.278h0.011c0.134,8.458,7.498,15.278,16.576,15.278c9.078,0,16.441-6.821,16.576-15.278h0.011
			c0.134,8.458,7.498,15.278,16.576,15.278s16.441-6.82,16.576-15.278h0.011c0.134,8.458,7.498,15.278,16.576,15.278
			c9.078,0,16.442-6.821,16.576-15.278h0.011c0.128,8.033,6.78,14.577,15.226,15.215V244.063z"/>
		<g>
			<g>
				<polygon style="fill:#FA5C2F;" points="145.078,220.44 173.307,220.44 162.585,236.569 131.294,236.569 				"/>
				<polygon style="fill:#F2F5C4;" points="173.307,220.44 201.535,220.44 193.877,236.569 162.585,236.569 				"/>
				<polygon style="fill:#FA5C2F;" points="201.535,220.44 229.764,220.44 225.169,236.569 193.877,236.569 				"/>
				<polygon style="fill:#F2F5C4;" points="229.764,220.44 257.992,220.44 256.46,236.569 225.169,236.569 				"/>
				<polygon style="fill:#FA5C2F;" points="257.992,220.44 286.22,220.44 287.752,236.569 256.46,236.569 				"/>
				<polygon style="fill:#F2F5C4;" points="286.22,220.44 314.449,220.44 319.044,236.569 287.752,236.569 				"/>
				<polygon style="fill:#FA5C2F;" points="314.449,220.44 342.677,220.44 350.335,236.569 319.044,236.569 				"/>
				<polygon style="fill:#F2F5C4;" points="342.677,220.44 370.906,220.44 381.627,236.569 350.335,236.569 				"/>
				<polygon style="fill:#FA5C2F;" points="370.906,220.44 399.134,220.44 412.919,236.569 381.627,236.569 				"/>
			</g>
			<g>
				<polygon style="fill:#D83B29;" points="131.369,236.555 162.652,236.555 161.516,264.32 129.908,264.32 				"/>
				<polygon style="fill:#C5C79F;" points="162.652,236.555 193.936,236.555 193.124,264.32 161.516,264.32 				"/>
				<polygon style="fill:#D83B29;" points="193.936,236.555 225.219,236.555 224.732,264.32 193.124,264.32 				"/>
				<polygon style="fill:#C5C79F;" points="225.219,236.555 256.502,236.555 256.34,264.32 224.732,264.32 				"/>
				<polygon style="fill:#D83B29;" points="256.502,236.555 287.785,236.555 287.948,264.32 256.34,264.32 				"/>
				<polygon style="fill:#C5C79F;" points="287.785,236.555 319.069,236.555 319.556,264.32 287.948,264.32 				"/>
				<polygon style="fill:#D83B29;" points="319.069,236.555 350.352,236.555 351.164,264.32 319.556,264.32 				"/>
				<polygon style="fill:#C5C79F;" points="350.352,236.555 381.635,236.555 382.772,264.32 351.164,264.32 				"/>
				<polygon style="fill:#D83B29;" points="381.635,236.555 412.919,236.555 414.38,264.32 382.772,264.32 				"/>
			</g>
			<path style="fill:#DBDEB1;" d="M129.729,264.574c0,8.645,7.084,15.654,15.822,15.654c8.738,0,15.822-7.009,15.822-15.654
				c0-0.088-0.012-0.173-0.013-0.261h-31.618C129.74,264.401,129.729,264.486,129.729,264.574z"/>
			<path style="fill:#D83B29;" d="M161.358,264.574c0,8.645,7.084,15.654,15.822,15.654c8.738,0,15.822-7.009,15.822-15.654
				c0-0.088-0.012-0.173-0.013-0.261h-31.618C161.37,264.401,161.358,264.486,161.358,264.574z"/>
			<path style="fill:#DBDEB1;" d="M192.987,264.574c0,8.645,7.084,15.654,15.822,15.654c8.738,0,15.822-7.009,15.822-15.654
				c0-0.088-0.012-0.173-0.013-0.261h-31.618C192.999,264.401,192.987,264.486,192.987,264.574z"/>
			<path style="fill:#D83B29;" d="M224.617,264.574c0,8.645,7.084,15.654,15.822,15.654s15.822-7.009,15.822-15.654
				c0-0.088-0.012-0.173-0.013-0.261H224.63C224.629,264.401,224.617,264.486,224.617,264.574z"/>
			<path style="fill:#DBDEB1;" d="M256.246,264.574c0,8.645,7.084,15.654,15.822,15.654c8.738,0,15.822-7.009,15.822-15.654
				c0-0.088-0.012-0.173-0.013-0.261H256.26C256.258,264.401,256.246,264.486,256.246,264.574z"/>
			<path style="fill:#D83B29;" d="M287.876,264.574c0,8.645,7.084,15.654,15.822,15.654c8.738,0,15.822-7.009,15.822-15.654
				c0-0.088-0.012-0.173-0.013-0.261h-31.618C287.888,264.401,287.876,264.486,287.876,264.574z"/>
			<path style="fill:#DBDEB1;" d="M319.505,264.574c0,8.645,7.084,15.654,15.822,15.654c8.738,0,15.822-7.009,15.822-15.654
				c0-0.088-0.012-0.173-0.013-0.261h-31.618C319.517,264.401,319.505,264.486,319.505,264.574z"/>
			<path style="fill:#D83B29;" d="M351.135,264.574c0,8.645,7.084,15.654,15.822,15.654c8.738,0,15.822-7.009,15.822-15.654
				c0-0.088-0.012-0.173-0.013-0.261h-31.618C351.147,264.401,351.135,264.486,351.135,264.574z"/>
			<path style="fill:#DBDEB1;" d="M382.764,264.574c0,8.645,7.084,15.654,15.822,15.654c8.738,0,15.822-7.009,15.822-15.654
				c0-0.088-0.012-0.173-0.013-0.261h-31.618C382.776,264.401,382.764,264.486,382.764,264.574z"/>
			<g>
				<defs>
					<polygon id="SVGID_00000174600158981465698050000006678702076271408800_" points="399.134,220.44 397.38,220.437 
						409.74,234.96 131.294,234.96 131.294,236.569 412.919,236.569 					"/>
				</defs>
				<clipPath id="SVGID_00000161595194768521680380000011704027226493144718_">
					<use xlink:href="#SVGID_00000174600158981465698050000006678702076271408800_"  style="overflow:visible;"/>
				</clipPath>
				<g style="clip-path:url(#SVGID_00000161595194768521680380000011704027226493144718_);">
					<polygon style="fill:#FF7530;" points="145.078,220.44 173.307,220.44 162.585,236.569 131.294,236.569 					"/>
					<polygon style="fill:#FCFFCC;" points="173.307,220.44 201.535,220.44 193.877,236.569 162.585,236.569 					"/>
					<polygon style="fill:#FF7530;" points="201.535,220.44 229.764,220.44 225.169,236.569 193.877,236.569 					"/>
					<polygon style="fill:#FCFFCC;" points="229.764,220.44 257.992,220.44 256.46,236.569 225.169,236.569 					"/>
					<polygon style="fill:#FF7530;" points="257.992,220.44 286.22,220.44 287.752,236.569 256.46,236.569 					"/>
					<polygon style="fill:#FCFFCC;" points="286.22,220.44 314.449,220.44 319.044,236.569 287.752,236.569 					"/>
					<polygon style="fill:#FF7530;" points="314.449,220.44 342.677,220.44 350.335,236.569 319.044,236.569 					"/>
					<polygon style="fill:#FCFFCC;" points="342.677,220.44 370.906,220.44 381.627,236.569 350.335,236.569 					"/>
					<polygon style="fill:#FF7530;" points="370.906,220.44 399.134,220.44 412.919,236.569 381.627,236.569 					"/>
				</g>
			</g>
		</g>
		<g>
			<rect x="159.767" y="115.32" style="fill:#F5F2C4;" width="224.113" height="94.868"/>
			<polygon style="fill:#FFFFFF;" points="159.767,115.32 159.767,116.22 382.8,116.22 382.8,210.188 383.88,210.188 383.88,115.32 
							"/>
			<rect x="167.215" y="121.08" style="fill:#FFFDCF;" width="209.217" height="83.348"/>
			<path style="fill:#EADFAE;" d="M196.619,155.007c-0.255-0.21-0.521-0.407-0.796-0.592c-0.55-0.37-1.137-0.688-1.754-0.948
				c-0.943-0.397-1.958-0.656-3.019-0.758v-3.094h-0.53V123.72h-0.507v25.896h-0.424v3.062c-0.163,0.007-0.326,0.015-0.487,0.03
				c-0.095,0.009-0.188,0.021-0.282,0.032c-0.226,0.027-0.45,0.061-0.672,0.102c-0.095,0.018-0.19,0.034-0.283,0.054
				c-0.274,0.059-0.544,0.127-0.81,0.207c-0.027,0.008-0.055,0.014-0.082,0.022c-0.287,0.089-0.566,0.194-0.842,0.307
				c-0.09,0.037-0.178,0.078-0.267,0.117c-0.192,0.085-0.38,0.175-0.566,0.271c-0.091,0.047-0.182,0.094-0.271,0.144
				c-0.215,0.12-0.425,0.247-0.631,0.381c-0.044,0.029-0.09,0.054-0.134,0.084c-0.003,0.002-0.006,0.004-0.009,0.006
				c0.001,0,0.001,0,0.001,0c-2.732,1.85-4.534,4.969-4.557,8.512h15.773h4.936l0,0
				C200.387,159.748,198.916,156.893,196.619,155.007z"/>
			<path style="fill:#EADFAE;" d="M255.659,155.007c-0.255-0.21-0.521-0.407-0.796-0.592c-0.55-0.37-1.137-0.688-1.754-0.948
				c-0.943-0.397-1.958-0.656-3.019-0.758v-3.094h-0.53V123.72h-0.507v25.896h-0.424v3.062c-0.163,0.007-0.326,0.015-0.487,0.03
				c-0.095,0.009-0.188,0.021-0.282,0.032c-0.226,0.027-0.45,0.061-0.672,0.102c-0.095,0.018-0.19,0.034-0.284,0.054
				c-0.274,0.059-0.544,0.127-0.81,0.207c-0.027,0.008-0.055,0.014-0.082,0.022c-0.287,0.089-0.566,0.194-0.842,0.307
				c-0.09,0.037-0.178,0.078-0.267,0.117c-0.192,0.085-0.381,0.175-0.566,0.271c-0.091,0.047-0.182,0.094-0.271,0.144
				c-0.215,0.12-0.425,0.247-0.631,0.381c-0.044,0.029-0.09,0.054-0.134,0.084c-0.003,0.002-0.006,0.004-0.009,0.006
				c0,0,0.001,0,0.001,0c-2.732,1.85-4.534,4.969-4.557,8.512h15.773h4.936l0,0C259.427,159.748,257.956,156.893,255.659,155.007z"
				/>
			<path style="fill:#EADFAE;" d="M308.346,155.007c-0.255-0.21-0.521-0.407-0.796-0.592c-0.55-0.37-1.137-0.688-1.754-0.948
				c-0.943-0.397-1.958-0.656-3.019-0.758v-3.094h-0.53V123.72h-0.507v25.896h-0.424v3.062c-0.163,0.007-0.326,0.015-0.487,0.03
				c-0.095,0.009-0.188,0.021-0.282,0.032c-0.226,0.027-0.45,0.061-0.672,0.102c-0.095,0.018-0.19,0.034-0.284,0.054
				c-0.274,0.059-0.544,0.127-0.81,0.207c-0.027,0.008-0.055,0.014-0.081,0.022c-0.287,0.089-0.566,0.194-0.842,0.307
				c-0.09,0.037-0.178,0.078-0.267,0.117c-0.192,0.085-0.38,0.175-0.566,0.271c-0.091,0.047-0.182,0.094-0.271,0.144
				c-0.215,0.12-0.425,0.247-0.631,0.381c-0.044,0.029-0.09,0.054-0.134,0.084c-0.003,0.002-0.006,0.004-0.009,0.006
				c0.001,0,0.001,0,0.001,0c-2.732,1.85-4.534,4.969-4.557,8.512h15.773h4.936l0,0
				C312.115,159.748,310.644,156.893,308.346,155.007z"/>
			<path style="fill:#EADFAE;" d="M358.662,155.007c-0.255-0.21-0.521-0.407-0.796-0.592c-0.55-0.37-1.137-0.688-1.754-0.948
				c-0.943-0.397-1.958-0.656-3.019-0.758v-3.094h-0.53V123.72h-0.507v25.896h-0.424v3.062c-0.163,0.007-0.326,0.015-0.487,0.03
				c-0.095,0.009-0.188,0.021-0.282,0.032c-0.226,0.027-0.45,0.061-0.672,0.102c-0.095,0.018-0.19,0.034-0.283,0.054
				c-0.274,0.059-0.544,0.127-0.81,0.207c-0.027,0.008-0.055,0.014-0.082,0.022c-0.287,0.089-0.566,0.194-0.842,0.307
				c-0.09,0.037-0.178,0.078-0.267,0.117c-0.192,0.085-0.38,0.175-0.566,0.271c-0.091,0.047-0.182,0.094-0.271,0.144
				c-0.215,0.12-0.425,0.247-0.631,0.381c-0.044,0.029-0.09,0.054-0.134,0.084c-0.003,0.002-0.006,0.004-0.009,0.006
				c0,0,0.001,0,0.001,0c-2.732,1.85-4.534,4.969-4.557,8.512h15.773h4.936l0,0C362.43,159.748,360.959,156.893,358.662,155.007z"/>
			<g>
				<polyline style="fill:#DBD4A2;" points="376.44,121.08 167.16,121.08 167.16,124.68 372.592,124.68 				"/>
				<polyline style="fill:#CCC597;" points="372.592,124.68 372.592,204.428 376.44,204.428 376.44,121.08 				"/>
				<polyline style="fill:#CCC597;" points="300.322,124.68 300.322,204.428 304.17,204.428 304.17,121.08 				"/>
				<polyline style="fill:#CCC597;" points="226.792,124.68 226.792,204.428 230.64,204.428 230.64,121.08 				"/>
			</g>
		</g>
		<rect x="158.28" y="201.725" style="fill:#853A17;" width="228.6" height="8.773"/>
		<rect x="279.279" y="452.295" style="fill:#BF9A50;" width="116.079" height="12.512"/>
		<rect x="286.23" y="442.5" style="fill:#BF9A50;" width="102.177" height="10.195"/>
		<rect x="158.278" y="397.738" style="fill:#853A17;" width="124.202" height="11.031"/>
		<rect x="230.76" y="116.52" style="fill:#F5F2C4;" width="9.36" height="85.2"/>
		<rect x="304.2" y="116.52" style="fill:#F5F2C4;" width="9.36" height="85.2"/>
		<rect x="158.278" y="397.738" style="fill:#A3481C;" width="124.202" height="4.622"/>
		<path style="fill:#CCC597;" d="M377.633,298.913"/>
		<polygon style="fill:#853A17;" points="377.633,298.913 377.7,442.41 370.05,442.41 370.05,305.681 		"/>
		<polygon style="fill:#DE6126;" points="298.987,298.913 298.92,442.41 306.57,442.41 306.57,305.681 		"/>
		<polygon style="fill:#A3481C;" points="304.41,303.753 304.41,442.41 306.57,442.41 306.57,305.681 		"/>
		<rect x="315.174" y="417.36" style="fill:#A3481C;" width="46.266" height="17.28"/>
		<polygon style="fill:#733214;" points="361.44,417.36 364.36,415 364.36,437 361.44,434.64 		"/>
		<polygon style="fill:#DE6126;" points="315.175,417.36 312.255,415 312.255,437 315.175,434.64 		"/>
		<rect x="230.64" y="121.02" style="fill:#FFFFFF;" width="1.2" height="80.662"/>
		<rect x="304.11" y="121.02" style="fill:#FFFFFF;" width="1.2" height="80.662"/>
		<rect x="376.41" y="121.02" style="fill:#FFFFFF;" width="1.2" height="80.662"/>
		<rect x="158.278" y="201.704" style="fill:#A3481C;" width="228.617" height="4.622"/>
		<polygon style="fill:#FFFFFF;" points="137.521,84 137.521,85.14 404.35,85.14 404.35,96 405.76,96 405.76,84 		"/>
		<polygon style="fill:#FFFFFF;" points="137.521,39.405 137.521,40.545 404.35,40.545 404.35,51.405 405.76,51.405 405.76,39.405 
					"/>
		<polygon style="fill:#DBD4A2;" points="279.48,464.806 271.359,464.806 279.48,452.295 		"/>
		<polygon style="fill:#DBD4A2;" points="286.23,454.996 278.109,454.996 286.23,442.485 		"/>
		<polygon style="fill:#DEB25D;" points="286.23,442.5 286.23,443.94 386.487,443.94 386.487,452.695 388.407,452.695 
			388.407,442.5 		"/>
		<g>
			
				<rect x="303.06" y="371.518" transform="matrix(-1.836970e-16 1 -1 -1.836970e-16 687.1798 58.6201)" style="fill:#BF9A50;" width="22.44" height="2.764"/>
			
				<rect x="303.584" y="372.042" transform="matrix(-1.836970e-16 1 -1 -1.836970e-16 687.704 58.096)" style="fill:#DEB25D;" width="22.44" height="1.716"/>
		</g>
		<rect x="158.278" y="397.738" style="fill:#DE6126;" width="124.202" height="1.441"/>
		<rect x="158.278" y="201.704" style="fill:#DE6126;" width="228.617" height="1.337"/>
		<g>
			<polygon style="fill:#DBD4A2;" points="272.183,397.77 242.412,397.77 240.35,385.84 274.246,385.84 			"/>
			<path style="fill:#CCC597;" d="M240.373,385.97l2.04,11.8h11.378c-0.665-0.95-1.106-1.878-0.945-2.725
				c0.769-4.048,14.66-3.423,14.747-4.889c0.058-0.979-6.027-3.159-12.829-4.316h-13.992
				C240.638,385.882,240.502,385.924,240.373,385.97z"/>
			<path style="fill:#42B349;" d="M270.618,380.603c-0.036,0-0.072,0.004-0.108,0.005c0.413-0.676,0.649-1.448,0.649-2.27
				c0-2.647-2.436-4.792-5.44-4.792c-1.108,0-2.137,0.294-2.997,0.795c-0.67-1.978-2.748-3.421-5.211-3.421
				c-2.505,0-4.61,1.494-5.241,3.525c-0.44-0.101-0.899-0.161-1.376-0.161c-3.004,0-5.44,2.146-5.44,4.792
				c0,0.389,0.058,0.766,0.158,1.128c-0.127-0.004-0.252-0.012-0.381-0.012c-4.247,0-7.69,2.146-7.69,4.792
				c0,2.647,3.443,4.792,7.69,4.792c1.841,0,3.53-0.404,4.855-1.077c2.103,1.971,5.696,3.271,9.779,3.271
				c3.319,0,6.31-0.862,8.445-2.241c0.701,0.29,1.481,0.457,2.308,0.457c3.004,0,5.44-2.146,5.44-4.792
				S273.622,380.603,270.618,380.603z"/>
			<g>
				<path style="fill:#338C43;" d="M267.24,390.209c-4.083,0-10.867,0.375-15.069-4.336c-1.324,0.673-2.555,1.395-4.347,0.97
					c-1.576-0.374-2.859-1.523-2.908-3.621c-0.062-2.646,3.443-4.792,7.69-4.792c0.128,0,0.254,0.008,0.381,0.012
					c-0.099-0.362-0.158-0.739-0.158-1.128c0-2.647,2.435-4.792,5.44-4.792c0.476,0,0.935,0.059,1.376,0.161
					c0.125-0.402,0.322-0.774,0.554-1.127c-0.794-0.399-1.707-0.635-2.686-0.635c-2.506,0-4.61,1.494-5.241,3.525
					c-0.44-0.101-0.899-0.161-1.376-0.161c-3.004,0-5.44,2.146-5.44,4.792c0,0.389,0.058,0.766,0.158,1.128
					c-0.127-0.004-0.252-0.012-0.381-0.012c-4.247,0-7.69,2.146-7.69,4.792c0,2.647,3.443,4.792,7.69,4.792
					c1.842,0,3.53-0.404,4.855-1.077c2.103,1.971,5.696,3.271,9.779,3.271c2.923,0,5.591-0.67,7.644-1.772
					C267.419,390.201,267.331,390.209,267.24,390.209z"/>
				<path style="fill:#338C43;" d="M269.45,390.073c0.376,0.074,0.767,0.115,1.168,0.115c1.658,0,3.139-0.655,4.137-1.685
					C273.257,389.284,271.444,389.835,269.45,390.073z"/>
			</g>
			<g>
				<path style="fill:#379644;" d="M272.258,389.108c-0.826,0-1.606-0.167-2.308-0.457c-2.135,1.38-5.126,2.241-8.445,2.241
					c-4.083,0-7.676-1.3-9.779-3.271c-1.324,0.673-3.013,1.077-4.855,1.077c-4.247,0-7.69-2.146-7.69-4.792
					c0-1.003,0.497-1.934,1.343-2.704c-1.812,0.877-2.982,2.243-2.982,3.784c0,2.647,3.443,4.792,7.69,4.792
					c1.841,0,3.53-0.404,4.855-1.077c2.103,1.971,5.696,3.271,9.779,3.271c3.319,0,6.31-0.862,8.445-2.241
					c0.701,0.29,1.481,0.457,2.308,0.457c1.591,0,3.018-0.606,4.013-1.565C273.913,388.93,273.11,389.108,272.258,389.108z"/>
			</g>
			<g>
				<path style="fill:#7CCF4C;" d="M262.533,380.101c1.723,0.079,3.095,0.968,3.064,1.986c-0.031,1.018-1.453,1.78-3.176,1.701
					c-1.723-0.079-3.095-0.968-3.064-1.986C259.387,380.784,260.809,380.023,262.533,380.101z"/>
				<path style="fill:#7CCF4C;" d="M264.186,377.057c1.723,0.079,3.095,0.968,3.064,1.986c-0.031,1.018-1.453,1.78-3.176,1.701
					c-1.723-0.078-3.095-0.968-3.064-1.986C261.041,377.741,262.463,376.979,264.186,377.057z"/>
				<path style="fill:#7CCF4C;" d="M255.489,382.194c1.003,0.046,1.802,0.563,1.784,1.156c-0.018,0.593-0.846,1.036-1.849,0.99
					c-1.003-0.046-1.802-0.563-1.784-1.156C253.658,382.592,254.485,382.148,255.489,382.194z"/>
				<path style="fill:#7CCF4C;" d="M258.435,374.313c1.723,0.079,3.095,0.968,3.064,1.986c-0.031,1.018-1.453,1.78-3.176,1.701
					c-1.723-0.079-3.095-0.968-3.064-1.986C255.29,374.996,256.712,374.235,258.435,374.313z"/>
				<path style="fill:#338C43;" d="M251.406,377.84c1.723,0.079,3.095,0.968,3.064,1.986c-0.031,1.018-1.453,1.78-3.176,1.701
					c-1.723-0.079-3.095-0.968-3.064-1.986C248.261,378.523,249.683,377.761,251.406,377.84z"/>
				<path style="fill:#7CCF4C;" d="M267.487,381.658c2.479,0.113,4.453,1.392,4.409,2.857c-0.045,1.465-2.091,2.561-4.57,2.448
					c-2.479-0.113-4.453-1.392-4.409-2.857C262.962,382.641,265.008,381.545,267.487,381.658z"/>
				<path style="fill:#379644;" d="M257.997,379.066c0.861,0.039,1.546,0.483,1.531,0.992c-0.016,0.509-0.726,0.889-1.587,0.85
					s-1.546-0.484-1.531-0.992C256.426,379.407,257.136,379.026,257.997,379.066z"/>
				<path style="fill:#338C43;" d="M259.128,371.581c0.931,0.042,1.672,0.523,1.655,1.073c-0.017,0.55-0.785,0.962-1.716,0.919
					c-0.931-0.043-1.672-0.523-1.655-1.073C257.429,371.949,258.197,371.538,259.128,371.581z"/>
			</g>
			<g>
				<path style="fill:#7CCF4C;" d="M257.007,370.997c2.463,0,4.541,1.443,5.211,3.421c0.141-0.082,0.292-0.149,0.442-0.22
					c-0.721-1.902-2.746-3.278-5.148-3.278c-0.407,0-0.797,0.052-1.178,0.127C256.555,371.023,256.777,370.997,257.007,370.997z"/>
				<path style="fill:#7CCF4C;" d="M270.618,380.603c-0.036,0-0.072,0.004-0.108,0.005c0.413-0.676,0.649-1.448,0.649-2.27
					c0-2.647-2.436-4.792-5.44-4.792c-0.393,0-0.771,0.049-1.141,0.119c0.21-0.022,0.42-0.042,0.636-0.042
					c3.004,0,5.44,2.145,5.44,4.792c0,0.821-0.235,1.594-0.649,2.27c0.036-0.001,0.071-0.005,0.108-0.005
					c3.004,0,5.44,2.146,5.44,4.792c0,2.284-1.815,4.191-4.243,4.672c2.677-0.3,4.747-2.31,4.747-4.749
					C276.058,382.749,273.622,380.603,270.618,380.603z"/>
			</g>
		</g>
		<g>
			<polygon style="fill:#DBD4A2;" points="384.593,201.66 354.822,201.66 352.76,189.73 386.656,189.73 			"/>
			<path style="fill:#CCC597;" d="M352.783,189.86l2.04,11.8h11.378c-0.665-0.95-1.106-1.878-0.945-2.725
				c0.769-4.048,14.66-3.423,14.747-4.889c0.058-0.979-6.027-3.159-12.829-4.316h-13.992
				C353.048,189.772,352.912,189.814,352.783,189.86z"/>
			<path style="fill:#42B349;" d="M383.028,184.493c-0.036,0-0.072,0.004-0.108,0.005c0.413-0.676,0.649-1.448,0.649-2.27
				c0-2.647-2.436-4.792-5.44-4.792c-1.108,0-2.137,0.294-2.997,0.794c-0.67-1.978-2.748-3.421-5.211-3.421
				c-2.505,0-4.61,1.494-5.241,3.525c-0.44-0.101-0.899-0.161-1.376-0.161c-3.004,0-5.44,2.146-5.44,4.792
				c0,0.389,0.059,0.766,0.158,1.128c-0.127-0.004-0.252-0.012-0.381-0.012c-4.247,0-7.69,2.146-7.69,4.792
				c0,2.647,3.443,4.792,7.69,4.792c1.841,0,3.53-0.404,4.854-1.077c2.103,1.971,5.696,3.271,9.779,3.271
				c3.319,0,6.31-0.862,8.445-2.241c0.701,0.29,1.481,0.457,2.308,0.457c3.004,0,5.44-2.146,5.44-4.792
				C388.468,186.639,386.033,184.493,383.028,184.493z"/>
			<g>
				<path style="fill:#338C43;" d="M379.65,194.099c-4.083,0-10.867,0.375-15.069-4.336c-1.324,0.673-2.555,1.395-4.347,0.97
					c-1.576-0.374-2.859-1.523-2.908-3.621c-0.062-2.646,3.443-4.792,7.69-4.792c0.129,0,0.254,0.008,0.381,0.012
					c-0.099-0.362-0.158-0.739-0.158-1.128c0-2.647,2.435-4.792,5.44-4.792c0.476,0,0.935,0.059,1.375,0.161
					c0.125-0.402,0.322-0.774,0.554-1.127c-0.794-0.399-1.707-0.635-2.686-0.635c-2.506,0-4.61,1.494-5.241,3.525
					c-0.44-0.101-0.899-0.161-1.376-0.161c-3.004,0-5.44,2.146-5.44,4.792c0,0.389,0.059,0.766,0.158,1.128
					c-0.127-0.004-0.252-0.012-0.381-0.012c-4.247,0-7.69,2.146-7.69,4.792c0,2.647,3.443,4.792,7.69,4.792
					c1.842,0,3.53-0.404,4.855-1.077c2.103,1.971,5.696,3.271,9.779,3.271c2.923,0,5.591-0.67,7.644-1.772
					C379.829,194.091,379.741,194.099,379.65,194.099z"/>
				<path style="fill:#338C43;" d="M381.86,193.963c0.376,0.074,0.767,0.115,1.169,0.115c1.658,0,3.139-0.655,4.137-1.685
					C385.667,193.174,383.854,193.725,381.86,193.963z"/>
			</g>
			<g>
				<path style="fill:#379644;" d="M384.668,192.998c-0.826,0-1.606-0.167-2.308-0.457c-2.135,1.38-5.126,2.241-8.445,2.241
					c-4.083,0-7.676-1.3-9.779-3.271c-1.324,0.673-3.013,1.077-4.854,1.077c-4.247,0-7.69-2.146-7.69-4.792
					c0-1.003,0.497-1.934,1.343-2.704c-1.812,0.877-2.982,2.243-2.982,3.784c0,2.647,3.443,4.792,7.69,4.792
					c1.841,0,3.53-0.404,4.854-1.077c2.103,1.971,5.696,3.271,9.779,3.271c3.319,0,6.31-0.862,8.445-2.241
					c0.701,0.29,1.481,0.457,2.308,0.457c1.591,0,3.018-0.606,4.013-1.565C386.323,192.82,385.52,192.998,384.668,192.998z"/>
			</g>
			<g>
				<path style="fill:#7CCF4C;" d="M374.943,183.991c1.723,0.079,3.095,0.968,3.064,1.986c-0.031,1.018-1.453,1.78-3.176,1.701
					c-1.723-0.079-3.095-0.968-3.064-1.986C371.797,184.674,373.219,183.913,374.943,183.991z"/>
				<path style="fill:#7CCF4C;" d="M376.596,180.947c1.723,0.079,3.095,0.968,3.064,1.986c-0.031,1.018-1.453,1.78-3.176,1.701
					c-1.723-0.079-3.095-0.968-3.064-1.986C373.451,181.63,374.873,180.869,376.596,180.947z"/>
				<path style="fill:#7CCF4C;" d="M367.899,186.084c1.003,0.046,1.802,0.563,1.784,1.156c-0.018,0.593-0.846,1.036-1.849,0.99
					c-1.003-0.046-1.802-0.563-1.784-1.156C366.068,186.482,366.895,186.038,367.899,186.084z"/>
				<path style="fill:#7CCF4C;" d="M370.845,178.203c1.723,0.079,3.095,0.968,3.064,1.986c-0.031,1.018-1.453,1.78-3.176,1.701
					c-1.723-0.079-3.095-0.968-3.064-1.986C367.7,178.886,369.122,178.125,370.845,178.203z"/>
				<path style="fill:#338C43;" d="M363.816,181.73c1.723,0.079,3.095,0.968,3.064,1.986c-0.031,1.018-1.453,1.78-3.176,1.701
					c-1.723-0.079-3.095-0.968-3.064-1.986C360.671,182.413,362.093,181.651,363.816,181.73z"/>
				<path style="fill:#7CCF4C;" d="M379.897,185.548c2.479,0.113,4.453,1.392,4.408,2.857c-0.045,1.465-2.091,2.561-4.57,2.448
					c-2.479-0.113-4.453-1.392-4.409-2.857C375.372,186.531,377.418,185.435,379.897,185.548z"/>
				<path style="fill:#379644;" d="M370.407,182.956c0.861,0.039,1.546,0.483,1.531,0.992c-0.016,0.509-0.726,0.889-1.587,0.85
					c-0.861-0.039-1.546-0.484-1.531-0.992C368.836,183.297,369.546,182.917,370.407,182.956z"/>
				<path style="fill:#338C43;" d="M371.538,175.471c0.931,0.042,1.672,0.523,1.655,1.073c-0.017,0.55-0.785,0.962-1.716,0.919
					c-0.931-0.042-1.672-0.523-1.655-1.073C369.839,175.839,370.607,175.428,371.538,175.471z"/>
			</g>
			<g>
				<path style="fill:#7CCF4C;" d="M369.417,174.887c2.463,0,4.541,1.443,5.211,3.421c0.141-0.082,0.292-0.149,0.442-0.22
					c-0.721-1.902-2.747-3.278-5.148-3.278c-0.407,0-0.797,0.052-1.178,0.127C368.965,174.913,369.187,174.887,369.417,174.887z"/>
				<path style="fill:#7CCF4C;" d="M383.028,184.493c-0.036,0-0.072,0.004-0.108,0.005c0.413-0.676,0.649-1.448,0.649-2.27
					c0-2.647-2.436-4.792-5.44-4.792c-0.393,0-0.771,0.049-1.141,0.119c0.21-0.022,0.42-0.042,0.636-0.042
					c3.004,0,5.44,2.145,5.44,4.792c0,0.822-0.235,1.594-0.649,2.27c0.036-0.001,0.071-0.005,0.108-0.005
					c3.004,0,5.44,2.145,5.44,4.792c0,2.284-1.815,4.191-4.243,4.672c2.677-0.3,4.747-2.31,4.747-4.749
					C388.468,186.639,386.033,184.493,383.028,184.493z"/>
			</g>
		</g>
		<g>
			<polygon style="fill:#DBD4A2;" points="254.118,397.77 224.347,397.77 222.284,385.84 256.18,385.84 			"/>
			<path style="fill:#CCC597;" d="M222.307,385.97l2.04,11.8h11.378c-0.665-0.95-1.106-1.878-0.945-2.725
				c0.769-4.048,14.66-3.423,14.747-4.889c0.058-0.979-6.027-3.159-12.829-4.316h-13.992
				C222.573,385.882,222.437,385.924,222.307,385.97z"/>
			<path style="fill:#42B349;" d="M252.552,380.603c-0.036,0-0.072,0.004-0.108,0.005c0.413-0.676,0.649-1.448,0.649-2.27
				c0-2.647-2.436-4.792-5.44-4.792c-1.108,0-2.137,0.294-2.997,0.795c-0.67-1.978-2.748-3.421-5.211-3.421
				c-2.506,0-4.61,1.494-5.241,3.525c-0.44-0.101-0.899-0.161-1.375-0.161c-3.004,0-5.44,2.146-5.44,4.792
				c0,0.389,0.058,0.766,0.158,1.128c-0.127-0.004-0.252-0.012-0.381-0.012c-4.247,0-7.69,2.146-7.69,4.792
				c0,2.647,3.443,4.792,7.69,4.792c1.841,0,3.53-0.404,4.854-1.077c2.103,1.971,5.696,3.271,9.779,3.271
				c3.319,0,6.31-0.862,8.445-2.241c0.701,0.29,1.481,0.457,2.308,0.457c3.004,0,5.44-2.146,5.44-4.792
				S255.557,380.603,252.552,380.603z"/>
			<g>
				<path style="fill:#338C43;" d="M249.174,390.209c-4.083,0-10.867,0.375-15.069-4.336c-1.324,0.673-2.555,1.395-4.347,0.97
					c-1.576-0.374-2.859-1.523-2.908-3.621c-0.062-2.646,3.443-4.792,7.69-4.792c0.128,0,0.254,0.008,0.381,0.012
					c-0.099-0.362-0.158-0.739-0.158-1.128c0-2.647,2.436-4.792,5.44-4.792c0.476,0,0.935,0.059,1.376,0.161
					c0.125-0.402,0.322-0.774,0.554-1.127c-0.793-0.399-1.706-0.635-2.686-0.635c-2.506,0-4.61,1.494-5.241,3.525
					c-0.44-0.101-0.899-0.161-1.375-0.161c-3.004,0-5.44,2.146-5.44,4.792c0,0.389,0.059,0.766,0.158,1.128
					c-0.127-0.004-0.252-0.012-0.381-0.012c-4.247,0-7.69,2.146-7.69,4.792c0,2.647,3.443,4.792,7.69,4.792
					c1.842,0,3.531-0.404,4.855-1.077c2.103,1.971,5.696,3.271,9.779,3.271c2.923,0,5.591-0.67,7.644-1.772
					C249.354,390.201,249.265,390.209,249.174,390.209z"/>
				<path style="fill:#338C43;" d="M251.384,390.073c0.376,0.074,0.767,0.115,1.169,0.115c1.658,0,3.139-0.655,4.137-1.685
					C255.191,389.284,253.378,389.835,251.384,390.073z"/>
			</g>
			<g>
				<path style="fill:#379644;" d="M254.192,389.108c-0.826,0-1.606-0.167-2.308-0.457c-2.135,1.38-5.126,2.241-8.445,2.241
					c-4.083,0-7.676-1.3-9.779-3.271c-1.324,0.673-3.013,1.077-4.855,1.077c-4.247,0-7.69-2.146-7.69-4.792
					c0-1.003,0.497-1.934,1.343-2.704c-1.812,0.877-2.982,2.243-2.982,3.784c0,2.647,3.443,4.792,7.69,4.792
					c1.841,0,3.53-0.404,4.854-1.077c2.103,1.971,5.696,3.271,9.779,3.271c3.319,0,6.31-0.862,8.445-2.241
					c0.701,0.29,1.481,0.457,2.308,0.457c1.591,0,3.018-0.606,4.013-1.565C255.847,388.93,255.044,389.108,254.192,389.108z"/>
			</g>
			<g>
				<path style="fill:#7CCF4C;" d="M244.467,380.101c1.723,0.079,3.095,0.968,3.064,1.986c-0.031,1.018-1.453,1.78-3.176,1.701
					c-1.723-0.079-3.095-0.968-3.064-1.986C241.322,380.784,242.744,380.023,244.467,380.101z"/>
				<path style="fill:#7CCF4C;" d="M246.121,377.057c1.723,0.079,3.095,0.968,3.064,1.986c-0.031,1.018-1.453,1.78-3.176,1.701
					c-1.723-0.078-3.095-0.968-3.064-1.986C242.976,377.741,244.398,376.979,246.121,377.057z"/>
				<path style="fill:#7CCF4C;" d="M237.423,382.194c1.003,0.046,1.802,0.563,1.784,1.156c-0.018,0.593-0.846,1.036-1.849,0.99
					c-1.003-0.046-1.802-0.563-1.784-1.156C235.592,382.592,236.42,382.148,237.423,382.194z"/>
				<path style="fill:#7CCF4C;" d="M240.369,374.313c1.723,0.079,3.095,0.968,3.064,1.986c-0.031,1.018-1.453,1.78-3.176,1.701
					c-1.723-0.079-3.095-0.968-3.064-1.986C237.224,374.996,238.646,374.235,240.369,374.313z"/>
				<path style="fill:#338C43;" d="M233.34,377.84c1.723,0.079,3.095,0.968,3.064,1.986c-0.031,1.018-1.453,1.78-3.176,1.701
					c-1.723-0.079-3.095-0.968-3.064-1.986C230.195,378.523,231.617,377.761,233.34,377.84z"/>
				<path style="fill:#7CCF4C;" d="M249.422,381.658c2.479,0.113,4.453,1.392,4.408,2.857c-0.045,1.465-2.091,2.561-4.57,2.448
					c-2.479-0.113-4.453-1.392-4.408-2.857C244.896,382.641,246.942,381.545,249.422,381.658z"/>
				<path style="fill:#379644;" d="M239.931,379.066c0.861,0.039,1.546,0.483,1.531,0.992c-0.016,0.509-0.726,0.889-1.587,0.85
					c-0.861-0.039-1.546-0.484-1.531-0.992C238.36,379.407,239.07,379.026,239.931,379.066z"/>
				<path style="fill:#338C43;" d="M241.062,371.581c0.931,0.042,1.672,0.523,1.655,1.073c-0.017,0.55-0.785,0.962-1.716,0.919
					c-0.931-0.043-1.672-0.523-1.655-1.073C239.363,371.949,240.131,371.538,241.062,371.581z"/>
			</g>
			<g>
				<path style="fill:#7CCF4C;" d="M238.941,370.997c2.463,0,4.541,1.443,5.211,3.421c0.141-0.082,0.292-0.149,0.442-0.22
					c-0.721-1.902-2.746-3.278-5.148-3.278c-0.407,0-0.797,0.052-1.179,0.127C238.49,371.023,238.712,370.997,238.941,370.997z"/>
				<path style="fill:#7CCF4C;" d="M252.552,380.603c-0.036,0-0.072,0.004-0.108,0.005c0.413-0.676,0.649-1.448,0.649-2.27
					c0-2.647-2.436-4.792-5.44-4.792c-0.393,0-0.771,0.049-1.141,0.119c0.21-0.022,0.42-0.042,0.636-0.042
					c3.004,0,5.44,2.145,5.44,4.792c0,0.821-0.235,1.594-0.649,2.27c0.036-0.001,0.071-0.005,0.108-0.005
					c3.004,0,5.44,2.146,5.44,4.792c0,2.284-1.815,4.191-4.243,4.672c2.677-0.3,4.747-2.31,4.747-4.749
					C257.992,382.749,255.557,380.603,252.552,380.603z"/>
			</g>
		</g>
		<g>
			<polygon style="fill:#DBD4A2;" points="188.398,397.77 158.627,397.77 156.564,385.84 190.46,385.84 			"/>
			<path style="fill:#CCC597;" d="M156.587,385.97l2.04,11.8h11.378c-0.665-0.95-1.106-1.878-0.945-2.725
				c0.769-4.048,14.66-3.423,14.747-4.889c0.058-0.979-6.027-3.159-12.829-4.316h-13.992
				C156.853,385.882,156.717,385.924,156.587,385.97z"/>
			<path style="fill:#42B349;" d="M186.832,380.603c-0.036,0-0.072,0.004-0.108,0.005c0.413-0.676,0.649-1.448,0.649-2.27
				c0-2.647-2.436-4.792-5.44-4.792c-1.108,0-2.137,0.294-2.997,0.795c-0.67-1.978-2.748-3.421-5.211-3.421
				c-2.506,0-4.61,1.494-5.241,3.525c-0.44-0.101-0.899-0.161-1.376-0.161c-3.004,0-5.44,2.146-5.44,4.792
				c0,0.389,0.058,0.766,0.158,1.128c-0.127-0.004-0.252-0.012-0.381-0.012c-4.247,0-7.69,2.146-7.69,4.792
				c0,2.647,3.443,4.792,7.69,4.792c1.841,0,3.53-0.404,4.854-1.077c2.103,1.971,5.696,3.271,9.779,3.271
				c3.319,0,6.31-0.862,8.445-2.241c0.701,0.29,1.481,0.457,2.308,0.457c3.004,0,5.44-2.146,5.44-4.792
				S189.837,380.603,186.832,380.603z"/>
			<g>
				<path style="fill:#338C43;" d="M183.454,390.209c-4.083,0-10.867,0.375-15.069-4.336c-1.324,0.673-2.555,1.395-4.347,0.97
					c-1.576-0.374-2.859-1.523-2.908-3.621c-0.062-2.646,3.443-4.792,7.69-4.792c0.129,0,0.254,0.008,0.381,0.012
					c-0.099-0.362-0.158-0.739-0.158-1.128c0-2.647,2.436-4.792,5.44-4.792c0.476,0,0.935,0.059,1.376,0.161
					c0.125-0.402,0.322-0.774,0.554-1.127c-0.794-0.399-1.706-0.635-2.686-0.635c-2.506,0-4.61,1.494-5.241,3.525
					c-0.44-0.101-0.899-0.161-1.376-0.161c-3.004,0-5.44,2.146-5.44,4.792c0,0.389,0.059,0.766,0.158,1.128
					c-0.127-0.004-0.252-0.012-0.381-0.012c-4.247,0-7.69,2.146-7.69,4.792c0,2.647,3.443,4.792,7.69,4.792
					c1.841,0,3.53-0.404,4.854-1.077c2.103,1.971,5.696,3.271,9.779,3.271c2.923,0,5.591-0.67,7.645-1.772
					C183.634,390.201,183.545,390.209,183.454,390.209z"/>
				<path style="fill:#338C43;" d="M185.664,390.073c0.376,0.074,0.767,0.115,1.168,0.115c1.658,0,3.139-0.655,4.137-1.685
					C189.471,389.284,187.658,389.835,185.664,390.073z"/>
			</g>
			<g>
				<path style="fill:#379644;" d="M188.472,389.108c-0.826,0-1.606-0.167-2.308-0.457c-2.135,1.38-5.126,2.241-8.445,2.241
					c-4.083,0-7.676-1.3-9.779-3.271c-1.324,0.673-3.013,1.077-4.855,1.077c-4.247,0-7.69-2.146-7.69-4.792
					c0-1.003,0.497-1.934,1.343-2.704c-1.812,0.877-2.982,2.243-2.982,3.784c0,2.647,3.443,4.792,7.69,4.792
					c1.841,0,3.53-0.404,4.854-1.077c2.103,1.971,5.696,3.271,9.779,3.271c3.319,0,6.31-0.862,8.445-2.241
					c0.701,0.29,1.481,0.457,2.308,0.457c1.591,0,3.018-0.606,4.013-1.565C190.128,388.93,189.324,389.108,188.472,389.108z"/>
			</g>
			<g>
				<path style="fill:#7CCF4C;" d="M178.747,380.101c1.723,0.079,3.095,0.968,3.064,1.986c-0.031,1.018-1.453,1.78-3.176,1.701
					c-1.723-0.079-3.095-0.968-3.064-1.986C175.602,380.784,177.024,380.023,178.747,380.101z"/>
				<path style="fill:#7CCF4C;" d="M180.401,377.057c1.723,0.079,3.095,0.968,3.064,1.986c-0.031,1.018-1.453,1.78-3.176,1.701
					c-1.723-0.078-3.095-0.968-3.064-1.986C177.256,377.741,178.678,376.979,180.401,377.057z"/>
				<path style="fill:#7CCF4C;" d="M171.703,382.194c1.003,0.046,1.802,0.563,1.784,1.156c-0.018,0.593-0.846,1.036-1.849,0.99
					c-1.003-0.046-1.802-0.563-1.784-1.156C169.872,382.592,170.7,382.148,171.703,382.194z"/>
				<path style="fill:#7CCF4C;" d="M174.649,374.313c1.723,0.079,3.095,0.968,3.064,1.986c-0.031,1.018-1.453,1.78-3.176,1.701
					c-1.723-0.079-3.095-0.968-3.064-1.986C171.504,374.996,172.926,374.235,174.649,374.313z"/>
				<path style="fill:#338C43;" d="M167.62,377.84c1.723,0.079,3.095,0.968,3.064,1.986c-0.031,1.018-1.453,1.78-3.176,1.701
					c-1.723-0.079-3.095-0.968-3.064-1.986C164.475,378.523,165.897,377.761,167.62,377.84z"/>
				<path style="fill:#7CCF4C;" d="M183.702,381.658c2.479,0.113,4.453,1.392,4.408,2.857c-0.045,1.465-2.091,2.561-4.57,2.448
					c-2.479-0.113-4.453-1.392-4.408-2.857C179.176,382.641,181.222,381.545,183.702,381.658z"/>
				<path style="fill:#379644;" d="M174.211,379.066c0.861,0.039,1.546,0.483,1.531,0.992c-0.016,0.509-0.726,0.889-1.587,0.85
					c-0.861-0.039-1.546-0.484-1.531-0.992C172.64,379.407,173.35,379.026,174.211,379.066z"/>
				<path style="fill:#338C43;" d="M175.342,371.581c0.931,0.042,1.672,0.523,1.655,1.073c-0.017,0.55-0.785,0.962-1.716,0.919
					c-0.931-0.043-1.672-0.523-1.655-1.073C173.643,371.949,174.411,371.538,175.342,371.581z"/>
			</g>
			<g>
				<path style="fill:#7CCF4C;" d="M173.221,370.997c2.463,0,4.541,1.443,5.211,3.421c0.141-0.082,0.292-0.149,0.442-0.22
					c-0.721-1.902-2.746-3.278-5.148-3.278c-0.407,0-0.797,0.052-1.178,0.127C172.77,371.023,172.992,370.997,173.221,370.997z"/>
				<path style="fill:#7CCF4C;" d="M186.832,380.603c-0.036,0-0.072,0.004-0.108,0.005c0.413-0.676,0.649-1.448,0.649-2.27
					c0-2.647-2.436-4.792-5.44-4.792c-0.393,0-0.771,0.049-1.141,0.119c0.21-0.022,0.42-0.042,0.636-0.042
					c3.004,0,5.44,2.145,5.44,4.792c0,0.821-0.235,1.594-0.649,2.27c0.036-0.001,0.072-0.005,0.108-0.005
					c3.004,0,5.44,2.146,5.44,4.792c0,2.284-1.815,4.191-4.243,4.672c2.677-0.3,4.747-2.31,4.747-4.749
					C192.272,382.749,189.837,380.603,186.832,380.603z"/>
			</g>
		</g>
		<rect x="279.279" y="452.295" style="fill:#BF9A50;" width="116.079" height="12.512"/>
		<polygon style="fill:#DEB25D;" points="279.279,452.295 279.279,454.454 392.958,454.454 392.958,464.806 395.358,464.806 
			395.358,452.295 		"/>
		<path style="fill:#FFEFBD;" d="M351.049,335.855v4.752h-0.424v3.061c-0.163,0.007-0.326,0.015-0.487,0.03
			c-0.095,0.009-0.188,0.021-0.282,0.032c-0.226,0.027-0.45,0.061-0.672,0.102c-0.095,0.018-0.19,0.034-0.283,0.054
			c-0.274,0.059-0.544,0.127-0.81,0.207c-0.027,0.008-0.055,0.014-0.082,0.022c-0.287,0.089-0.566,0.194-0.842,0.307
			c-0.09,0.037-0.178,0.078-0.267,0.117c-0.192,0.085-0.38,0.175-0.566,0.271c-0.091,0.047-0.182,0.094-0.271,0.144
			c-0.215,0.12-0.425,0.247-0.631,0.381c-0.044,0.029-0.09,0.054-0.134,0.084c-0.003,0.002-0.006,0.004-0.009,0.006
			c0.001,0,0.001,0,0.001,0c-2.732,1.85-4.534,4.969-4.557,8.512h1.453l13.88-9.012c-0.312-0.171-0.632-0.33-0.962-0.469
			c-0.943-0.397-1.958-0.656-3.019-0.758v-3.094h-0.53v-5.086L351.049,335.855z"/>
		<g>
			<g>
				<polyline style="fill:none;stroke:#5E4B40;stroke-width:0.5;stroke-linejoin:round;stroke-miterlimit:10;" points="
					332.315,349.148 333.788,338.871 341.087,346.86 				"/>
				<g>
					<g>
						
							<rect x="323.432" y="348.178" transform="matrix(0.9661 -0.2582 0.2582 0.9661 -80.3205 99.1799)" style="fill:#F5F2C4;" width="27.884" height="14.313"/>
					</g>
					<g>
						
							<rect x="323.972" y="346.828" transform="matrix(0.9661 -0.2582 0.2582 0.9661 -79.9535 99.2736)" style="fill:#FF5D33;" width="27.884" height="14.313"/>
					</g>
					
						<text transform="matrix(0.9659 -0.2588 0.2588 0.9659 327.8824 359.2911)" style="fill:#FFFFFF; font-family:'NexaRustScriptL-0'; font-size:11px;">Open</text>
				</g>
			</g>
			<circle style="fill:#5E4B40;" cx="333.96" cy="339.18" r="1.08"/>
		</g>
		<g>
			<polygon style="fill:#FFEFBD;" points="245.534,330.439 245.534,340.608 245.11,340.608 245.11,343.109 246.571,342.16 
				246.571,340.608 246.041,340.608 246.041,330.105 			"/>
			<path style="fill:#FFEFBD;" d="M236.84,348.478l7.252-4.708c-0.141,0.02-0.283,0.038-0.423,0.064
				c-0.095,0.018-0.19,0.034-0.283,0.054c-0.274,0.059-0.544,0.127-0.81,0.207c-0.027,0.008-0.055,0.014-0.081,0.022
				c-0.287,0.089-0.566,0.194-0.842,0.307c-0.09,0.037-0.178,0.078-0.267,0.117c-0.192,0.085-0.38,0.175-0.566,0.271
				c-0.091,0.047-0.182,0.094-0.271,0.144c-0.215,0.12-0.425,0.247-0.631,0.381c-0.044,0.029-0.09,0.054-0.134,0.084
				c-0.003,0.002-0.006,0.004-0.009,0.006c0.001,0,0.001,0,0.002,0C238.596,346.227,237.605,347.273,236.84,348.478z"/>
			<polygon style="fill:#FFEFBD;" points="245.534,323.07 245.534,327.346 246.041,327.012 246.041,322.738 			"/>
		</g>
		<g>
			<polygon style="fill:#FFFFFF;" points="316.32,168.734 316.32,173.293 369.24,138.398 369.24,134.126 			"/>
			<polygon style="fill:#FFFFFF;" points="369.24,153.893 369.24,141.492 316.32,176.259 316.32,188.251 			"/>
		</g>
		<g>
			<polygon style="fill:#FFFFFF;" points="243.96,168.734 243.96,173.293 296.88,138.398 296.88,134.126 			"/>
			<polygon style="fill:#FFFFFF;" points="296.88,153.893 296.88,141.492 243.96,176.259 243.96,188.251 			"/>
		</g>
		<g>
			<polygon style="fill:#FFFFFF;" points="171.6,168.734 171.6,173.293 224.52,138.398 224.52,134.126 			"/>
			<polygon style="fill:#FFFFFF;" points="224.52,153.893 224.52,141.492 171.6,176.259 171.6,188.251 			"/>
		</g>
		<g>
			<polygon style="fill:#DBD4A2;" points="268.583,201.705 238.813,201.705 236.75,189.775 270.646,189.775 			"/>
			<path style="fill:#CCC597;" d="M236.773,189.905l2.04,11.8h11.378c-0.665-0.95-1.106-1.878-0.945-2.725
				c0.769-4.048,14.66-3.423,14.747-4.889c0.058-0.979-6.027-3.159-12.829-4.316h-13.992
				C237.038,189.817,236.902,189.859,236.773,189.905z"/>
			<path style="fill:#42B349;" d="M267.018,184.538c-0.036,0-0.072,0.004-0.108,0.005c0.413-0.676,0.649-1.449,0.649-2.27
				c0-2.647-2.435-4.792-5.44-4.792c-1.108,0-2.137,0.294-2.997,0.794c-0.67-1.978-2.748-3.421-5.211-3.421
				c-2.506,0-4.61,1.494-5.241,3.525c-0.44-0.101-0.899-0.161-1.376-0.161c-3.004,0-5.44,2.146-5.44,4.792
				c0,0.389,0.059,0.766,0.158,1.128c-0.127-0.004-0.252-0.012-0.381-0.012c-4.247,0-7.69,2.146-7.69,4.792
				c0,2.647,3.443,4.792,7.69,4.792c1.841,0,3.53-0.404,4.854-1.077c2.103,1.971,5.696,3.271,9.779,3.271
				c3.319,0,6.31-0.862,8.445-2.241c0.701,0.29,1.481,0.457,2.308,0.457c3.004,0,5.44-2.146,5.44-4.792
				S270.022,184.538,267.018,184.538z"/>
			<g>
				<path style="fill:#338C43;" d="M263.639,194.144c-4.083,0-10.867,0.375-15.069-4.336c-1.324,0.673-2.555,1.395-4.347,0.97
					c-1.576-0.374-2.859-1.523-2.908-3.621c-0.062-2.646,3.443-4.792,7.69-4.792c0.129,0,0.254,0.008,0.381,0.012
					c-0.099-0.362-0.158-0.739-0.158-1.128c0-2.647,2.435-4.792,5.44-4.792c0.476,0,0.935,0.059,1.376,0.161
					c0.125-0.402,0.322-0.774,0.554-1.127c-0.794-0.399-1.707-0.635-2.686-0.635c-2.506,0-4.61,1.494-5.242,3.525
					c-0.44-0.101-0.899-0.161-1.375-0.161c-3.004,0-5.44,2.146-5.44,4.792c0,0.389,0.059,0.766,0.158,1.128
					c-0.127-0.004-0.252-0.012-0.381-0.012c-4.247,0-7.69,2.146-7.69,4.792c0,2.647,3.443,4.792,7.69,4.792
					c1.842,0,3.531-0.404,4.855-1.077c2.103,1.971,5.696,3.271,9.779,3.271c2.923,0,5.591-0.67,7.644-1.772
					C263.819,194.136,263.731,194.144,263.639,194.144z"/>
				<path style="fill:#338C43;" d="M265.85,194.008c0.376,0.074,0.767,0.115,1.168,0.115c1.658,0,3.139-0.655,4.137-1.685
					C269.657,193.219,267.844,193.77,265.85,194.008z"/>
			</g>
			<g>
				<path style="fill:#379644;" d="M268.658,193.043c-0.826,0-1.606-0.167-2.308-0.457c-2.135,1.38-5.126,2.241-8.445,2.241
					c-4.083,0-7.676-1.3-9.779-3.271c-1.324,0.673-3.013,1.077-4.855,1.077c-4.247,0-7.69-2.146-7.69-4.792
					c0-1.003,0.497-1.934,1.343-2.704c-1.812,0.877-2.982,2.243-2.982,3.784c0,2.647,3.443,4.792,7.69,4.792
					c1.841,0,3.53-0.404,4.854-1.077c2.103,1.971,5.696,3.271,9.779,3.271c3.319,0,6.31-0.862,8.445-2.241
					c0.701,0.29,1.481,0.457,2.308,0.457c1.591,0,3.018-0.606,4.013-1.565C270.313,192.865,269.51,193.043,268.658,193.043z"/>
			</g>
			<g>
				<path style="fill:#7CCF4C;" d="M258.933,184.036c1.723,0.079,3.095,0.968,3.064,1.986c-0.031,1.018-1.453,1.78-3.176,1.701
					c-1.723-0.079-3.095-0.968-3.064-1.986C255.787,184.719,257.21,183.958,258.933,184.036z"/>
				<path style="fill:#7CCF4C;" d="M260.586,180.992c1.723,0.079,3.095,0.968,3.064,1.986c-0.031,1.018-1.453,1.78-3.176,1.701
					c-1.723-0.079-3.095-0.968-3.064-1.986C257.441,181.676,258.863,180.914,260.586,180.992z"/>
				<path style="fill:#7CCF4C;" d="M251.889,186.129c1.003,0.046,1.802,0.563,1.784,1.156s-0.846,1.036-1.849,0.99
					c-1.003-0.046-1.802-0.563-1.784-1.156C250.058,186.527,250.885,186.083,251.889,186.129z"/>
				<path style="fill:#7CCF4C;" d="M254.835,178.248c1.723,0.079,3.095,0.968,3.064,1.986c-0.031,1.018-1.453,1.78-3.176,1.701
					c-1.723-0.079-3.095-0.968-3.064-1.986C251.69,178.931,253.112,178.17,254.835,178.248z"/>
				<path style="fill:#338C43;" d="M247.806,181.775c1.723,0.079,3.095,0.968,3.064,1.986c-0.031,1.018-1.453,1.78-3.176,1.701
					c-1.723-0.079-3.095-0.968-3.064-1.986C244.661,182.458,246.083,181.696,247.806,181.775z"/>
				<path style="fill:#7CCF4C;" d="M263.887,185.593c2.479,0.113,4.453,1.392,4.409,2.857c-0.045,1.465-2.091,2.561-4.57,2.448
					c-2.479-0.113-4.453-1.392-4.408-2.857C259.362,186.576,261.408,185.48,263.887,185.593z"/>
				<path style="fill:#379644;" d="M254.397,183.001c0.861,0.039,1.546,0.483,1.531,0.992c-0.016,0.509-0.726,0.889-1.587,0.85
					c-0.861-0.039-1.546-0.484-1.531-0.992C252.826,183.342,253.536,182.962,254.397,183.001z"/>
				<path style="fill:#338C43;" d="M255.528,175.516c0.931,0.042,1.672,0.523,1.655,1.073c-0.017,0.55-0.785,0.962-1.716,0.919
					c-0.931-0.042-1.672-0.523-1.655-1.073C253.829,175.885,254.597,175.473,255.528,175.516z"/>
			</g>
			<g>
				<path style="fill:#7CCF4C;" d="M253.407,174.932c2.463,0,4.541,1.443,5.211,3.421c0.141-0.082,0.292-0.149,0.442-0.22
					c-0.721-1.902-2.746-3.278-5.148-3.278c-0.407,0-0.797,0.052-1.178,0.127C252.955,174.958,253.177,174.932,253.407,174.932z"/>
				<path style="fill:#7CCF4C;" d="M267.018,184.538c-0.036,0-0.072,0.004-0.108,0.005c0.413-0.676,0.649-1.449,0.649-2.27
					c0-2.647-2.435-4.792-5.44-4.792c-0.393,0-0.771,0.049-1.141,0.119c0.21-0.022,0.42-0.042,0.636-0.042
					c3.004,0,5.44,2.145,5.44,4.792c0,0.822-0.235,1.594-0.649,2.27c0.036-0.001,0.071-0.005,0.108-0.005
					c3.004,0,5.44,2.145,5.44,4.792c0,2.284-1.815,4.191-4.243,4.672c2.677-0.3,4.747-2.31,4.747-4.749
					C272.458,186.684,270.022,184.538,267.018,184.538z"/>
			</g>
		</g>
		<g>
			<path style="fill:#FFEFBD;" d="M342.547,159.029c-0.506,1.209-0.796,2.529-0.805,3.919h13.552l6.279-4.077
				c-0.66-1.507-1.656-2.834-2.911-3.864c-0.255-0.21-0.521-0.407-0.795-0.592c-0.55-0.37-1.137-0.688-1.754-0.948
				c-0.943-0.397-1.958-0.656-3.019-0.758V152.1L342.547,159.029z"/>
			<polygon style="fill:#FFEFBD;" points="352.056,145.364 352.056,149.616 351.632,149.616 351.632,150.009 352.563,149.395 
				352.563,145.032 			"/>
		</g>
		<path style="fill:#FFEFBD;" d="M254.511,162.948h4.936c-0.009-1.359-0.292-2.648-0.776-3.834l-5.863,3.834H254.511z"/>
		<g>
			<path style="fill:#FFEFBD;" d="M187.289,162.948l10.428-6.876c-0.343-0.379-0.703-0.741-1.098-1.065
				c-0.255-0.21-0.521-0.407-0.796-0.592c-0.396-0.266-0.817-0.495-1.249-0.705l-14.126,9.238H187.289z"/>
			<path style="fill:#FFEFBD;" d="M195.471,162.948h4.936c-0.011-1.74-0.463-3.37-1.231-4.806l-7.315,4.806H195.471z"/>
		</g>
	</g>
	<g>
		<polygon style="fill:#DBD4A2;" points="239.52,474.9 147,474.9 132.84,472.92 225.36,472.92 		"/>
		<g>
			<g>
				<rect x="188.414" y="329.387" style="fill:#DE6126;" width="1.509" height="143.99"/>
				<rect x="188.414" y="329.387" style="fill:#853A17;" width="0.256" height="143.99"/>
				<rect x="188.414" y="427.83" style="fill:#853A17;" width="1.509" height="5.67"/>
				<rect x="188.414" y="363.15" style="fill:#853A17;" width="1.509" height="5.67"/>
				<polygon style="fill:#D83B29;" points="188.319,334.751 188.67,334.751 169.216,359.829 155.895,359.829 				"/>
				<polygon style="fill:#DBDEB1;" points="188.67,334.751 189.021,334.751 182.536,359.829 169.216,359.829 				"/>
				<polygon style="fill:#D83B29;" points="189.021,334.751 189.372,334.751 195.857,359.829 182.536,359.829 				"/>
				<polygon style="fill:#F2F5C4;" points="189.372,334.751 189.724,334.751 209.178,359.829 195.857,359.829 				"/>
				<polygon style="fill:#FA5C2F;" points="189.724,334.751 190.075,334.751 222.499,359.829 209.178,359.829 				"/>
				<path style="fill:#DBDEB1;" d="M155.859,359.929c0,3.177,2.991,5.752,6.681,5.752c3.69,0,6.681-2.575,6.681-5.752
					c0-0.032-0.005-0.064-0.006-0.096h-13.35C155.864,359.866,155.859,359.897,155.859,359.929z"/>
				<path style="fill:#D83B29;" d="M169.214,359.929c0,3.177,2.991,5.752,6.681,5.752c3.69,0,6.681-2.575,6.681-5.752
					c0-0.032-0.005-0.064-0.006-0.096h-13.35C169.219,359.866,169.214,359.897,169.214,359.929z"/>
				<path style="fill:#DBDEB1;" d="M182.569,359.929c0,3.177,2.991,5.752,6.681,5.752c3.69,0,6.681-2.575,6.681-5.752
					c0-0.032-0.005-0.064-0.006-0.096h-13.35C182.574,359.866,182.569,359.897,182.569,359.929z"/>
				<path style="fill:#D83B29;" d="M195.925,359.929c0,3.177,2.991,5.752,6.681,5.752s6.681-2.575,6.681-5.752
					c0-0.032-0.005-0.064-0.006-0.096h-13.35C195.93,359.866,195.925,359.897,195.925,359.929z"/>
				<path style="fill:#F2F5C4;" d="M209.28,359.929c0,3.177,2.991,5.752,6.681,5.752c3.69,0,6.681-2.575,6.681-5.752
					c0-0.032-0.005-0.064-0.006-0.096h-13.35C209.285,359.866,209.28,359.897,209.28,359.929z"/>
			</g>
			<rect x="162.214" y="426.26" style="fill:#DE6126;" width="53.584" height="2.682"/>
			<rect x="162.214" y="427.659" style="fill:#853A17;" width="53.584" height="2.682"/>
			<g>
				<rect x="175.232" y="447.103" style="fill:#A3481C;" width="2" height="27.244"/>
				<rect x="176.79" y="447.103" style="fill:#DE6126;" width="0.442" height="27.244"/>
				<path style="fill:#853A17;" d="M177.232,447.103h-1.252h-0.748v4.577v22.668h0.748c0,0,0-22.295,0-22.528
					c0-0.186,1.252-0.14,1.252-0.14V447.103z"/>
				<polygon style="fill:#A3481C;" points="152.212,474.348 150.212,474.348 150.212,447.059 146.727,415.627 148.715,415.406 
					152.212,447.003 				"/>
				<polygon style="fill:#853A17;" points="147.387,415.627 148.723,415.479 148.715,415.406 146.727,415.627 150.212,447.059 
					150.212,474.348 150.872,474.348 150.872,447.059 				"/>
				<polygon style="fill:#DE6126;" points="148.715,415.406 148.093,415.475 151.582,447.003 151.582,474.348 152.212,474.348 
					152.212,447.003 				"/>
				<path style="fill:#853A17;" d="M152.212,447.103h-1.252h-0.748v4.577v22.668h0.748c0,0,0-22.295,0-22.528
					c0-0.186,1.252-0.14,1.252-0.14V447.103z"/>
				<rect x="149.882" y="446.511" style="fill:#A3481C;" width="29.467" height="3.554"/>
				<rect x="149.882" y="446.511" style="fill:#DE6126;" width="29.467" height="0.849"/>
				<rect x="149.882" y="448.92" style="fill:#853A17;" width="29.467" height="1.145"/>
			</g>
			<g>
				<rect x="199.245" y="447.103" style="fill:#A3481C;" width="2" height="27.244"/>
				<rect x="199.245" y="447.103" style="fill:#853A17;" width="0.442" height="27.244"/>
				<path style="fill:#DE6126;" d="M201.245,451.68v22.668h-0.748c0,0,0-22.433,0-22.666"/>
				<polyline style="fill:#853A17;" points="199.245,451.68 199.245,447.103 200.497,447.103 201.245,447.103 201.245,451.68 				
					"/>
				<polygon style="fill:#A3481C;" points="224.265,474.348 226.265,474.348 226.265,447.059 229.75,415.627 227.761,415.406 
					224.265,447.003 				"/>
				<polygon style="fill:#DE6126;" points="229.09,415.627 227.753,415.479 227.761,415.406 229.75,415.627 226.265,447.059 
					226.265,474.348 225.605,474.348 225.48,447.293 				"/>
				<polygon style="fill:#853A17;" points="227.761,415.406 228.384,415.475 224.895,447.003 224.895,474.348 224.265,474.348 
					224.265,447.003 				"/>
				<path style="fill:#DE6126;" d="M226.265,451.68v22.668h-0.748c0,0,0-22.295,0-22.528"/>
				<polyline style="fill:#853A17;" points="224.265,451.68 224.265,447.103 225.517,447.103 226.265,447.103 226.265,451.005 				
					"/>
				
					<rect x="197.127" y="446.511" transform="matrix(-1 -1.224647e-16 1.224647e-16 -1 423.7219 896.576)" style="fill:#A3481C;" width="29.467" height="3.554"/>
				
					<rect x="197.127" y="446.511" transform="matrix(-1 -1.224647e-16 1.224647e-16 -1 423.7219 893.8712)" style="fill:#853A17;" width="29.467" height="0.849"/>
				
					<rect x="197.127" y="448.92" transform="matrix(-1 -1.224647e-16 1.224647e-16 -1 423.7219 898.9848)" style="fill:#DE6126;" width="29.467" height="1.145"/>
			</g>
		</g>
	</g>
</g>
</svg>
