<?xml version="1.0" encoding="utf-8"?>
<!-- Generator: Adobe Illustrator 27.5.0, SVG Export Plug-In . SVG Version: 6.00 Build 0)  -->
<svg version="1.1" id="_x3C_Layer_x3E_" xmlns="http://www.w3.org/2000/svg" xmlns:xlink="http://www.w3.org/1999/xlink" x="0px"
	 y="0px" viewBox="0 0 2760 1840" style="enable-background:new 0 0 2760 1840;" xml:space="preserve">
<rect style="fill:#FFFFFF;" width="2760" height="1840"/>
<g>
	<path style="fill:#ABB9FF;" d="M2394.767,1618.28l-1536.369-2.697c0,0,0,0-0.009,0l-81.347-0.143h-0.011l-9.069-0.011
		c0,0,0,0-0.01,0l-77.948-0.143l-31.322-0.051l-6.979-0.01l-82.764-0.144h-0.011l-14.345-0.03l-29.404-0.05l-9.724-0.021
		l-54.687-0.091c0,0-17.997-16.868-40.902-51.206c-8.865-13.274-18.467-29.176-28.036-47.713c-1.929-3.727-3.857-7.574-5.775-11.524
		c-13.049-26.835-25.782-58.657-36.24-95.529c-0.469-1.669-0.939-3.35-1.398-5.039v-0.01c-0.673-2.434-1.337-4.887-1.979-7.36
		c-3.837-14.66-5.265-29.318-4.53-43.876c5.754-114.465,145.47-222.291,308.028-266.777
		c269.382-73.725,179.139-231.789,317.763-437.579c89.364-132.655,228.406-176.867,405.871-139.466
		c360.063,75.893,99.16,485.425,506.471,550.902C2632.58,1180.692,2394.767,1618.28,2394.767,1618.28z"/>
	<g>
		<g style="opacity:0.5;">
			<path style="fill:#6980E2;" d="M921.89,1529.236c-3.388,38.693-25.292,50.635-34.913,49.606
				c-9.632-1.018-65.941-22.478-67.154-14.608c-1.234,7.869,32.658,33.595,56.39,34.796c0,0-7.233,7.95-17.814,16.553
				c0,0,0,0-0.009,0l-81.347-0.143h-0.011c-9.457-10.72-14.813-21.349-26.291-26.581c-18.569-8.459-34.414-8.438-26.752,0.194
				c6.244,7.034,29.751,13.905,43.964,26.376l-77.948-0.143c-4.521-5.272-7.407-10.862-7.898-16.623
				c-0.102-1.121-0.194-2.18-0.275-3.208v-0.03c-1.928-22.518-1.928-22.518-1.928-22.518s-22.354-26.021-20.119-52.682
				c0.438-5.345,1.866-10.699,4.651-15.891c2.785-5.173,6.907-10.16,12.764-14.771c0,0,30.006-18.131,54.482-16.655
				c0,0-18.968,31.731-24.303,50.585c-0.49,1.721-0.857,3.328-1.092,4.805c-0.684,4.215-0.225,7.279,1.938,8.389
				c2.755,1.425,6.224-1.955,9.887-7.849c0.571-0.927,1.152-1.914,1.733-2.963c10.725-19.22,22.345-56.61,22.345-56.61
				s2.918-0.285,7.753-0.642c5.398-0.387,13.173-0.875,21.926-1.161h0.011c2.867-0.092,5.856-0.162,8.887-0.203
				c9.213-0.122,18.926,0.062,27.741,0.835c9.723,0.845,18.333,2.423,23.945,5.11c0,0-1.235,0.998-3.285,2.718
				c-1.03,0.865-2.255,1.894-3.653,3.095c0,0,0,0-0.01,0c-2.755,2.332-6.142,5.232-9.764,8.439
				c-6.081,5.364-12.846,11.554-18.507,17.296c-6.592,6.678-11.683,12.735-12.469,16.155c-0.336,1.477,0.123,2.464,1.603,2.8
				c6.366,1.476,26.353-10.374,44.146-22.132c16.56-10.943,31.21-21.815,31.21-21.815S925.277,1490.552,921.89,1529.236z"/>
			<g>
				<path style="fill:#6980E2;" d="M681.831,1595.456c-0.051,2.037,0.266,3.208,0.266,3.208
					c-5.163,0.926-14.815,8.744-23.415,16.572l-6.979-0.01c21.119-21.185,28.2-42.318,28.2-42.318
					c38.126-49.262,210.756-42.624,210.756-42.624c-193.942,6.331-208.532,52.427-208.828,65.142
					C681.82,1595.437,681.82,1595.446,681.831,1595.456z"/>
			</g>
		</g>
		<g>
			<path style="fill:#6980E2;" d="M491.443,1508.811c0,0,69.65-38.917,37.146-91.733c0,0-26.002-32.432-53.861-40.771
				c0,0,14.857,78.762,0,80.614c-14.859,1.854-10.216-88.954-10.216-88.954s-73.364-35.21-102.153-32.431
				c0,0,45.505,76.908,30.646,75.055c-14.858-1.854-65.935-79.688-65.935-79.688s-75.222-13.899-87.294,30.578
				c-12.072,44.477,7.429,66.715,18.573,69.495c11.144,2.779,82.651,1.853,80.794,11.119c-1.858,9.266-50.148,24.092-77.079,15.752
				c0,0,29.717,73.201,68.721,69.495c39.003-3.706,51.076-27.799,75.222-29.651c24.146-1.854,41.79,4.634,29.718,11.119
				c-12.073,6.486-52.935,2.126-72.436,18.668c-19.502,16.543-35.289,26.735,0.929,34.148c36.217,7.413,101.224,2.78,114.226-25.019
				C491.443,1508.811,491.443,1508.811,491.443,1508.811z"/>
			<g>
				<path style="fill:#6980E2;" d="M274.137,1375.38c0,0,195.02,63.01,217.307,133.431c0,0-0.928,31.505,18.574,67.642v13.899
					c0,0-20.432-47.256-31.574-53.743C478.443,1536.608,522.089,1475.453,274.137,1375.38z"/>
				<path style="fill:#6980E2;" d="M525.18,1615.003l-9.724-0.021c-1.163-9.426-3.111-18.619-6.234-26.427c0-0.01,0-0.01,0-0.01
					c-0.03-0.082-0.061-0.153-0.102-0.235c-0.653-1.648-1.366-3.216-2.132-4.713c-0.011-0.02-0.021-0.04-0.021-0.062
					c-0.03-0.07-0.071-0.142-0.102-0.202c-2.266-4.409-3.786-7.687-4.766-10.049l-0.01-0.01c-0.021-0.051-0.04-0.102-0.061-0.143
					c-5.55-13.682,7.988,3.318,7.988,3.318S519.996,1591.567,525.18,1615.003z"/>
			</g>
		</g>
		<g>
			<path style="fill:#6980E2;" d="M602.251,1455.139c0,0-91.811-51.301-48.966-120.922c0,0,34.275-42.751,71.001-53.743
				c0,0-19.587,103.821,0,106.265c19.586,2.443,13.465-117.258,13.465-117.258s96.709-46.414,134.657-42.75
				c0,0-59.983,101.379-40.398,98.936c19.587-2.441,86.915-105.043,86.915-105.043s99.157-18.321,115.07,40.307
				c15.915,58.63-9.793,87.944-24.482,91.608s-108.95,2.443-106.502,14.657c2.448,12.215,66.104,31.757,101.606,20.765
				c0,0-39.174,96.493-90.588,91.607c-51.414-4.886-67.329-36.644-99.156-39.086c-31.828-2.443-55.087,6.107-39.173,14.657
				c15.913,8.55,69.776,2.802,95.484,24.607c25.706,21.807,46.518,35.242-1.225,45.014c-47.742,9.772-133.434,3.665-150.571-32.978
				C602.251,1455.139,602.251,1455.139,602.251,1455.139z"/>
			<g>
				<path style="fill:#6980E2;" d="M888.702,1279.252c0,0-257.072,83.058-286.451,175.887c0,0,1.224,41.529-24.483,89.165v18.321
					c0,0,26.932-62.294,41.621-70.843C619.389,1491.782,561.854,1411.167,888.702,1279.252z"/>
				<path style="fill:#6980E2;" d="M588.242,1540.037c-0.01,0.02-0.01,0.03-0.021,0.05c-0.01,0.021-0.01,0.021-0.01,0.031
					c-1.306,3.187-3.367,7.594-6.429,13.56c0,0.021-0.009,0.021-0.02,0.041c-0.021,0.041-0.042,0.091-0.062,0.133
					c-0.99,1.934-1.908,3.97-2.755,6.077c-0.041,0.103-0.081,0.192-0.122,0.295c-0.011,0-0.011,0.01-0.011,0.021
					c-6.315,15.789-8.998,35.904-9.875,54.839h-0.011l-14.345-0.03c4.193-41.961,23.18-70.751,23.18-70.751s0,0,0.011-0.01
					C578.162,1543.803,595.608,1521.987,588.242,1540.037z"/>
			</g>
		</g>
	</g>
	<g>
		<g>
			<path style="fill:#2C3A64;" d="M1277.771,728.877c0,0-66.422-6.469-105.19,64.883c-38.771,71.352-101.008,38.614-142.838,108.428
				c-41.831,69.815,89.783,113.589,15.305,140.057c-74.48,26.468-84.423,157.918,52.673,175.669
				c137.097,17.751,354.412-10.753,366.656-34.167c12.243-23.414,49.291-50.9,2.199-101.8c-47.092-50.9,31.947-22.49-8.082-136.413
				C1418.464,831.611,1277.771,728.877,1277.771,728.877z"/>
			<path style="fill:#ED7D2B;" d="M1433.942,979.672l-6.054,1.222c-26.472,5.337-52.516-11.952-57.876-38.419l-6.271-30.966
				c-5.368-26.514,11.935-52.58,38.453-57.927l6.053-1.22c26.472-5.337,52.516,11.952,57.875,38.419l6.271,30.965
				C1477.764,948.261,1460.46,974.326,1433.942,979.672z"/>
			<path style="fill:#F99746;" d="M1814.209,1611.777h-248.865c-18.549,0-35.653-9.951-44.821-26.041
				c-40.452-70.999-74.106-158.349-82.689-228.099c-4.605-37.27-2.038-69.509,10.449-91.542
				c38.847-68.456-22.772-148.827-22.772-148.827s87.746,27.233,118.446,92.945c30.402,65.073,54.866,174.167,67.492,237.813
				c6.196,31.235,28.736,56.737,59.037,66.727l140.083,46.186C1820.271,1585.167,1814.209,1611.777,1814.209,1611.777z"/>
			<path style="fill:#ED7D2B;" d="M1814.209,1611.777h-254.084c-15.182,0-29.205-8.078-36.812-21.188
				c-41.688-71.842-76.7-161.604-85.48-232.952l41.249-12.604c0,0,59.263,173.127,90.891,208.248
				C1599.746,1586.342,1814.209,1611.777,1814.209,1611.777z"/>
			<path style="fill:#FFB27D;" d="M1466.575,1229.782c-21.321,18.622-48.835,35.1-84.302,47.589
				c-132.942,46.855-198.29-62.363-226.884-139.168c17.412-12.728,34.663-17.045,44.643-19.39
				c9.735-2.274,20.024-4.215,28.569-5.608c14.001-13.443,31.413-63.959,28.036-138.969l6.616,0.994l110.908,17.252
				c0,0-1.063,34.679,0.172,67.202c0.99,25.448,4.793,45.669,4.793,45.669c8.601,0.871,17.868,10.782,17.868,10.782
				s0.01,0.035,0.065,0.095C1398.772,1118.43,1435.781,1166.127,1466.575,1229.782z"/>
			<path style="fill:#ED985F;" d="M1374.171,992.502c0,0-1.087,34.651,0.173,67.2c-61.64,0.782-96.481-53.931-111.09-84.448
				L1374.171,992.502z"/>
			<path style="fill:#F99746;" d="M1519.439,1345.033c-0.31,2.38-29.944,98.535-30.254,100.951
				c-10.285,80.499-28.907,166.391-28.907,166.391l-40.721-0.071l-268.738-0.526c0,0,32.42-97.609-53.1-247.256
				c-2.804-4.903-5.734-9.862-8.793-14.874c-12.178-19.962,64.669-233.365,64.669-233.365s34.821-8.764,82.023-12.561
				c4.46,4.069,36.326,81.042,95.781,81.042c82.982,0,47.727-79.41,47.727-79.41c31.547,6.32,42.924,8.627,83.427,27.988
				C1462.554,1133.342,1521.078,1331.901,1519.439,1345.033z"/>
			<path style="fill:#FFB27D;" d="M1394.436,1024.203c0,0-145.685,6.097-148.093-84.486c-2.408-90.581-22.833-150.8,70.08-158.521
				c92.914-7.723,111.912,26.363,120.087,56.402C1444.684,867.638,1432.27,1020.283,1394.436,1024.203z"/>
			<path style="fill:#FFFFFF;" d="M1362.75,975.65c0,0,1.598,10.766,25.564,11.007c0,0,20.122,0.205,20.236-11.48
				C1408.551,975.177,1389.641,965.373,1362.75,975.65z"/>
			<g>
				<path style="fill:#122544;" d="M1372.885,1011.722c-84.286-20.979-109.385-97.818-109.631-98.597l8.684-2.724l-4.341,1.361
					l4.339-1.365c0.233,0.731,23.945,72.798,103.157,92.514c0.529,0.132,1.058,0.261,1.594,0.389l-2.109,8.834
					C1374.013,1011.999,1373.445,1011.861,1372.885,1011.722z"/>
			</g>
			<path style="fill:#ED7D2B;" d="M1382.627,1017.258l-7.948-1.979c-4.048-1.007-6.532-5.136-5.522-9.175l0,0
				c1.009-4.038,5.146-6.519,9.194-5.511l7.947,1.979c4.049,1.008,6.534,5.136,5.523,9.174l0,0
				C1390.812,1015.785,1386.675,1018.266,1382.627,1017.258z"/>
			<path style="fill:#2C3A64;" d="M1311.891,724.842c0,0,93.803-14.612,132.611,63.31c29.539,59.313,4.908,96.348-6.674,107.699
				c0,0-15.322-85.194-43.992-92.459c0,0-18.481-5.629-31.086,8.992c-12.604,14.62-30.834,79.814-51.768,89.804
				c0,0-65.004,16.014-68.189-6.618c-3.186-22.631,10.996-84.935,14.971-104.438C1268.484,738.54,1311.891,724.842,1311.891,724.842
				z"/>
			<g>
				<path style="fill:#ED7D2B;" d="M1282.277,979.672l-6.053,1.222c-26.472,5.337-52.517-11.952-57.876-38.419l-6.271-30.966
					c-5.369-26.514,11.936-52.58,38.452-57.927l6.054-1.22c26.471-5.337,52.515,11.952,57.875,38.419l6.271,30.965
					C1326.1,948.261,1308.795,974.326,1282.277,979.672z"/>
				<g>
					<path style="fill:#ED7D2B;" d="M1235.918,867.798c-3.984-6.459-9.839-58.434,6.09-99.815
						c7.7-20.003,20.146-31.407,35.763-39.105c5.647-2.784,11.979-4.27,18.423-4.27l15.697,0.234
						c-51.687,19.627-63.67,124.633-59.645,135.833c-0.124-0.347-0.286-0.597-0.4-0.782L1235.918,867.798z"/>
				</g>
				<path style="fill:#F99746;" d="M1268.269,949.259l-3.017,0.607c-13.189,2.659-26.166-5.955-28.836-19.143l-3.124-15.428
					c-2.675-13.21,5.946-26.197,19.159-28.861l3.015-0.607c13.19-2.659,26.166,5.955,28.836,19.142l3.125,15.429
					C1290.102,933.606,1281.48,946.595,1268.269,949.259z"/>
			</g>
			<path style="fill:#ED7D2B;" d="M1150.819,1611.777c0,0-2.727-70.374-53.1-247.256l66.144-28.252
				c0,0,22.106,147.93,92.591,194.408c70.338,46.371,153.109,36.689,163.104,81.626L1150.819,1611.777z"/>
			<path style="fill:#F99746;" d="M1153.596,1116.282c0,0-57.994,5.04-96.828,73.491c-38.834,68.452-169.791,389.069-112.559,422
				h310.37c0,0,6.067-26.611-3.642-50.829l-170.182-47.365c0,0,93.728-160.905,94.941-234.769
				C1176.91,1204.947,1153.596,1116.282,1153.596,1116.282z"/>
			<path style="fill:#FFB27D;" d="M1256.451,1580.318c0,0,60.475-5.903,70.487-3.179c10.011,2.724,38.681,14.53,45.053,18.616
				c6.372,4.087,18.659,16.018,18.659,16.018s-7.737,1.461-12.288,0.441s-18.203-1.928-21.844-2.23s-16.687,2.39-16.687,2.39
				h-93.748L1256.451,1580.318z"/>
		</g>
		<g>
			<path style="fill:#233862;" d="M1864.848,1612.366h-358.844l0,0c0-15.763,12.778-28.541,28.542-28.541h330.302V1612.366z"/>
			<polygon style="fill:#233862;" points="2418.605,1222.414 2285.543,1612.369 1727.144,1612.369 1863.822,1222.414 			"/>
			<polygon style="fill:#2B478B;" points="2438.33,1222.414 2306.488,1608.761 2305.269,1612.369 1755.027,1612.369 
				1891.707,1222.414 			"/>
			<path style="fill:#EBF3FA;" d="M2148.905,1424.232c-2.87,12.406-15.276,22.463-27.71,22.463s-20.186-10.057-17.315-22.463
				c2.871-12.405,15.277-22.463,27.711-22.463S2151.775,1411.827,2148.905,1424.232z"/>
			<polygon style="opacity:0.5;fill:#233862;" points="2438.33,1222.414 2306.488,1608.761 2053.678,1608.761 2361.933,1222.414 			
				"/>
		</g>
	</g>
	<path style="fill:#2E3552;" d="M2550.879,1618.276H282.663c-1.519,0-2.761-1.242-2.761-2.761v-1.407
		c0-1.519,1.243-2.761,2.761-2.761h2268.216c1.52,0,2.762,1.242,2.762,2.761v1.407
		C2553.641,1617.034,2552.398,1618.276,2550.879,1618.276z"/>
	<g>
		<path style="fill:#EBF3FA;" d="M2574.597,809.328c0,23.647-5.142,46.849-14.753,69.152c-8.529,19.81-49.949,38.929-65.049,57.009
			c-89.712,107.45-209.123,56.918-433.893,67.078c-125.759,5.686-239.965,5.983-295.805-69.227
			c-12.988-17.49-24.303-35.874-34.016-54.86c-32.639-63.727-47.341-134.183-47.341-199.905c0-23.861,5.499-46.644,15.528-68.073
			c61.155-130.793,290.868-211.307,468.547-180.176c131.584,23.047,256.107,97.829,331.902,191.648
			c8.826,10.913,16.979,22.081,24.405,33.452c2.806,4.296,5.51,8.622,8.111,12.97
			C2559.16,713.545,2574.597,761.543,2574.597,809.328z"/>
		<g>
			<path style="fill:#ABB9FF;" d="M2574.597,809.328c0,23.647-5.142,46.849-14.753,69.152c-8.529,19.81-20.589,38.908-35.688,56.988
				l-361.798,0.254l-75.826-0.458l-150.009-0.896l-171.426-1.028c-12.988-17.49-24.303-35.874-34.016-54.86
				c-32.639-63.727-47.341-134.183-47.341-199.905c0-23.861,5.499-46.644,15.528-68.073h14.937v0.01h4.918v-4.622h0.837v4.622h5.928
				v46.36h37.872v17.063h21.048v-9.916h19.518v-39.326h9.734v-18.353h1.469v18.353h23.343v-34.388h2.286v34.388h15.437v-0.478
				h-0.021v-4.367h0.021v-4.134h-0.021v-6.86h0.021v-4.399h-0.021v-6.871h0.021v-4.387h-0.021v-6.872h0.021v-4.744h-0.021v-6.871
				h0.021v-6.037h-0.021V561.8h0.021v-4.56h4.602v-5.141h0.734v5.141h34.077v-5.141h0.734v5.141h6.213v35.957l4.377,0.021v-0.021
				h-0.03v-6.872h0.03v-4.744h-0.03v-6.871h0.03v-4.733h-0.03v-6.872h0.03v-0.021h41.321v0.021h7.102
				c0.377,0.193,0.733,0.367,1.112,0.55v39.234h30.199v51.53h24.404v-95.284h5.306v-6.668h0.949v6.668h19.272v-6.668h0.959v6.668
				h27.282v-6.668h0.958v6.668h17.172v-6.668h0.949v6.668h7.061v88.942h26.965v-14.384l31.813,0.122v-23.313h6.397v-4.612h0.847
				v4.612h24.558v0.01h4.907v-4.622h0.857v4.622h5.917v46.36h37.882v17.063h21.049v-9.916h19.518v-39.326h9.733v-18.353h1.47v18.353
				h23.333v-34.388h2.296v34.388h15.437v-0.478h-0.03v-4.367h0.03v-4.134h-0.03v-6.86h0.03v-4.399h-0.03v-6.871h0.03v-4.387h-0.03
				v-6.872h0.03v-4.744h-0.03v-6.871h0.03v-6.037h-0.03V561.8h0.03v-4.56h4.601v-5.141h0.735v5.141h34.067v-5.141h0.733v5.141h6.224
				v35.957l4.316,0.021h0.061v-0.021h-0.03v-6.872h0.03v-4.744h-0.03v-6.871h0.03v-4.733h-0.03v-6.872h0.03v-0.021h41.321v0.021
				h7.102c0.367,0.193,0.733,0.367,1.102,0.55v39.234h50.696v51.53h24.404v-32.443c8.826,10.913,16.979,22.081,24.405,33.452
				c2.806,4.296,5.51,8.622,8.111,12.97C2559.16,713.545,2574.597,761.543,2574.597,809.328z"/>
			<g style="opacity:0.5;">
				<rect x="2030.42" y="559.13" style="fill:#E2EEFD;" width="60.965" height="15.078"/>
				<rect x="2030.42" y="582.337" style="fill:#E2EEFD;" width="60.965" height="15.075"/>
				<rect x="2030.42" y="606.026" style="fill:#E2EEFD;" width="60.965" height="15.076"/>
				<rect x="2030.42" y="630.094" style="fill:#E2EEFD;" width="60.965" height="15.076"/>
				<rect x="2030.42" y="653.316" style="fill:#E2EEFD;" width="60.965" height="15.076"/>
				<g>
					<rect x="2324.436" y="557.243" style="fill:#E2EEFD;" width="28.445" height="9.156"/>
					<rect x="2324.436" y="571.336" style="fill:#E2EEFD;" width="28.445" height="9.156"/>
					<rect x="2324.436" y="585.724" style="fill:#E2EEFD;" width="28.445" height="9.155"/>
					<rect x="2324.436" y="600.34" style="fill:#E2EEFD;" width="28.445" height="9.156"/>
					<rect x="2324.436" y="614.443" style="fill:#E2EEFD;" width="28.445" height="9.155"/>
				</g>
				<g>
					<rect x="2324.436" y="629.965" style="fill:#E2EEFD;" width="28.445" height="9.156"/>
					<rect x="2324.436" y="644.058" style="fill:#E2EEFD;" width="28.445" height="9.156"/>
					<rect x="2324.436" y="658.445" style="fill:#E2EEFD;" width="28.445" height="9.155"/>
					<rect x="2324.436" y="673.06" style="fill:#E2EEFD;" width="28.445" height="9.157"/>
					<rect x="2324.436" y="687.164" style="fill:#E2EEFD;" width="28.445" height="9.155"/>
				</g>
				<g>
					<rect x="2375.034" y="563.248" style="fill:#E2EEFD;" width="30.483" height="9.155"/>
					<rect x="2375.034" y="577.341" style="fill:#E2EEFD;" width="30.483" height="9.155"/>
					<rect x="2375.034" y="591.727" style="fill:#E2EEFD;" width="30.483" height="9.156"/>
					<rect x="2375.034" y="606.344" style="fill:#E2EEFD;" width="30.483" height="9.156"/>
					<rect x="2375.034" y="620.446" style="fill:#E2EEFD;" width="30.483" height="9.157"/>
				</g>
				<g>
					<rect x="2375.034" y="635.15" style="fill:#E2EEFD;" width="30.483" height="9.156"/>
					<rect x="2375.034" y="649.243" style="fill:#E2EEFD;" width="30.483" height="9.157"/>
					<rect x="2375.034" y="663.631" style="fill:#E2EEFD;" width="30.483" height="9.156"/>
					<rect x="2375.034" y="678.247" style="fill:#E2EEFD;" width="30.483" height="9.156"/>
					<rect x="2375.034" y="692.351" style="fill:#E2EEFD;" width="30.483" height="9.155"/>
				</g>
				<g>
					<rect x="2375.034" y="708.524" style="fill:#E2EEFD;" width="30.483" height="9.156"/>
					<rect x="2375.034" y="722.617" style="fill:#E2EEFD;" width="30.483" height="9.156"/>
					<rect x="2375.034" y="737.005" style="fill:#E2EEFD;" width="30.483" height="9.156"/>
					<rect x="2375.034" y="751.621" style="fill:#E2EEFD;" width="30.483" height="9.156"/>
					<rect x="2375.034" y="765.724" style="fill:#E2EEFD;" width="30.483" height="9.157"/>
				</g>
				<path style="fill:#E2EEFD;" d="M2532.235,668.396h-8.111v-12.97C2526.93,659.723,2529.634,664.049,2532.235,668.396z"/>
				<g>
					<rect x="1856.311" y="557.243" style="fill:#E2EEFD;" width="30.483" height="9.156"/>
					<rect x="1856.311" y="571.336" style="fill:#E2EEFD;" width="30.483" height="9.156"/>
					<rect x="1856.311" y="585.724" style="fill:#E2EEFD;" width="30.483" height="9.155"/>
					<rect x="1856.311" y="600.34" style="fill:#E2EEFD;" width="30.483" height="9.156"/>
					<rect x="1856.311" y="614.443" style="fill:#E2EEFD;" width="30.483" height="9.155"/>
				</g>
				<g>
					<rect x="1856.311" y="629.965" style="fill:#E2EEFD;" width="30.483" height="9.156"/>
					<rect x="1856.311" y="644.058" style="fill:#E2EEFD;" width="30.483" height="9.156"/>
					<rect x="1856.311" y="658.445" style="fill:#E2EEFD;" width="30.483" height="9.155"/>
					<rect x="1856.311" y="673.06" style="fill:#E2EEFD;" width="30.483" height="9.157"/>
					<rect x="1856.311" y="687.164" style="fill:#E2EEFD;" width="30.483" height="9.155"/>
				</g>
				<g>
					<rect x="1907.929" y="563.248" style="fill:#E2EEFD;" width="34.644" height="9.155"/>
					<rect x="1907.929" y="577.341" style="fill:#E2EEFD;" width="34.644" height="9.155"/>
					<rect x="1907.929" y="591.727" style="fill:#E2EEFD;" width="34.644" height="9.156"/>
					<rect x="1907.929" y="606.344" style="fill:#E2EEFD;" width="34.644" height="9.156"/>
					<rect x="1907.929" y="620.446" style="fill:#E2EEFD;" width="34.644" height="9.157"/>
				</g>
				<g>
					<rect x="1907.929" y="635.15" style="fill:#E2EEFD;" width="34.644" height="9.156"/>
					<rect x="1907.929" y="649.243" style="fill:#E2EEFD;" width="34.644" height="9.157"/>
					<rect x="1907.929" y="663.631" style="fill:#E2EEFD;" width="34.644" height="9.156"/>
					<rect x="1907.929" y="678.247" style="fill:#E2EEFD;" width="34.644" height="9.156"/>
					<rect x="1907.929" y="692.351" style="fill:#E2EEFD;" width="34.644" height="9.155"/>
				</g>
				<g>
					<rect x="1907.929" y="708.524" style="fill:#E2EEFD;" width="34.644" height="9.156"/>
					<rect x="1907.929" y="722.617" style="fill:#E2EEFD;" width="34.644" height="9.156"/>
					<rect x="1907.929" y="737.005" style="fill:#E2EEFD;" width="34.644" height="9.156"/>
					<rect x="1907.929" y="751.621" style="fill:#E2EEFD;" width="34.644" height="9.156"/>
					<rect x="1907.929" y="765.724" style="fill:#E2EEFD;" width="34.644" height="9.157"/>
				</g>
			</g>
		</g>
		<path style="fill:#6980E2;" d="M2559.844,878.481c-59.227,137.502-292.044,154.369-541.578,148.721
			c-155.122-3.513-235.67-48.102-287.184-148.721H2559.844z"/>
		<g>
			<path style="fill:#1D2949;" d="M1823.345,896.617h472.466l159.563-14.341c0,0-28.552-70.983-36.337-72.049
				c-7.783-1.067-580.728,0-580.728,0L1823.345,896.617z"/>
			<path style="fill:#F99746;" d="M2523.542,889.629c-11.757,4.8-82.829,5.866-82.829,5.866s1.603-86.912-71.607-76.78
				c-73.211,10.132-60.414,82.266-60.414,82.266l-351.973,6.267c0,0,5.718-91.623-71.992-81.985
				c-64.564,8.006-47.979,81.64-47.979,81.64c-64.364,3.321-71.017-18.484-71.017-18.484v-9.005h4.037v-23.7h-4.037V838.06
				l13.539-30.927c0,0,0,0,0.003-0.004c22.809-39.1,201.647-49.764,201.647-49.764c27.162-15.581,49.682-27.158,67.297-35.569
				c28.103-13.416,60.139-26.498,91.142-29.556c83.945-8.278,152.974,1.103,169.896,3.841
				c19.771,3.198,119.167,46.386,126.649,50.118c7.481,3.732,68.5,8.796,76.338,9.744c7.839,0.945,7.603,8.767,7.603,8.767
				l1.076,6.938l4.098,26.427l1,6.448c5.701,2.844,5.708,10.992,5.708,10.992S2535.295,884.831,2523.542,889.629z"/>
			<g>
				<path style="fill:#2C3A64;" d="M1840.935,882.276c0-29.867,24.266-54.079,54.199-54.079c29.933,0,54.198,24.212,54.198,54.079
					c0,29.866-24.266,54.079-54.198,54.079C1865.2,936.356,1840.935,912.143,1840.935,882.276z"/>
				<g>
					<path style="fill:#AFCDFB;" d="M1895.134,924.568c-23.372,0-42.387-18.972-42.387-42.292c0-23.32,19.015-42.293,42.387-42.293
						s42.386,18.973,42.386,42.293C1937.52,905.597,1918.506,924.568,1895.134,924.568z M1895.134,843.894
						c-21.212,0-38.468,17.219-38.468,38.383c0,21.164,17.256,38.381,38.468,38.381c21.211,0,38.468-17.217,38.468-38.381
						C1933.602,861.112,1916.345,843.894,1895.134,843.894z"/>
				</g>
				<g>
					<g>
						<polygon style="fill:#AFCDFB;" points="1902.369,922.655 1887.184,922.655 1892.058,881.126 1886.487,841.682 
							1903.843,842.751 1898.057,881.126 						"/>
					</g>
					<g>
						<polygon style="fill:#AFCDFB;" points="1863.623,908.634 1856.031,895.511 1894.517,878.962 1925.97,854.43 1933.718,869.962 
							1897.516,884.146 						"/>
					</g>
					<g>
						<polygon style="fill:#AFCDFB;" points="1857.535,866.626 1865.879,853.965 1897.979,880.846 1934.07,897.872 
							1923.639,911.754 1894.682,885.848 						"/>
					</g>
					<path style="fill:#AFCDFB;" d="M1880.908,882.201c0-7.793,6.332-14.111,14.143-14.111c7.81,0,14.142,6.318,14.142,14.111
						c0,7.793-6.332,14.109-14.142,14.109C1887.24,896.31,1880.908,889.994,1880.908,882.201z"/>
				</g>
			</g>
			<g>
				<ellipse style="fill:#2C3A64;" cx="2375.72" cy="882.276" rx="54.199" ry="54.079"/>
				<g>
					<path style="fill:#AFCDFB;" d="M2375.72,924.568c-23.372,0-42.387-18.972-42.387-42.292c0-23.32,19.015-42.293,42.387-42.293
						s42.386,18.973,42.386,42.293C2418.105,905.597,2399.092,924.568,2375.72,924.568z M2375.72,843.894
						c-21.212,0-38.468,17.219-38.468,38.383c0,21.164,17.256,38.381,38.468,38.381c21.211,0,38.468-17.217,38.468-38.381
						C2414.188,861.112,2396.931,843.894,2375.72,843.894z"/>
				</g>
				<g>
					<g>
						<polygon style="fill:#AFCDFB;" points="2382.955,922.655 2367.77,922.655 2372.645,881.126 2367.073,841.682 
							2384.428,842.751 2378.643,881.126 						"/>
					</g>
					<g>
						<polygon style="fill:#AFCDFB;" points="2344.209,908.634 2336.617,895.511 2375.103,878.962 2406.556,854.43 
							2414.304,869.962 2378.102,884.146 						"/>
					</g>
					<g>
						<polygon style="fill:#AFCDFB;" points="2338.121,866.626 2346.465,853.965 2378.563,880.846 2414.656,897.872 
							2404.227,911.754 2375.268,885.848 						"/>
					</g>
					<path style="fill:#AFCDFB;" d="M2361.494,882.201c0-7.793,6.332-14.111,14.142-14.111c7.812,0,14.143,6.318,14.143,14.111
						c0,7.793-6.331,14.109-14.143,14.109C2367.826,896.31,2361.494,889.994,2361.494,882.201z"/>
				</g>
			</g>
			<path style="fill:#F9DDBF;" d="M1840.509,806.954h-35.456c-11.732,0-22.547,6.331-28.272,16.549l-1.216,2.172
				c-1.228,2.192,0.361,4.892,2.877,4.892h42.671c2.945,0,5.756-1.227,7.753-3.388l13.915-15.049
				C1844.608,810.153,1843.204,806.954,1840.509,806.954z"/>
			<path style="fill:#1D2949;" d="M1797.451,882.276h-12.102c-4.004,0-7.695,2.16-9.648,5.647l-0.416,0.741
				c-0.418,0.749,0.123,1.67,0.982,1.67h14.563c1.007,0,1.965-0.419,2.647-1.157l4.749-5.135
				C1798.85,883.368,1798.371,882.276,1797.451,882.276z"/>
			<path style="fill:#AFCDFB;" d="M2383.498,752.243l-180.923,4.286c-3.548,0.086-6.466-2.762-6.466-6.298v-41.593
				c0-3.273,2.683-5.911,5.964-5.864c77.151,1.069,103.591,3.216,119.448,8.673c13.984,4.814,46.689,24.61,63.595,34.656
				C2387.966,747.799,2386.818,752.165,2383.498,752.243z"/>
			<path style="fill:#AFCDFB;" d="M2180.366,702.504c2.935,0.031,5.807,0.067,8.617,0.102v54.246l-174.541,4.135
				c-2.274,0.054-3.214-2.886-1.329-4.155C2033.506,743.117,2101.814,701.615,2180.366,702.504z"/>
			<path style="fill:#AFCDFB;" d="M2382.882,752.257l-0.097,0.003v-7.539c0.617,0.37,1.219,0.726,1.8,1.07
				C2387.592,747.575,2386.381,752.176,2382.882,752.257z"/>
			<polygon style="fill:#F99746;" points="2196.109,759.041 2174.732,757.352 2176.158,699.337 2196.109,699.337 			"/>
			<polygon style="fill:#F99746;" points="2331.496,759.041 2321.521,759.041 2321.521,706.944 2331.496,712.917 			"/>
			<path style="fill:#2C3A64;" d="M2036.223,742.756l5.321,17.589l-29.114,0.689c-1.699,0.041-2.432-2.131-1.053-3.121
				C2017.95,753.194,2030.132,744.79,2036.223,742.756z"/>
			<g>
				<path style="fill:#1D2949;" d="M2011.165,762.484c-1.19,0-2.231-0.75-2.604-1.884c-0.38-1.153,0.038-2.396,1.036-3.09
					l0.605-0.417c0.629-0.437,1.336-0.917,2.111-1.44c0.641-0.43,1.323-0.884,2.054-1.365l1.103-0.723
					c0.835-0.547,1.719-1.115,2.658-1.713c0.669-0.424,1.361-0.862,2.078-1.314l0.117-0.072c0.102-0.063,0.206-0.128,0.309-0.19
					c0.604-0.376,1.242-0.773,1.897-1.174l0.145-0.089c0.217-0.134,0.435-0.269,0.657-0.399c0.323-0.2,0.665-0.408,1.012-0.616
					c0.479-0.29,0.965-0.582,1.463-0.879c1.397-0.839,2.902-1.725,4.469-2.627c0.482-0.28,0.975-0.563,1.476-0.85
					c0.986-0.566,2.003-1.14,3.045-1.72l0,0l0.731-0.411c2.104-1.166,4.234-2.322,6.334-3.436l0.69-0.363
					c0.319-0.168,0.641-0.337,0.962-0.507c4.004-2.093,8.115-4.145,12.23-6.104l1.277-0.604c1.283-0.605,2.586-1.209,3.91-1.813
					c0.437-0.201,0.884-0.402,1.335-0.603c0.879-0.4,1.78-0.802,2.689-1.202l1.365-0.599c1.358-0.598,2.808-1.22,4.425-1.898
					c0.839-0.35,1.682-0.699,2.527-1.05c5.705-2.347,11.521-4.552,17.285-6.555l1.262-0.438c0.475-0.164,0.952-0.324,1.43-0.485
					l1.797-0.602c0.486-0.161,0.973-0.319,1.459-0.478l0.057-0.019c0.506-0.168,1.018-0.334,1.529-0.495
					c0.928-0.295,1.857-0.592,2.796-0.881c0.637-0.199,1.282-0.396,1.931-0.592c0.99-0.298,1.979-0.593,2.977-0.885l1.655-0.477
					c1.044-0.297,2.089-0.59,3.142-0.875c2.083-0.572,4.207-1.128,6.308-1.651l0.127-0.031c0.186-0.048,0.37-0.095,0.559-0.14
					c0.894-0.221,1.808-0.443,2.726-0.657c0.542-0.132,1.094-0.261,1.648-0.387l0.416-0.095c0.411-0.095,0.823-0.19,1.235-0.28
					c0.548-0.124,1.101-0.245,1.654-0.367c0.556-0.121,1.11-0.239,1.666-0.357c0.561-0.117,1.119-0.232,1.678-0.347
					c0.554-0.117,1.115-0.228,1.683-0.34l0.09-0.018c0.531-0.104,1.063-0.21,1.596-0.312c0.528-0.102,1.06-0.202,1.594-0.303
					c0.601-0.111,1.198-0.218,1.801-0.326c0.382-0.069,0.77-0.136,1.158-0.203l0.545-0.095c1.138-0.195,2.274-0.385,3.414-0.563
					c0.566-0.092,1.142-0.18,1.719-0.268l0.087-0.014c1.009-0.15,2.019-0.297,3.029-0.437c1.884-0.261,3.778-0.501,5.632-0.715
					l0.121-0.015c0.521-0.06,1.039-0.118,1.561-0.173c0.361-0.041,0.746-0.081,1.125-0.118c0.369-0.044,0.774-0.085,1.18-0.121
					c0.425-0.045,0.87-0.089,1.316-0.129c0.584-0.056,1.176-0.109,1.773-0.16c0.563-0.05,1.137-0.097,1.708-0.14
					c0.455-0.036,0.889-0.072,1.326-0.104l2.534-0.172c0.499-0.032,0.998-0.061,1.5-0.089l0.221-0.012
					c0.547-0.031,1.109-0.06,1.667-0.085c0.441-0.021,0.891-0.043,1.34-0.06l0.042-0.002c0.401-0.017,0.801-0.034,1.203-0.048
					l0.992-0.036c0.394-0.013,0.788-0.025,1.184-0.036c1.557-0.048,3.009,0.528,4.117,1.604c1.107,1.076,1.719,2.518,1.719,4.059
					v44.955c0,3.736-3.047,6.849-6.79,6.938l-159.56,3.779C2011.211,762.484,2011.188,762.484,2011.165,762.484z M2037.516,743.665
					l-0.988,0.55c-1.149,0.64-2.27,1.27-3.357,1.895c-0.5,0.285-0.985,0.564-1.467,0.843c-1.555,0.896-3.044,1.773-4.432,2.606
					c-0.497,0.296-0.979,0.587-1.455,0.873c-0.338,0.205-0.672,0.408-1.004,0.612c-0.225,0.135-0.434,0.264-0.641,0.391l-0.15,0.093
					c-0.652,0.398-1.283,0.791-1.896,1.172l-0.405,0.251c-0.705,0.444-1.396,0.881-2.061,1.304
					c-0.927,0.589-1.802,1.151-2.624,1.688l-1.097,0.719c-0.722,0.477-1.398,0.926-2.031,1.352c-0.76,0.514-1.457,0.986-2.084,1.421
					l-0.289,0.199l29.975-0.709l129.216-3.062c2.21-0.052,4.007-1.889,4.007-4.094v-44.955c0-0.768-0.304-1.484-0.855-2.019
					c-0.551-0.536-1.277-0.819-2.052-0.801c-0.39,0.011-0.778,0.023-1.167,0.036l-0.992,0.035c-0.391,0.014-0.78,0.03-1.174,0.048
					l-0.047,0.001c-0.445,0.019-0.887,0.04-1.324,0.061c-0.552,0.024-1.102,0.053-1.646,0.085l-0.222,0.011
					c-0.485,0.027-0.977,0.056-1.469,0.088l-2.514,0.17c-0.428,0.031-0.854,0.066-1.284,0.101c-0.592,0.045-1.152,0.09-1.709,0.14
					c-0.592,0.05-1.174,0.102-1.755,0.158c-0.441,0.04-0.872,0.081-1.303,0.127c-0.399,0.036-0.777,0.074-1.153,0.119
					c-0.393,0.038-0.758,0.075-1.12,0.117c-0.527,0.055-1.035,0.113-1.544,0.171l-0.121,0.014c-1.83,0.212-3.704,0.45-5.567,0.707
					c-1,0.139-1.999,0.283-2.991,0.432l-0.082,0.014c-0.57,0.086-1.14,0.174-1.705,0.266c-1.133,0.177-2.256,0.365-3.375,0.556
					l-0.543,0.094c-0.381,0.066-0.76,0.132-1.141,0.202c-0.601,0.106-1.193,0.212-1.784,0.322c-0.525,0.099-1.05,0.197-1.577,0.3
					c-0.53,0.102-1.057,0.205-1.583,0.309l-0.091,0.018c-0.553,0.107-1.103,0.217-1.652,0.333c-0.562,0.115-1.114,0.229-1.668,0.345
					c-0.546,0.116-1.096,0.233-1.646,0.354c-0.55,0.12-1.095,0.24-1.645,0.363c-0.41,0.091-0.814,0.185-1.218,0.276l-0.42,0.097
					c-0.545,0.123-1.084,0.25-1.623,0.379c-0.915,0.215-1.817,0.434-2.712,0.656c-0.187,0.045-0.357,0.088-0.53,0.131l-0.134,0.034
					c-2.084,0.52-4.186,1.069-6.251,1.636c-1.044,0.283-2.079,0.574-3.109,0.867l-1.647,0.473c-0.979,0.288-1.964,0.582-2.944,0.876
					c-0.638,0.193-1.274,0.388-1.909,0.585c-0.933,0.29-1.855,0.582-2.777,0.876c-0.505,0.159-1.004,0.321-1.504,0.486l-0.063,0.019
					c-0.48,0.156-0.961,0.314-1.44,0.473l-1.789,0.599c-0.471,0.158-0.941,0.316-1.407,0.478l-1.256,0.435
					c-5.716,1.987-11.48,4.173-17.136,6.499c-0.842,0.348-1.68,0.695-2.511,1.042c-1.601,0.672-3.036,1.288-4.384,1.882l-1.36,0.596
					c-0.899,0.396-1.788,0.792-2.667,1.191c-0.448,0.201-0.884,0.397-1.316,0.597c-1.319,0.602-2.61,1.2-3.885,1.801l-1.273,0.603
					c-4.076,1.941-8.156,3.977-12.12,6.049c-0.317,0.168-0.643,0.339-0.965,0.508l-0.683,0.359
					C2041.315,741.587,2039.406,742.62,2037.516,743.665z"/>
			</g>
			<g>
				<path style="fill:#1D2949;" d="M2334.479,754.886c-1.063,0-2.078-0.417-2.864-1.181c-0.878-0.853-1.38-2.068-1.38-3.334v-30.354
					c0-1.726,0.256-3.932,1.656-4.802c1.27-0.79,3.403-0.215,4.741,0.44c1.489,0.729,2.528,1.252,3.087,1.554
					c0.061,0.031,0.142,0.076,0.225,0.121l0.606,0.328c7.581,4.133,18.375,10.637,32.083,19.333c0.584,0.367,1.165,0.736,1.74,1.104
					c1.383,0.879,2.728,1.739,4.021,2.569l4.807,3.096c0.837,0.541,1.638,1.062,2.402,1.559c0.104,0.065,0.224,0.143,0.341,0.22
					l0.105,0.068c1.601,1.041,2.311,3.023,1.769,4.936c-0.516,1.814-2.003,3.017-3.793,3.062l-0.522,0.014l-48.919,1.268
					C2334.549,754.885,2334.515,754.886,2334.479,754.886z M2334.745,717.729c-0.41,0-0.741,0.154-0.939,0.277
					c-0.656,0.408-1.048,1.16-1.048,2.011v30.354c0,0.59,0.226,1.146,0.617,1.529c0.322,0.312,0.725,0.473,1.144,0.468l49.442-1.281
					c1.009-0.025,1.348-0.949,1.429-1.231c0.185-0.652,0.108-1.604-0.716-2.139l-0.104-0.067c-0.109-0.072-0.222-0.143-0.332-0.213
					c-0.776-0.506-1.574-1.025-2.409-1.564l-4.798-3.089c-1.294-0.83-2.635-1.689-4.016-2.566c-0.572-0.364-1.15-0.732-1.733-1.1
					c-13.665-8.668-24.411-15.144-31.941-19.249l-0.613-0.333c-0.063-0.034-0.124-0.066-0.186-0.099
					c-0.546-0.295-1.583-0.815-3.022-1.522C2335.242,717.779,2334.98,717.729,2334.745,717.729z"/>
			</g>
			<path style="fill:#2C3A64;" d="M2036.223,742.756l5.321,17.589l-29.114,0.689c-1.699,0.041-2.432-2.131-1.053-3.121
				C2017.95,753.194,2030.132,744.79,2036.223,742.756z"/>
			<g>
				<path style="fill:#1D2949;" d="M2202.414,757.951c-2.029,0-3.939-0.775-5.397-2.194c-1.505-1.466-2.334-3.428-2.334-5.525
					v-41.594c0-1.965,0.772-3.807,2.175-5.187c1.404-1.381,3.264-2.113,5.234-2.099c79.633,1.106,104.291,2.907,119.931,8.766
					l0.924,0.347v44.636l-120.339,2.849C2202.543,757.95,2202.479,757.951,2202.414,757.951z M2201.988,704.195
					c-1.18,0-2.288,0.454-3.129,1.281c-0.855,0.842-1.326,1.964-1.326,3.161v41.594c0,1.325,0.523,2.564,1.475,3.49
					c0.949,0.926,2.215,1.422,3.531,1.385l117.557-2.782v-39.88c-15.217-5.391-41.314-7.184-118.043-8.248
					C2202.031,704.195,2202.01,704.195,2201.988,704.195z"/>
			</g>
			<path style="fill:#A9453D;" d="M2525.018,798.075h-34.064c-5.068,0-9.855-2.32-12.99-6.293l-12.882-16.335
				c-1.215-1.54-0.115-3.799,1.849-3.799h53.99L2525.018,798.075z"/>
			<g>
				
					<rect x="2096.129" y="792.424" transform="matrix(0.0116 -0.9999 0.9999 0.0116 1368.6737 2970.9641)" style="fill:#1D2949;" width="182.146" height="1.426"/>
			</g>
			<g>
				
					<rect x="1955.994" y="885.03" transform="matrix(0.9998 -0.0199 0.0199 0.9998 -17.1926 42.575)" style="fill:#1D2949;" width="352.213" height="1.423"/>
			</g>
			<path style="fill:#ED823A;" d="M2166.573,794.587c0,1.927-8.613,3.488-19.238,3.488c-10.624,0-19.237-1.562-19.237-3.488
				c0-1.926,8.613-3.487,19.237-3.487C2157.96,791.1,2166.573,792.661,2166.573,794.587z"/>
			<path style="fill:#ED823A;" d="M2345.746,794.587c0,1.927-8.613,3.488-19.237,3.488c-10.625,0-19.238-1.562-19.238-3.488
				c0-1.926,8.613-3.487,19.238-3.487C2337.133,791.1,2345.746,792.661,2345.746,794.587z"/>
			<g>
				<path style="fill:#1D2949;" d="M2294.439,882.315l-1.423-0.076c0.983-18.107,6.362-33.367,15.985-45.358
					c7.7-9.593,18.111-17.115,30.945-22.354c19.522-7.973,38.856-8.181,42.84-8.123v-54.159h1.424v55.627l-0.74-0.031
					c-0.215-0.009-21.51-0.779-43.025,8.018c-12.598,5.151-22.807,12.53-30.347,21.932
					C2300.675,849.539,2295.406,864.521,2294.439,882.315z"/>
			</g>
			<g>
				<path style="fill:#1D2949;" d="M1998.949,888.357c-0.552-46.979,2.07-79.482,4.366-98.478
					c2.491-20.61,5.156-30.243,5.183-30.337l1.372,0.383c-0.104,0.377-10.55,38.731-9.495,128.414L1998.949,888.357z"/>
			</g>
			<g>
				<rect x="2174.198" y="702.063" style="fill:#1D2949;" width="27.875" height="1.421"/>
			</g>
			<g>
				<g>
					<g>
						
							<rect x="2276.804" y="839.819" transform="matrix(-1 0.0077 -0.0077 -1 4577.8174 1679.7769)" style="fill:#FFFFFF;" width="17.735" height="17.782"/>
						
							<rect x="2258.933" y="822.365" transform="matrix(-1 0.0077 -0.0077 -1 4541.9409 1645.0068)" style="fill:#FFFFFF;" width="17.735" height="17.782"/>
						
							<rect x="2241.238" y="840.092" transform="matrix(-1 0.0077 -0.0077 -1 4506.6929 1680.587)" style="fill:#FFFFFF;" width="17.735" height="17.783"/>
						
							<rect x="2223.366" y="822.638" transform="matrix(-1 0.0077 -0.0077 -1 4470.8159 1645.8163)" style="fill:#FFFFFF;" width="17.735" height="17.783"/>
					</g>
					<g>
						
							<rect x="2205.291" y="840.369" transform="matrix(-1 0.0077 -0.0077 -1 4434.7969 1681.4301)" style="fill:#FFFFFF;" width="17.735" height="17.782"/>
						
							<rect x="2187.419" y="822.917" transform="matrix(-1 0.0077 -0.0077 -1 4398.9199 1646.6616)" style="fill:#FFFFFF;" width="17.735" height="17.782"/>
						
							<rect x="2169.724" y="840.644" transform="matrix(-1 0.0077 -0.0077 -1 4363.6675 1682.2544)" style="fill:#FFFFFF;" width="17.736" height="17.783"/>
						
							<rect x="2151.853" y="823.189" transform="matrix(-1 0.0077 -0.0077 -1 4327.791 1647.4825)" style="fill:#FFFFFF;" width="17.735" height="17.783"/>
					</g>
				</g>
				<g>
					<g>
						
							<rect x="2134.349" y="840.917" transform="matrix(-1 0.0077 -0.0077 -1 4292.873 1683.1927)" style="fill:#FFFFFF;" width="17.736" height="17.782"/>
						
							<rect x="2116.478" y="823.463" transform="matrix(-1 0.0077 -0.0077 -1 4257.0435 1648.3013)" style="fill:#FFFFFF;" width="17.735" height="17.783"/>
						
							<rect x="2098.783" y="841.191" transform="matrix(-1 0.0077 -0.0077 -1 4221.791 1683.8936)" style="fill:#FFFFFF;" width="17.736" height="17.782"/>
						
							<rect x="2080.911" y="823.737" transform="matrix(-1 0.0077 -0.0077 -1 4185.9136 1649.124)" style="fill:#FFFFFF;" width="17.736" height="17.782"/>
					</g>
					<g>
						
							<rect x="2062.836" y="841.467" transform="matrix(-1 0.0077 -0.0077 -1 4149.8574 1684.8306)" style="fill:#FFFFFF;" width="17.736" height="17.782"/>
						
							<rect x="2044.965" y="824.014" transform="matrix(-1 0.0077 -0.0077 -1 4113.9819 1650.0604)" style="fill:#FFFFFF;" width="17.735" height="17.783"/>
						
							<rect x="2027.27" y="841.742" transform="matrix(-1 0.0077 -0.0077 -1 4078.7712 1685.5477)" style="fill:#FFFFFF;" width="17.736" height="17.783"/>
						
							<rect x="2009.398" y="824.287" transform="matrix(-1 0.0077 -0.0077 -1 4042.8936 1650.7762)" style="fill:#FFFFFF;" width="17.735" height="17.782"/>
					</g>
				</g>
			</g>
			<path style="fill:#F99746;" d="M2217.914,693.791l-3.999-20.047c-0.589-2.956-3.189-5.085-6.209-5.085h-12.589
				c-2.916,0-5.455,1.988-6.148,4.814l-4.989,20.317H2217.914z"/>
		</g>
	</g>
	<path style="fill:#ABB9FF;" d="M810.752,859.574c0,0.01,0,0.01,0,0.01c-4.816,8.388-9.703,16.675-14.651,24.869
		c-68.408,113.304-156.172,158.748-235.12,174.119c-4.918,0.957-9.806,1.793-14.641,2.524c-49.197,7.453-94.161,3.798-127.737-1.384
		c-10.886-1.68-21.344-3.665-31.384-5.955c-137.797-31.375-197.646-118.496-201.604-220.47
		c-5.081-130.813,81.825-286.078,214.174-379.48c13.713-9.681,27.69-18.517,41.872-26.549h0.011
		c29.517-16.756,59.889-30.072,90.386-40.395c4.947-1.679,9.906-3.278,14.854-4.795c0.837-0.264,1.684-0.519,2.52-0.763
		c20.375-6.159,40.76-11.015,60.921-14.69h0.01c21.345-3.919,42.433-6.525,63.043-7.991c0.244-0.021,0.488-0.031,0.724-0.051
		c2.837-0.194,5.643-0.376,8.447-0.529h0.011c6.734-0.367,13.417-0.621,20.028-0.744h0.02c3.561-0.081,7.112-0.112,10.632-0.122
		h2.081c17.742,0.041,34.944,0.917,51.442,2.504c2.459,0.234,4.896,0.489,7.315,0.753c8.396,0.936,16.589,2.046,24.567,3.339
		c0.807,0.122,1.602,0.255,2.398,0.397c5.906,0.977,11.692,2.056,17.344,3.227c6.213,1.282,12.274,2.667,18.15,4.163
		c4.929,1.242,9.724,2.565,14.396,3.94c9.825,2.901,19.059,6.087,27.628,9.508c6.184,2.464,12.029,5.049,17.498,7.747
		C991.084,439.536,918.828,671.356,810.752,859.574z"/>
	<g>
		<path style="fill:#FFB27D;" d="M763.483,510.712L763.483,510.712c-8.272-12.329-4.958-29.014,7.399-37.266l82.963-55.403
			c12.356-8.252,29.078-4.947,37.349,7.383l0,0c8.271,12.33,4.958,29.015-7.399,37.266l-82.962,55.403
			C788.476,526.348,771.754,523.042,763.483,510.712z"/>
		<path style="fill:#FFB27D;" d="M751.863,579.78L751.863,579.78c-6.671-11.801-2.489-26.762,9.338-33.417l47.41-26.679
			c11.827-6.655,26.822-2.482,33.492,9.317l0,0c6.67,11.801,2.489,26.763-9.338,33.417l-47.411,26.679
			C773.527,595.752,758.533,591.582,751.863,579.78z"/>
		<path style="fill:#FFB27D;" d="M732.484,623.845c0,0-75.987,78.75-143.658,128.365c-26.928,19.749-52.539,34.879-71.519,38.6
			c-18.578,3.642-36.209,12.803-51.971,24.129c-40.821,29.325-69.145,73.144-69.145,73.144l-64.031-221.199
			c0,0,18.732-26.338,32.08-69.648c12.356-40.094,14.336-78.551,52.161-133.694c50.463-73.566,96.736-133.649,98.757-140.167
			c10.177-32.845,36.281-70.067,39.49-74.498c1.388-1.908,8.168-3.382,15.641-1.046c5.997,1.87,14.369,10.83,13.215,23.518
			c-5.83,64.133-33.875,98.89-34.25,100.707c-9.881,47.604-34.388,77.586-27.572,89.675c0.255,0.448,0.971,0.498,2.104,0.19
			c20.102-5.506,171.36-124.267,185.181-123.539C723.563,339.157,732.484,623.845,732.484,623.845z"/>
		<path style="fill:#F99746;" d="M445.262,853.038v0.011c-0.061,3.338-0.439,6.728-1.163,10.148c0,0-7.591,22.59-20.517,59.859
			c-0.173,0.529-0.357,1.059-0.54,1.588c-0.694,2.016-1.408,4.062-2.133,6.158c-3.53,10.17-7.407,21.277-11.601,33.207
			c-4.254,12.115-13.354,52.488-22.089,89.748c-137.797-31.375-197.646-118.496-201.604-220.47
			c20.231-21.785,38.341-41.229,53.523-57.476c0,0,0-0.01,0.01,0c0.062-0.082,0.133-0.163,0.214-0.234l0.204-0.224
			c0.469-0.499,0.939-0.998,1.398-1.496c29.465-31.559,47.36-50.565,47.36-50.565s0.388,0.132,1.133,0.397
			c5.815,2.087,33.046,12.145,63.175,28.148l0.01,0.01c1.612,0.866,3.245,1.741,4.877,2.647h0.01
			c35.627,19.525,73.837,47.113,84.713,79.526v0.011c0.612,1.853,1.152,3.726,1.581,5.608v0.011
			C444.844,844.028,445.344,848.498,445.262,853.038z"/>
		<path style="fill:#FFB27D;" d="M903.586,365.286l-54.839,43.286l-53.815,42.48c-3.098,2.008-5.997,2.138-8.731,0.987
			c-8.594-3.6-15.56-19.761-21.889-29.48l-0.644-0.979c-8.35-12.806-4.679-30.098,8.152-38.422l77.717-50.447l0.002-0.006
			l23.05-14.959c12.834-8.331,30.164-4.669,38.508,8.135l0.643,0.979C920.09,339.663,916.421,356.954,903.586,365.286z"/>
		<path style="opacity:0.5;fill:#D38254;" d="M588.826,752.21c-26.928,19.749-52.539,34.879-71.519,38.6
			c-18.578,3.642-36.209,12.803-51.971,24.129c-10.936-9.945-23.34-21.479-35.435-32.843c-14.729-13.837-7.69-38.649,12.177-42.464
			c0.194-0.037,0.386-0.077,0.573-0.118c18.79-4.131,45.188-31.17,45.188-31.17L588.826,752.21z"/>
		<path style="fill:#FFC197;" d="M552.929,251.401l-22.255,36.571c0,0,7.503,6.194,13.882,5.19
			C550.934,292.158,566.58,258,552.929,251.401z"/>
		<path style="fill:#ED7D2B;" d="M239.139,775.807c0,0,41.947,75.874,75.385,110.545l37.327-12.097l-9.991,31.9
			c0,0,56.771,29.339,79.046,24.646l27.245-86.99l-142.34-137.049L239.139,775.807z"/>
		<path style="fill:#F3F8FF;" d="M337.043,659.727c0,0-55.789,44.891-112.573,93.782c0,0,62.507,79.483,100.656,108.974
			l76.89-47.051l-32.478,75.371c0,0,44.403,33.851,69.143,36.341c0,0,20.418-71.538,34.934-117.829
			C473.614,809.315,348.169,728.254,337.043,659.727z"/>
		<path style="fill:#F99746;" d="M298.434,807.356c1.675-5.179,7.24-8.022,12.43-6.351c5.19,1.67,8.04,7.224,6.365,12.402
			c-1.675,5.179-7.24,8.021-12.43,6.351C299.609,818.087,296.759,812.534,298.434,807.356z"/>
		<path style="fill:#2B478B;" d="M676.444,800.09l-211.6-65.977c-20.813-6.489-32.522-28.79-26.017-49.559l145.345-464.078
			c6.505-20.767,28.855-32.449,49.669-25.959l211.601,65.977c20.813,6.49,32.521,28.792,26.017,49.559L726.113,774.131
			C719.609,794.898,697.259,806.579,676.444,800.09z"/>
		<path style="fill:#EBF3FA;" d="M856.102,309.188L714.125,762.509c-4.815,15.379-21.277,24.055-36.573,19.284l-203.179-63.351
			c-15.295-4.769-23.871-21.251-19.055-36.631l141.976-453.321c4.816-15.379,21.273-24.056,36.568-19.287l203.179,63.352
			C852.337,277.325,860.919,293.809,856.102,309.188z"/>
		<g>
			<path style="fill:#2B478B;" d="M646.848,259.765l-4.878,1.611l-3.121-4.071c1.278-0.969,3.002-1.336,4.653-0.821
				C645.144,256.995,646.349,258.252,646.848,259.765z"/>
			<g>
				<path style="fill:#2B478B;" d="M645.684,249.526c-4.011-1.242-8.173-0.356-11.274,2.005l1.979,2.565
					c2.295-1.751,5.366-2.392,8.324-1.476c2.93,0.916,5.082,3.166,5.979,5.874l3.081-1.018
					C652.56,253.811,649.643,250.768,645.684,249.526z"/>
			</g>
			<g>
				<path style="fill:#2B478B;" d="M649.814,236.312c-8.468-2.637-17.282-0.773-23.833,4.235l1.969,2.565
					c5.745-4.388,13.479-6.026,20.906-3.706c7.355,2.291,12.753,7.961,15.008,14.751l3.071-1.018
					C664.375,245.383,658.223,238.939,649.814,236.312z"/>
			</g>
			<g>
				<path style="fill:#2B478B;" d="M647.551,243.55c-6.03-1.884-12.305-0.57-16.988,2.972l1.979,2.566
					c3.866-2.922,9.06-4.011,14.049-2.454c4.939,1.547,8.57,5.334,10.111,9.885l3.071-1.008
					C657.926,249.994,653.529,245.413,647.551,243.55z"/>
			</g>
		</g>
		<g>
			<path style="fill:#FFB27D;" d="M810.752,859.574c0,0.01,0,0.01,0,0.01c-4.816,8.388-9.703,16.675-14.651,24.869
				c-68.408,113.304-156.172,158.748-235.12,174.119c-4.918,0.957-9.806,1.793-14.641,2.524
				c-15.702-20.726-39.229-53.801-48.708-77.47c-2.826-7.065-4.428-60.825-4.999-104.264c-0.347-27.12-0.296-50.218,0.111-55.399
				c0.297-3.787,3.449-14.669,7.826-28.372c4.397-13.793,10.05-30.448,15.274-45.576c0.877-2.533,1.734-5.019,2.582-7.44l1.04-2.953
				c0.766-2.209,1.521-4.357,2.244-6.424c1.102-3.135,2.142-6.087,3.093-8.795c2.896-8.195,5.049-14.222,5.865-16.492l0.061-0.173
				c0.021-0.051,0.04-0.102,0.051-0.152l0.245-0.672h0.011c0.388-0.081,12.191-2.321,22.67,11.615
				c2.734,3.635,3.959,11.075,4.296,20.289v0.01c0.06,1.843,0.091,3.757,0.091,5.722c0,5.802-0.274,12.084-0.693,18.426
				c-0.235,3.613-0.52,7.248-0.826,10.821c-1.541,17.662-3.663,33.93-3.623,39.6c0.083,12.512,27.405,75.964,29.119,79.914
				c0.03,0.061,0.061,0.122,0.082,0.192l24.751-79.027l-2.021-36.698l-1.04-18.966l-0.949-17.234l-1.203-22.01l-1.551-28.137
				l-0.194-3.503l-0.388-7.126l-0.193-3.491l-0.878-15.983l-0.184-3.328c0,0-0.347-1.395-0.908-3.879
				c-1.184-5.273-3.295-15.463-4.979-27.507c-1.275-9.131-2.306-19.331-2.479-29.268c-0.112-6.81,0.174-13.488,1.051-19.626
				c1.123-7.94,3.245-14.976,6.785-20.147c5.081-7.421,10.998-8.745,15.916-8.012c1.244,0.184,2.418,0.499,3.5,0.886
				c0.011,0,0.019,0.01,0.03,0.01c0.541,0.204,1.06,0.407,1.551,0.632c1.479,0.65,2.765,1.588,3.825,2.759l0.011,0.011
				c1.143,1.241,1.989,2.738,2.5,4.387c0,0,1.398,3.817,3.53,9.64v0.011c0.448,1.202,0.918,2.505,1.418,3.868
				c0.888,2.444,1.867,5.101,2.888,7.9v0.01c0.459,1.272,0.938,2.555,1.418,3.868c3.866,10.629,8.192,22.508,11.294,31.182
				c1.938,5.406,3.407,9.569,4.01,11.402c1.541,4.713,3.551,11.92,5.714,20.114v0.012c3.56,13.558,7.529,29.816,10.437,41.91
				c0.99,4.134,1.847,7.768,2.53,10.659c0.337,1.435,0.633,2.677,0.867,3.705c0.491,2.077,0.766,3.247,0.766,3.247s0,0,0.01,0.011
				l34.73,12.439c1.152,0.418,2.275,0.916,3.347,1.497c4.019,2.157,7.376,5.415,9.65,9.416c1.287,2.26,2.786,4.897,4.429,7.778
				c3.071,5.404,6.601,11.656,10.05,17.784v0.01c7.377,13.092,14.355,25.643,15.6,28.433c0,0,0,0.01,0.011,0.021
				c0.01,0.011,0.01,0.031,0.01,0.041c0.01,0.01,0.01,0.02,0.021,0.04c0.47,0.938,2.021,2.708,4.357,5.131
				c0.398,0.407,0.816,0.835,1.245,1.283c0.03,0.03,0.06,0.052,0.092,0.092c0.449,0.448,0.908,0.915,1.388,1.404
				c0.765,0.774,1.591,1.589,2.459,2.454c0.286,0.284,0.581,0.57,0.877,0.875c0.592,0.581,1.215,1.191,1.836,1.822
				c0.643,0.621,1.286,1.253,1.949,1.914l0.102,0.102c0.337,0.325,0.663,0.661,1,0.997c0.122,0.111,0.244,0.233,0.366,0.355
				l0.552,0.55c0.174,0.174,0.347,0.347,0.53,0.52c0.204,0.203,0.407,0.407,0.622,0.621c1.286,1.272,2.623,2.596,3.979,3.97
				c0.449,0.448,0.907,0.917,1.367,1.375c0.378,0.376,0.755,0.753,1.132,1.14c0.644,0.642,1.286,1.304,1.929,1.965
				c3.143,3.197,6.356,6.557,9.52,9.977c0.397,0.428,0.795,0.856,1.193,1.293c7.214,7.858,14.09,16.065,19.109,23.699
				c0.214,0.326,0.419,0.642,0.622,0.956c0.419,0.642,0.816,1.272,1.194,1.904c0.01,0,0.01,0,0.01,0
				C807.845,851.898,809.772,855.929,810.752,859.574z"/>
			<path style="fill:#EFA26F;" d="M669.979,705.774c0,0,15.973,63.273,19.54,67.011c3.566,3.738,19.299,12.32,23.015,7.177
				C716.252,774.818,669.979,705.774,669.979,705.774z"/>
			<path style="fill:#EFA26F;" d="M805.256,847.646c-0.358-0.232-21.292-13.623-30.587-18.933
				c-9.157-5.229-26.065-43.723-26.852-45.512C750.408,788.573,789.738,822.074,805.256,847.646z"/>
			<path style="fill:#EFA26F;" d="M582.152,893.502l24.751-79.029c0,0,8.981,37.271,5.024,54.943
				C607.973,887.084,589.986,912.081,582.152,893.502z"/>
			<path style="fill:#FFD3B6;" d="M604.71,582.218c-1.279-5.564-3.531-15.636-3.731-20.938c-0.056-1.5,0.85-4.183,3.415-6.542
				c1.535-1.416,3.665-2.717,6.537-3.574c1.352-0.402,2.69-0.716,4.049-0.783c1.59-0.071,3.16,0.111,4.691,0.567
				c1.379,0.413,2.563,1.659,3.1,3.377c0.004,0.007,0.004,0.019,0.008,0.025c1.779,5.768,3.888,13.518,4.863,20.242
				c0.681,4.648-1.396,9.124-4.873,10.289l-1.624,0.554l-8.321,2.822C609.367,589.426,605.745,586.764,604.71,582.218z"/>
			<path style="fill:#FFC197;" d="M604.71,582.218c-1.279-5.564-3.531-15.636-3.731-20.938c-0.056-1.5,0.85-4.183,3.415-6.542
				c0.558-0.228,1.142-0.431,1.767-0.619c1.351-0.402,2.69-0.716,4.049-0.784c1.59-0.071,3.159,0.112,4.689,0.568
				c1.38,0.413,2.565,1.658,3.1,3.377c0.006,0.006,0.004,0.018,0.009,0.024c1.779,5.768,3.887,13.518,4.862,20.242
				c0.439,2.979-0.256,5.881-1.725,7.889l-8.321,2.822C609.367,589.426,605.745,586.764,604.71,582.218z"/>
			<path style="fill:#EFA26F;" d="M560.98,1058.572c-4.918,0.957-9.806,1.793-14.641,2.524
				c-15.702-20.726-39.229-53.801-48.708-77.47c-2.826-7.065-4.428-60.825-4.999-104.264l0.01-0.011
				c0.071,5.763,12.121,93.556,19.651,105.445C518.262,994.225,543.34,1038.519,560.98,1058.572z"/>
			<path style="fill:#FFC197;" d="M531.023,706.911l-12.593,35.667c0,0,7.215,3.604,12.545,1.733S543.818,710.435,531.023,706.911z"
				/>
		</g>
	</g>
	<path style="fill:#2B478B;" d="M581.021,579.576c4.077-14.408-4.315-29.393-18.754-33.461c-14.44-4.068-29.449,4.307-33.535,18.712
		c-4.077,14.407,11.235,51.865,13.372,52.464C543.886,617.799,576.938,593.972,581.021,579.576z M549.528,591.086
		c-9.876-2.785-15.622-13.034-12.831-22.888c2.791-9.853,13.063-15.587,22.938-12.803c9.876,2.784,15.622,13.033,12.831,22.888
		C569.676,588.137,559.404,593.871,549.528,591.086z"/>
	<g>
		<path style="opacity:0.4;fill:#F77D48;" d="M563.376,382.413c19.137-64.924,87.397-102.077,152.466-82.983
			c65.068,19.094,102.304,87.204,83.167,152.127c-19.136,64.925-87.396,102.077-152.465,82.983
			C581.475,515.446,544.239,447.337,563.376,382.413z"/>
		<path style="fill:#F77D48;" d="M588.999,389.932c14.975-50.804,68.39-79.877,119.308-64.936
			c50.916,14.941,80.055,68.238,65.079,119.042c-14.975,50.804-68.389,79.877-119.307,64.936
			C603.162,494.033,574.025,440.735,588.999,389.932z"/>
		<g>
			<g>
				<polygon style="fill:#FFFFFF;" points="715.184,434.429 741.06,442.022 748.707,416.078 722.831,408.485 				"/>
				<g>
					<polygon style="fill:#FFFFFF;" points="681.046,452.297 706.923,459.89 714.569,433.945 688.693,426.353 					"/>
					<polygon style="fill:#FFFFFF;" points="662.735,419.039 688.611,426.632 696.259,400.688 670.382,393.094 					"/>
					<polygon style="fill:#FFFFFF;" points="629.155,437.069 655.031,444.663 662.679,418.719 636.802,411.125 					"/>
					<polygon style="fill:#FFFFFF;" points="610.844,403.811 636.72,411.404 644.366,385.461 618.49,377.868 					"/>
				</g>
			</g>
		</g>
	</g>
	<g>
		<polygon style="fill:#2B478B;" points="583.787,659.021 499.406,635.676 500.748,630.852 585.129,654.197 		"/>
		<polygon style="fill:#2B478B;" points="552.177,663.029 496.115,647.519 497.456,642.693 553.519,658.204 		"/>
	</g>
	<g>
		<g>
			<path style="fill:#F77D48;" d="M1801.405,525.345c-8.45-137.95-105.431-160.953-194.541-160.923
				c-89.109,0.031-176.243,46.152-172.007,149.897c1.828,44.768,14.36,83.642,44.08,111.194l-33.51,83.652l68.229-60.534
				c27.414,12.914,63.205,20.148,109.252,20.133C1759.443,668.716,1806.841,614.091,1801.405,525.345z"/>
		</g>
		<g>
			<g>
				<path style="fill:#FFFFFF;" d="M1690.494,588.737l-0.257-18.008c-10.077-0.035-20.545-3.097-26.688-7.468l3.999-12.004
					c6.313,4.19,15.396,7.449,25.123,7.311c12.333-0.175,20.566-7.603,20.422-17.766c-0.139-9.806-7-15.772-19.932-20.938
					c-17.819-6.881-28.88-14.927-29.102-30.437c-0.211-14.8,9.879-26.178,25.821-29.077l-0.257-18.007l10.771-0.153l0.246,17.294
					c10.427,0.209,17.59,2.96,22.67,5.919l-4.175,11.829c-3.678-2.088-10.856-5.908-21.974-5.752
					c-13.375,0.191-18.296,8.463-18.194,15.595c0.132,9.271,6.626,13.816,21.83,20.019c17.998,7.234,27.163,16.378,27.389,32.245
					c0.201,14.085-9.165,27.413-27.014,30.699l0.265,18.541L1690.494,588.737z"/>
			</g>
			<g>
				<rect x="1508.337" y="487.241" style="fill:#FFFFFF;" width="86.158" height="11.679"/>
				<rect x="1508.337" y="515.464" style="fill:#FFFFFF;" width="137.63" height="11.68"/>
				<rect x="1508.337" y="543.688" style="fill:#FFFFFF;" width="107.397" height="11.679"/>
			</g>
		</g>
	</g>
</g>
</svg>
