<?xml version="1.0" encoding="utf-8"?>
<!-- Generator: Adobe Illustrator 27.5.0, SVG Export Plug-In . SVG Version: 6.00 Build 0)  -->
<svg version="1.1" xmlns="http://www.w3.org/2000/svg" xmlns:xlink="http://www.w3.org/1999/xlink" x="0px" y="0px"
	 viewBox="0 0 2600 2000" style="enable-background:new 0 0 2600 2000;" xml:space="preserve">
<g id="BG">
	<rect style="fill:#CCF1FF;" width="2600" height="2000"/>
</g>
<g id="people">
	<g id="female">
		<path style="fill:#0D0D0D;" d="M2110.51,960.671c0,0-28.289,13.941-64.254,23.949c-27.574,7.673-151.11-6.575-146.695,98.85
			c4.964,118.517,177.575,95.892,242.373,15.562c31.295-38.797,58.547-86.604,55.841-116.987
			C2194.956,950.404,2142.287,926.278,2110.51,960.671z"/>
		<g>
			<g>
				<path style="fill:#FFA88F;" d="M1987.884,1364.916h-90.281c16.309,36.904,30.58,70.493,41.987,98.272
					c-55.03,77.499-69.203,150.711-82.061,203.668l28.621,10.715c31.179-60.078,107.503-184.932,111.375-214.383v-0.207
					c1.59-12.03-0.484-36.019-4.979-67.613C1991.203,1385.87,1989.636,1375.674,1987.884,1364.916z"/>
			</g>
			<path style="fill:#FFE3DB;" d="M1897.512,1658.073l-11.445,53.504c0,0,14.19,1.467,13.495,8.699
				c-9.864-0.059-40.273-0.24-40.273-0.24l-3.242-36.663l-11.12,36.577l-5.503-0.033c0,0,2.435-31.607,7.828-44.88
				c5.393-13.273,14.122-20.829,14.122-20.829L1897.512,1658.073z"/>
		</g>
		<g>
			<g>
				<path style="fill:#FFA88F;" d="M2124.185,1468.03l0.028,0.205c0.078,29.704,25.146,201.435,25.146,201.435l-22.27-5.723
					c0,0-46.944-78.786-60.297-188.009c-32.999-57.234-83.432-140.45-139.234-224.69c34.605-6.177,106.855-11.086,140.375-17.047
					c15.445,57.79,29.775,122.777,42.328,167.479C2118.916,1432.395,2124.162,1455.895,2124.185,1468.03z"/>
			</g>
			<path style="fill:#F1717B;" d="M2149.359,1669.67l10.585,41.257c0,0,14.606,1.666,15.968,8.918
				c-9.88-0.194-40.337-0.791-40.337-0.791l-13.668-36.853l-11.732,37.697l-5.512-0.108c0,0,1.41-30.638,3.027-43.89
				c1.617-13.252,10.928-27.814,10.928-27.814L2149.359,1669.67z"/>
		</g>
		<path style="fill:#FFA88F;" d="M2164.289,1078.354c0,0,49.093,73.966,61.198,123.443c5.438,22.227-10.906,32.71-27.213,20.554
			c-31.621-23.571-70.232-86.012-78.657-115.522C2108.038,1066.27,2151.531,1065.572,2164.289,1078.354z"/>
		<g>
			<path style="fill:#F15E3C;" d="M2155.142,1422.467c-34.052-68.494-72.863-134.517-99.168-225.294l-88.08-65.214
				c-66.901,17.98-109.589,144.448-114.481,293.003C2060.785,1458.794,2155.142,1422.467,2155.142,1422.467z"/>
			<g>
				<path style="fill:#F15E3C;" d="M2026.459,1202.917c0,0,81.944-15.808,101.126-20.335c19.182-4.527,34.836-53.864,41.213-76.699
					c-0.907-57.12-64.513-89.146-109.448-81.115c-21.761,5.993-99.338,111.955-99.338,111.955L2026.459,1202.917z"/>
				<path style="fill:#FFFFFF;" d="M2155.293,1094.018c0,0-12.503,21.014-27.473,9.482c-14.969-11.532-25.14-69.022-12.113-74.689
					C2128.733,1023.145,2159.096,1066.53,2155.293,1094.018z"/>
				<path style="fill:#FFFFFF;" d="M2152.352,1098.254c0,0,5.012,22.484,15.618,12.649c14.009-12.991-26.352-85.358-51.05-82.464
					C2108.392,1029.438,2152.352,1098.254,2152.352,1098.254z"/>
				<g>
					<path style="fill:#FFFFFF;" d="M2147.573,1155.097c-1.274,0-2.666-0.419-4.167-1.256c-1.453-0.811-5.875-3.279,0.64-30.181
						c3.147-12.996,7.379-25.579,7.421-25.705c0.138-0.408,0.557-0.661,0.964-0.632c0.429,0.037,0.777,0.361,0.844,0.786
						c0.313,1.995,7.544,48.93-2.622,56.016C2149.722,1154.774,2148.693,1155.097,2147.573,1155.097z M2151.999,1102.314
						c-6.171,19.183-12.956,46.952-7.681,49.896c2.174,1.213,3.897,1.337,5.267,0.383
						C2156.571,1147.724,2154.069,1117.604,2151.999,1102.314z"/>
					<path style="fill:#FFFFFF;" d="M2120.419,1145.23c-2.278,0-4.11-1.457-5.444-4.331c-4.238-9.126,32.571-39.888,36.782-43.366
						c0.334-0.276,0.814-0.286,1.16-0.023c0.345,0.263,0.464,0.728,0.288,1.124c-2.122,4.76-21.066,46.505-32.745,46.596
						C2120.448,1145.23,2120.433,1145.23,2120.419,1145.23z M2149.774,1101.635c-15.307,13.026-35.657,32.982-33.104,38.477
						c1.015,2.186,2.242,3.25,3.752,3.25c0.008,0,0.016,0,0.024,0C2128.537,1143.3,2143.019,1116.014,2149.774,1101.635z"/>
				</g>
			</g>
		</g>
		<g>
			<path style="fill:#FA9376;" d="M2162.269,1026.1l-41.212,23.044c-17.49,21.874,24.003,52.284,37.836,40.08
				c11.56-18.207,17.217-28.942,29.038-44.662L2162.269,1026.1z"/>
			<g>
				<path style="fill:#FFA88F;" d="M2120.249,965.204c-3.265,9.012-6.137,29.667-7.44,38.468
					c-12.157,30.385-0.095,59.217,17.231,67.988c23.286,14.573,66.345,6.686,84.673-37.279c17.126-41.083,21.477-74.4-10.899-94.218
					C2171.438,920.345,2129.684,932.972,2120.249,965.204z"/>
				<g>
					<path style="fill:#FF664F;" d="M2173.649,1043.506c0,0-35.113-3.242-43.417-7.155c-4.255,22.561,15.974,28.943,20.938,28.749
						C2170.91,1064.328,2172.908,1050.053,2173.649,1043.506z"/>
					<path style="fill:#C9543D;" d="M2147.44,1026.8c-0.073,0-0.147-0.016-0.216-0.051c-0.32-0.159-7.806-3.941-7.046-7.91
						c0.462-2.411,2.899-3.232,5.256-4.025c1.52-0.512,3.091-1.04,4.067-1.98l0.933-3.441c0.07-0.258,0.331-0.413,0.594-0.341
						c0.259,0.07,0.411,0.336,0.341,0.594l-1,3.688l-0.088,0.09c-1.131,1.161-2.864,1.744-4.539,2.308
						c-2.189,0.737-4.258,1.433-4.613,3.289c-0.518,2.702,4.535,5.869,6.526,6.861c0.24,0.119,0.337,0.41,0.218,0.649
						C2147.789,1026.701,2147.618,1026.8,2147.44,1026.8z"/>
				</g>
				<path style="fill:#0D0D0D;" d="M2187.929,979.208c1.44-0.754-4.782,37.109,34.715,52.039
					c44.314-27.593,18.136-123.148-60.375-107.778c-31.383,10.161-37.741-11.613-57.262-1.436
					C2067.262,956.596,2138.912,1004.871,2187.929,979.208z"/>
				<path style="fill:#FFA88F;" d="M2203.823,1030.832c-0.225,5.23,3.832,9.652,9.062,9.877s9.652-3.832,9.877-9.062
					s-3.832-9.652-9.062-9.877C2208.47,1021.545,2204.048,1025.602,2203.823,1030.832z"/>
				<path style="fill:#FF9282;" d="M2180.202,1035.687c-0.422,2.14-4.465,3.144-9.03,2.243c-4.565-0.901-7.923-3.365-7.501-5.505
					c0.422-2.14,4.465-3.144,9.03-2.243C2177.265,1031.083,2180.624,1033.548,2180.202,1035.687z"/>
				<path style="fill:#FF9282;" d="M2131.991,1023.954c-0.538,1.932-4.316,2.567-8.438,1.419c-4.122-1.148-7.027-3.646-6.488-5.577
					c0.538-1.932,4.316-2.567,8.438-1.419C2129.624,1019.525,2132.529,1022.022,2131.991,1023.954z"/>
			</g>
			<path style="fill:#0E0E0E;" d="M2134.177,1000.284c-0.686,2.753-2.402,4.696-3.833,4.339c-1.432-0.357-2.036-2.877-1.351-5.63
				c0.686-2.753,2.402-4.696,3.833-4.339C2134.258,995.01,2134.863,997.531,2134.177,1000.284z"/>
			<path style="fill:#0E0E0E;" d="M2180.018,1013.783c-0.686,2.753-2.402,4.696-3.833,4.339c-1.432-0.357-2.036-2.877-1.351-5.63
				c0.686-2.753,2.402-4.696,3.833-4.339C2180.099,1008.51,2180.704,1011.031,2180.018,1013.783z"/>
		</g>
		<path style="fill:#FFA88F;" d="M2042.343,1037.098c0,0-49.8,36.821-72.886,75.082c-11.276,18.688-12.793,36.854-2.723,42.403
			c6.838,3.768,19.906,2.483,32.355-6.139c38.034-26.344,84.026-73.642,84.026-73.642
			C2108.33,1047.304,2075.304,1003.984,2042.343,1037.098z"/>
		<path style="fill:#FFA88F;" d="M2287.556,1091.407c0,0-42.408,109.694-56.211,123.85c-23.192,23.785-55.864,3.588-36.584-30.18
			c21.771-38.131,76.132-103.238,76.132-103.238L2287.556,1091.407z"/>
		<g>
			<path style="fill:#FFA88F;" d="M2267.819,1086.945l-14.943-32.008c0,0,2.908-2.741,6.415,0.536
				c3.506,3.277,4.975,11.468,7.458,9.613c4.528-3.384,2.835-34.94,5.336-36.66c2.501-1.72,5.838,24.398,5.838,24.398
				c1.884-1.437,6.225-29.965,8.465-30.143c2.24-0.178-0.177,29.079,1.238,30.182c1.645-1.192,8.241-28.767,10.269-28.333
				c2.027,0.434-1.104,29.441-0.434,29.682s7.896-12.873,9.423-13.435c1.527-0.562-5.554,37.487-18.373,50.081
				C2275.692,1103.451,2267.819,1086.945,2267.819,1086.945z"/>
		</g>
	</g>
	<g id="male">
		<path style="fill:#FFA88F;" d="M699.441,943.744l19.411,3.091c0,0,0.923,162.693-48.322,162.737
			C609.636,1104.106,683.879,984.147,699.441,943.744z"/>
		<path style="fill:#FFA88F;" d="M704.708,949.133c0,0-22.38-7.427-27.553-10.636c-5.174-3.209,2.696-26.043,6.556-29.013
			c2.176-1.674,19.634,3.928,11.531,13.066c6.161-3.973,16.34,5.291,23.659,13.628C725.429,944.749,715.706,960.218,704.708,949.133
			z"/>
		<path style="fill:#FFA88F;" d="M694.714,1086.006c0,0,7.905-31.356-44.845-61.689c-52.75-30.333-74.648,34.312-41.508,58.446
			C634.923,1102.106,688.793,1115.424,694.714,1086.006z"/>
		<polygon style="fill:#FFA88F;" points="825.828,1600.958 845.498,1649.091 806.359,1666.337 782.805,1620.24 		"/>
		<path style="fill:#0D0D0D;" d="M658.691,1167.33c0,0,101.408,149.656,122.112,215.044
			c20.705,65.387,42.449,212.739,42.449,212.739l-45.823,20.536l-84.784-200.017l-134.912-203.815L658.691,1167.33z"/>
		<g>
			<path style="fill:#478CA6;" d="M839.308,1620.638c7.434,6.782,18.351,5.818,38.695,0.72
				c19.703-10.523,39.174,7.628,33.113,21.481c-49.316,21.731-100.717,44.38-100.717,44.38
				c-4.575-6.147-11.857-26.498-15.083-36.695c11.329,1.909,20.078-3.238,28.013-11.079
				C808.719,1625.338,833.358,1611.115,839.308,1620.638z"/>
			<path style="fill:#FFFFFF;" d="M878.003,1621.357c0,0-16.554,8.689-9.351,28.204c-10.615,4.678-65.771,28.981-65.771,28.981
				l5.023,11.4l107.912-47.551c0,0-1.925-11.369-10.912-20.674C895.917,1612.414,879.359,1620.509,878.003,1621.357z"/>
			<g>
				<path style="fill:#F2F2F2;" d="M836.979,1635.668L836.979,1635.668c0.655,0.581,1.667,0.521,2.248-0.135l11.808-13.313
					c0.581-0.655,0.521-1.667-0.135-2.248l0,0c-0.655-0.581-1.667-0.521-2.248,0.135l-11.808,13.313
					C836.263,1634.076,836.324,1635.087,836.979,1635.668z"/>
				<path style="fill:#F2F2F2;" d="M844.544,1637.043L844.544,1637.043c0.655,0.581,1.667,0.521,2.248-0.135l11.808-13.313
					c0.581-0.655,0.52-1.667-0.135-2.248l0,0c-0.655-0.581-1.667-0.521-2.248,0.135l-11.808,13.313
					C843.829,1635.45,843.889,1636.462,844.544,1637.043z"/>
				<path style="fill:#F2F2F2;" d="M852.844,1636.832L852.844,1636.832c0.655,0.581,1.667,0.52,2.248-0.135l11.808-13.313
					c0.581-0.655,0.521-1.667-0.135-2.248l0,0c-0.655-0.581-1.667-0.521-2.248,0.135l-11.808,13.313
					C852.128,1635.24,852.189,1636.251,852.844,1636.832z"/>
			</g>
		</g>
		<path style="fill:#575757;" d="M825.46,1591.097c-0.089-0.241-53.117,23.406-53.117,23.406l5.025,11.404l53.619-22.268
			L825.46,1591.097z"/>
		<g>
			<polygon style="fill:#FFA88F;" points="456.273,1637.173 451.743,1689.173 493.327,1699.174 505.061,1649.232 			"/>
			<polygon style="fill:#0D0D0D;" points="475.778,1181.884 456.493,1639.142 506.524,1641.673 615.077,1192.401 			"/>
			<g>
				<path style="fill:#478CA6;" d="M446.092,1668.292c-4.008,9.23-14.365,12.817-35.014,16.487
					c-22.284-1.542-32.625,22.987-21.426,33.148c53.891-0.347,110.059-0.708,110.059-0.708c1.66-7.481-0.021-29.029-1.249-39.655
					c-9.556,6.377-19.645,5.259-30.094,1.352C475.927,1660.067,447.626,1657.169,446.092,1668.292z"/>
				<path style="fill:#FFFFFF;" d="M411.078,1684.78c0,0,18.66,1.156,20.072,21.91c11.6-0.075,71.872-0.463,71.872-0.463
					l0.08,12.458l-117.922,0.759c0,0-2.894-11.162,1.499-23.329C391.073,1683.948,409.494,1684.561,411.078,1684.78z"/>
				<g>
					<path style="fill:#FFFFFF;" d="M454.367,1681.055L454.367,1681.055c-0.36,0.798-1.308,1.157-2.106,0.797l-16.222-7.317
						c-0.798-0.36-1.157-1.308-0.797-2.106l0,0c0.36-0.798,1.308-1.157,2.106-0.797l16.222,7.317
						C454.369,1679.309,454.727,1680.257,454.367,1681.055z"/>
					<path style="fill:#FFFFFF;" d="M448.026,1685.404L448.026,1685.404c-0.36,0.798-1.308,1.157-2.106,0.797l-16.222-7.317
						c-0.798-0.36-1.157-1.308-0.797-2.106l0,0c0.36-0.798,1.308-1.157,2.106-0.797l16.222,7.317
						C448.027,1683.658,448.386,1684.606,448.026,1685.404z"/>
					<path style="fill:#FFFFFF;" d="M440.366,1688.608L440.366,1688.608c-0.36,0.798-1.308,1.157-2.106,0.797l-16.222-7.317
						c-0.798-0.36-1.157-1.308-0.797-2.106l0,0c0.36-0.798,1.308-1.157,2.106-0.797l16.222,7.317
						C440.368,1686.861,440.726,1687.809,440.366,1688.608z"/>
				</g>
			</g>
			<path style="fill:#575757;" d="M454.213,1632.4c0.017-0.257,57.569,7.423,57.569,7.423l-1.594,12.359l-57.728-6.19
				L454.213,1632.4z"/>
		</g>
		<path style="fill:#1FBFC7;" d="M565.249,959.025c29.486,11.866,67.913,37.228,100.55,65.153
			c-3.871,30.859-18.052,55.354-41.015,74.427l-78.258-49.998C516.836,1025.937,507.01,954.788,565.249,959.025z"/>
		<path style="fill:#478CA6;" d="M665.585,1023.693c0,0,5.184,22.892-13.261,50.193c-18.445,27.301-32.639,32.055-32.639,32.055
			l-6.528-6.829l-0.648-6.556c0,0,19.92-16.423,31.755-37.896c15.301-27.76,6.378-42.152,6.378-42.152
			S659.187,1009.173,665.585,1023.693z"/>
		<path style="fill:#1FBFC7;" d="M472.267,1272.403c71.036,18.437,195.005-32.469,217.656-61.368l-41.449-84.722l-21.25-43.448
			l-59.829-122.295c-27.782-11.699-95.348,4.607-137.953,49.271c9.104,48.289,16.766,87.271,25.084,126.703
			c4.532,21.496,9.249,43.129,14.514,66.479C474.486,1227.233,465.29,1242.729,472.267,1272.403z"/>
		<g>
			<g>
				<path style="fill:#FFA88F;" d="M398.338,1183.409c-19.154-49.393,14.138-144.153,14.138-144.153
					c4.582-40.527,87.984-22.551,72.882,32.401c0,0-29.828,94.47-37.062,122.943C436.127,1210.397,410.084,1213.7,398.338,1183.409z
					"/>
				<path style="fill:#1FBFC7;" d="M432.453,1005.803c0,0-28.391,16.891-45.687,122.186c66.648,22.948,78.471,20.188,78.471,20.188
					s42.901-101.162,17.452-132.095S432.453,1005.803,432.453,1005.803z"/>
			</g>
			<path style="fill:#478CA6;" d="M466.184,1152.015c0,0-20.059,10.996-51.861,2.382c-26.339-7.135-31.152-18.68-31.152-18.68
				c-2.315-7.425,1.879-12.126,4.309-13.938c0,0,18.967,13.928,42.999,18.788c31.068,6.283,42.127-6.54,42.127-6.54
				S478.122,1141.561,466.184,1152.015z"/>
		</g>
		<path style="fill:#478CA6;" d="M530.412,966.71c10.502,1.304,25.29,9.57,13.831,31.388c-11.459,21.817-86.161,24.65-91.032,0.165
			C448.34,973.776,519.91,965.406,530.412,966.71z"/>
		<g>
			<path style="fill:#FFA88F;" d="M532.985,979.039l-2.477-8.065l-8.912-28.884l-11.752-38.18l-48.888,4.665l3.914,81.716
				C472.573,1019.483,546.044,1002.46,532.985,979.039z"/>
			<path style="opacity:0.5;fill:#0D0D0D;" d="M476.344,937.792c0,0,35.541,28.505,54.164,33.181l-8.912-28.884L476.344,937.792z"/>
		</g>
		<g>
			<g>
				<path style="fill:#FFA88F;" d="M525.138,852.083c24.074,19.11,41.728,57.251,19.5,85.604
					c-22.228,28.354-68.717,27.395-101.779,1.476c-33.062-25.919-41.845-69.916-19.617-98.269
					C445.47,812.54,496.404,814.432,525.138,852.083z"/>
				<path style="fill:#733602;" d="M512.619,893.858c0.088-0.029,0.169-0.08,0.236-0.153c0.218-0.235,5.306-5.817,3.033-10.976
					c-1.729-3.927-6.155-2.031-9.081-0.776c-0.902,0.387-1.917,0.822-2.377,0.847l-5.873-4.385
					c-0.253-0.186-0.607-0.136-0.794,0.116c-0.187,0.251-0.136,0.606,0.115,0.794l6.123,4.57l0.139,0.021
					c0.707,0.113,1.718-0.321,3.115-0.92c3.462-1.486,6.415-2.491,7.597,0.191c1.976,4.484-2.779,9.695-2.828,9.748
					c-0.213,0.23-0.2,0.589,0.03,0.801C512.211,893.882,512.429,893.921,512.619,893.858z"/>
				<path style="fill:#522601;" d="M505.724,864.876l1.214-1.513c-2.676-2.15-3.799-4.85-3.014-5.827
					c0.787-0.974,3.662-0.463,6.339,1.689l1.214-1.513c-3.528-2.834-7.424-3.431-9.066-1.391
					C500.772,858.364,502.195,862.042,505.724,864.876z"/>
				<path style="fill:#522601;" d="M467.397,903.619l1.214-1.513c-1.312-1.054-2.368-2.348-2.896-3.548
					c-0.439-0.996-0.481-1.826-0.118-2.277c0.363-0.454,1.185-0.59,2.249-0.376c1.286,0.257,2.776,1.009,4.09,2.064l1.214-1.513
					c-1.57-1.261-3.318-2.133-4.923-2.454c-1.827-0.366-3.299,0.013-4.142,1.063c-0.844,1.05-0.896,2.568-0.146,4.274
					C464.599,900.837,465.826,902.357,467.397,903.619z"/>
				<path style="fill:#733602;" d="M505.437,925.788c17.645-5.874,25.123-23.562,25.22-23.799c0.118-0.29-0.02-0.621-0.31-0.74
					c-0.289-0.119-0.62,0.019-0.74,0.31c-0.125,0.304-12.875,30.408-44.48,24.092c-0.308-0.06-0.607,0.139-0.668,0.445
					c-0.062,0.308,0.138,0.606,0.445,0.668C492.887,928.358,499.7,927.698,505.437,925.788z"/>
			</g>
			<path style="fill:#0D0D0D;" d="M519.669,845.621c0,0-14.624-23.951-47.727-9.796c7.269,6.035,20.322,7.376,34.142,8.096
				c0,0-26.848,17.952-52.313,14.098c5.818,7.894,20.184,10.358,20.184,10.358s-18.22,16.04-33.773,11.405
				c9.44,17.469,5.755,48.003,24.884,72.344c-42.108-9.292-59.043-11.624-74.885-34.562c-22.716-32.891,2.161-81.68,33.514-103.483
				C479.558,772.371,519.454,800.714,519.669,845.621z"/>
			
				<ellipse transform="matrix(0.9475 -0.3197 0.3197 0.9475 -272.1016 191.6738)" style="fill:#FFA88F;" cx="447.728" cy="924.574" rx="12.426" ry="12.426"/>
			<path style="fill:#FF9475;" d="M512.523,877.029c1.804,2.448,7.536,1.286,12.802-2.596c5.266-3.881,8.072-9.012,6.268-11.46
				c-1.804-2.448-7.536-1.286-12.802,2.596C513.525,869.451,510.719,874.581,512.523,877.029z"/>
			<path style="fill:#FF9475;" d="M468.26,918.037c1.804,2.448,7.734,1.139,13.246-2.923c5.511-4.062,8.516-9.339,6.712-11.787
				c-1.804-2.448-7.734-1.139-13.246,2.923C469.461,910.312,466.456,915.59,468.26,918.037z"/>
		</g>
		<path style="fill:#FFA88F;" d="M550.423,1106.754l10.718,16.476c0,0-120.11,109.743-153.153,73.229
			C371.225,1147.608,510.01,1122.29,550.423,1106.754z"/>
		<path style="fill:#FFA88F;" d="M549.954,1114.275c0,0-9.49-21.586-10.577-27.576c-1.087-5.99,21.133-15.456,25.925-14.583
			c2.701,0.492,10.247,17.203-1.967,17.315c7.078,1.908,7.027,15.672,5.747,26.692
			C567.098,1126.713,549.101,1129.867,549.954,1114.275z"/>
	</g>
</g>
<g id="bag">
	<path style="fill:#E84923;" d="M858.072,511.769c0,0-4.161-199.745,81.146-251.762c85.308-52.017,239.278-39.533,276.73,12.484
		c37.452,52.017,37.452,237.197,37.452,237.197l-43.694,4.161c0,0-11.135-198.396-27.049-214.31
		c-27.049-27.049-172.969-56.78-222.633,2.081c-56.178,66.582-49.936,210.149-49.936,210.149H858.072z"/>
	<g>
		<polygon style="fill:#1DAFB8;" points="1827.736,1719.341 1927.409,1610.914 2042.1,1719.341 		"/>
		<g>
			<path style="fill:#129FA6;" d="M1737.475,886.085c2.906,0.239,5.058-2.759,4.86-6.872c-0.009-0.159-0.055-0.74-0.15-1.716
				c-3.212-32.522-15.401-195.685,60.571-205.124c8.17-1.033,23.242,5.031,38.834,25.362
				c16.745,21.834,44.861,75.072,45.843,187.278c0.037,4.167,2.482,8.105,5.46,8.8c2.989,0.688,5.359-2.118,5.325-6.279
				c-1.03-118.578-31.787-176.259-50.115-200.191c-18.745-24.478-37.255-31.763-48.344-30.405
				c-84.894,10.429-72.004,185.114-68.561,219.922l0.084,0.871c0.297,4.155,2.898,7.85,5.895,8.318
				C1737.276,886.065,1737.376,886.077,1737.475,886.085z"/>
			<polygon style="fill:#1EB8BF;" points="1839.801,1719.341 1857.91,850.23 1990.563,861.825 2047.419,1719.341 			"/>
			<polygon style="fill:#1BA6AD;" points="1839.683,1719.337 1039.646,1719.337 1086.498,786.577 1501.168,820.706 
				1614.528,830.029 1825.333,847.38 			"/>
			<polygon style="fill:#1FBFC7;" points="1839.683,1719.341 1825.333,847.383 1892.969,853.294 1937.003,1617.266 
				1842.581,1719.341 			"/>
			<path style="fill:#1FBFC7;" d="M1379.686,910.006c3.931,0.309,7.262-3.505,7.536-8.742c0.01-0.202,0.024-0.943,0.022-2.185
				c-0.074-41.399,4.895-248.763,109.302-260.024c11.21-1.206,30.816,6.583,49.259,32.436
				c19.798,27.751,50.874,95.282,37.651,237.402c-0.49,5.284,2.304,10.282,6.24,11.167c3.939,0.866,7.52-2.68,8.011-7.952
				c13.961-150.142-20.089-223.289-41.746-253.7c-22.162-31.122-46.274-40.534-61.461-38.912
				c-116.681,12.386-122.241,234.429-122.157,278.752l0,1.109c-0.146,5.292,2.913,10.003,6.938,10.603
				C1379.416,909.98,1379.552,909.996,1379.686,910.006z"/>
			<polygon style="fill:#189199;" points="1755.93,1726.51 1498.314,1719.337 1501.168,820.706 1728.594,838.091 			"/>
		</g>
	</g>
	<g>
		<polygon style="fill:#E84923;" points="794.18,1718.751 776.237,504.417 603.283,505.939 521.314,1718.751 		"/>
		<g>
			<path style="fill:#F26849;" d="M1686.323,500.761l-868.246,3.29L794.328,1718.75h962.262L1686.323,500.761z"/>
		</g>
		<polygon style="fill:#D94421;" points="794.332,1718.751 818.078,504.05 730.931,504.815 668.416,1585.846 790.593,1718.751 		"/>
		<polygon style="fill:#EB4A24;" points="790.591,1718.751 668.416,1585.847 527.833,1718.751 		"/>
	</g>
	<g>
		<path style="fill:#2B2B2B;" d="M2304.119,1725.547H270.368c-1.696,0-3.07-1.375-3.07-3.07c0-1.696,1.374-3.07,3.07-3.07h2033.751
			c1.696,0,3.07,1.374,3.07,3.07C2307.189,1724.173,2305.815,1725.547,2304.119,1725.547z"/>
	</g>
	<g>
		<g>
			<g>
				<g>
					<polygon style="fill:#1FBFC7;" points="1686.928,1718.328 1702.317,1451.628 1287.094,1447.091 1298.166,1718.328 					"/>
					<polygon style="fill:#1FBFC7;" points="1273.983,1482.633 1713.334,1487.433 1718.887,1396.174 1269.936,1391.269 					"/>
					<polygon style="fill:#19989E;" points="1288.551,1482.794 1288.837,1489.794 1699.856,1494.285 1700.259,1487.292 					"/>
				</g>
				<polygon style="fill:#D9F0FC;" points="1515.825,1718.328 1518.506,1393.626 1470.317,1393.17 1467.632,1718.328 				"/>
				<g>
					<path style="fill:#D9F0FC;" d="M1353.506,1321.035c-32.99,47.755,76.987,81.377,147.721,66.402
						C1501.227,1387.437,1397.358,1257.552,1353.506,1321.035z M1401.85,1344.11c27.606-39.963,92.995,41.796,92.995,41.796
						C1450.312,1395.333,1381.088,1374.169,1401.85,1344.11z"/>
					<g>
						<path style="fill:#95D8F6;" d="M1593.22,1299.046c0,0,9.428,3.69,5.99,22.245c-3.439,18.555-77.24,67.788-77.24,67.788
							l-23.068-5.554c0,0-8.969-83.056,38.933-92.007C1570.957,1296.26,1593.22,1299.046,1593.22,1299.046z"/>
						<path style="fill:#D9F0FC;" d="M1492.071,1388.17c-0.036-3.749-22.127-86.39,17.067-98.989
							c44.865,2.708,84.082,9.865,84.082,9.865s-54.579,7.549-71.25,90.034C1489.611,1399.096,1492.071,1388.17,1492.071,1388.17z"
							/>
					</g>
					<path style="fill:#D9F0FC;" d="M1511.095,1386.952c79.527,15.266,201.964-24.72,164.005-77.495
						C1624.644,1239.302,1511.095,1386.952,1511.095,1386.952z M1518.208,1385.102c0,0,71.484-92.942,103.247-48.778
						C1645.344,1369.543,1568.277,1394.713,1518.208,1385.102z"/>
					<g>
						<polygon style="fill:#D9F0FC;" points="1524.188,1393.085 1463.965,1393.656 1459.421,1361.794 1528.127,1361.143 						"/>
						<path style="fill:#95D8F6;" d="M1501.002,1387.384c-8.414,1.152-17.006,1.664-25.502,0.556
							c-3.897-0.508-7.729-1.613-11.522-3.056c-0.449-0.171-0.893-0.359-1.34-0.538l1.328,9.31l60.223-0.571l1.294-10.491
							C1517.267,1384.573,1509.109,1386.275,1501.002,1387.384z"/>
					</g>
				</g>
			</g>
			<path style="fill:#D9F0FC;" d="M1523.939,1394.082c29.435,11.436,100.812,67.347,106.475,160.227l-22.092-22.916l-14.836,25.873
				c0.01-1.676,3.8-108.724-99.491-162.516c0.234-0.166-6.109,0.108-5.879-0.052L1523.939,1394.082z"/>
			<path style="fill:#D9F0FC;" d="M1460.436,1390.755c-30.688,12.471-108.672,82.63-126.061,213.473l24.848-29.662l11.461,38.526
				c0.202-2.375,9.995-154.484,119.413-217.599c-0.211-0.264,6.055,0.927,5.846,0.671L1460.436,1390.755z"/>
		</g>
		<g>
			<g>
				<g>
					<polygon style="fill:#F9C658;" points="2030.469,1717.6 2031.552,1697.648 2033.589,1659.689 2041.299,1516.073 
						1687.88,1517.183 1699.857,1717.6 					"/>
					<polygon style="fill:#F9C658;" points="2054.877,1474.905 2051.015,1542.385 1915.17,1542.828 1915.139,1542.828 
						1871.008,1542.974 1870.977,1542.975 1677.053,1543.585 1672.735,1476.14 1726.439,1475.964 1773.676,1475.82 
						1979.773,1475.158 2024.252,1475.005 					"/>
					<polygon style="fill:#D5AA4B;" points="1689.449,1543.548 1689.758,1548.716 2039.594,1547.598 2039.871,1542.427 					"/>
					<path style="fill:#F9E0A9;" d="M1754.602,1662.021c0.267,13.458-10.427,24.584-23.885,24.851
						c-13.458,0.267-24.584-10.427-24.851-23.885c-0.267-13.458,10.427-24.584,23.885-24.851
						C1743.208,1637.87,1754.335,1648.563,1754.602,1662.021z"/>
					
						<ellipse transform="matrix(0.693 -0.721 0.721 0.693 -585.8426 1894.5673)" style="fill:#F9E0A9;" cx="1931.403" cy="1635.094" rx="24.373" ry="24.373"/>
					<path style="fill:#F9E0A9;" d="M2033.589,1659.689l-2.037,37.959c-3.877,2.771-8.6,4.45-13.733,4.552
						c-13.469,0.267-24.588-10.419-24.855-23.888c-0.266-13.437,10.42-24.555,23.889-24.822
						C2023.255,1653.362,2029.166,1655.718,2033.589,1659.689z"/>
					<path style="fill:#F9E0A9;" d="M1800.329,1717.6c-4.546-6.036-11.828-9.871-19.959-9.71c-7.804,0.155-14.657,3.943-19.003,9.71
						H1800.329z"/>
					
						<ellipse transform="matrix(0.1594 -0.9872 0.9872 0.1594 -2.066 3171.1262)" style="fill:#F9E0A9;" cx="1861.136" cy="1586.776" rx="24.373" ry="24.373"/>
					<path style="fill:#F9E0A9;" d="M1774.452,1481.416c0.267,13.469-10.45,24.588-23.888,24.854
						c-13.469,0.267-24.587-10.419-24.854-23.888c-0.044-2.218,0.198-4.379,0.729-6.419l47.236-0.144
						C1774.156,1477.617,1774.414,1479.482,1774.452,1481.416z"/>
					<path style="fill:#F9E0A9;" d="M1917.399,1532.13c0.075,3.804-0.74,7.434-2.229,10.697l-0.031,0.001l-44.13,0.146l-0.032,0.001
						c-1.391-3.016-2.218-6.36-2.288-9.879c-0.267-13.469,10.419-24.587,23.856-24.853
						C1906.014,1507.975,1917.132,1518.661,1917.399,1532.13z"/>
					<path style="fill:#F9E0A9;" d="M2026.407,1484.569c0.266,13.437-10.42,24.555-23.889,24.823
						c-13.469,0.267-24.587-10.419-24.854-23.856c-0.073-3.677,0.681-7.21,2.109-10.377l44.478-0.153
						C2025.578,1477.927,2026.34,1481.146,2026.407,1484.569z"/>
					
						<ellipse transform="matrix(0.6966 -0.7175 0.7175 0.6966 -637.5181 1830.1664)" style="fill:#F9E0A9;" cx="1845.077" cy="1668.831" rx="24.373" ry="24.373"/>
					<path style="fill:#F9E0A9;" d="M1961.821,1717.6c0.216-1.382,0.321-2.799,0.292-4.245
						c-0.267-13.469-11.386-24.155-24.855-23.888c-13.469,0.267-24.155,11.386-23.888,24.855c0.022,1.112,0.125,2.206,0.29,3.279
						H1961.821z"/>
					
						<ellipse transform="matrix(0.693 -0.721 0.721 0.693 -524.382 1924.4246)" style="fill:#F9E0A9;" cx="1997.187" cy="1577.865" rx="24.373" ry="24.373"/>
					
						<ellipse transform="matrix(0.6832 -0.7302 0.7302 0.6832 -601.408 1786.5873)" style="fill:#F9E0A9;" cx="1758.361" cy="1586.424" rx="24.373" ry="24.373"/>
				</g>
				<polygon style="fill:#F15247;" points="1881.222,1717.6 1880.451,1475.532 1839.436,1475.663 1840.206,1717.6 				"/>
				<g>
					<path style="fill:#F15247;" d="M1855.315,1470.555c60.359,11.981,153.591-17.819,125-58.105
						C1942.309,1358.897,1855.315,1470.555,1855.315,1470.555z M1860.729,1469.183c0,0,54.767-70.285,78.692-36.573
						C1957.414,1457.967,1898.731,1476.726,1860.729,1469.183z"/>
					<g>
						<path style="fill:#F15247;" d="M1863.115,1471.08c-0.01-3.19,17.898-73.76-15.593-84.06
							c-38.153,2.789-71.45,9.303-71.45,9.303s46.531,5.836,61.608,75.853C1865.327,1480.352,1863.115,1471.08,1863.115,1471.08z"/>
					</g>
					<path style="fill:#F15247;" d="M1706.501,1406.068c-31.735,45.324,72.895,78.031,140.411,64.181
						C1846.912,1470.249,1748.683,1345.818,1706.501,1406.068z M1752.445,1428.354c26.555-37.928,88.394,40.398,88.394,40.398
						C1798.331,1477.471,1732.473,1456.882,1752.445,1428.354z"/>
					<g>
						<polygon style="fill:#F15247;" points="1835.835,1475.609 1887.093,1475.446 1890.617,1448.281 1832.138,1448.468 						"/>
					</g>
				</g>
			</g>
			<path style="fill:#F15247;" d="M1888.947,1475.784c25.174,9.414,86.522,56.227,92.344,135.21l-19.049-19.264l-12.347,22.179
				c-0.009-1.426,2.06-92.57-86.425-137.233c0.197-0.143-5.198,0.158-5.004,0.019L1888.947,1475.784z"/>
			<path style="fill:#F15247;" d="M1834.867,1473.639c-25.982,10.944-91.593,71.494-104.979,183.034l20.827-25.512l10.17,32.664
				c0.593-8.207-3.919-125.191,99.276-186.474c-0.183-0.222,5.163,0.723,4.983,0.508L1834.867,1473.639z"/>
		</g>
		<g>
			<rect x="1489.543" y="1564.988" style="fill:#F15247;" width="245.571" height="152.612"/>
			<polygon style="fill:#FF7E75;" points="1703.934,1717.6 1735.114,1679.3 1735.114,1632.917 1666.17,1717.6 			"/>
			<polygon style="fill:#FF7E75;" points="1628.921,1717.6 1735.114,1587.169 1735.114,1564.988 1715.413,1564.988 1591.157,1717.6 
							"/>
			<polygon style="fill:#FF7E75;" points="1553.912,1717.6 1678.163,1564.988 1640.399,1564.988 1516.143,1717.6 			"/>
			<polygon style="fill:#FF7E75;" points="1489.543,1704.529 1489.543,1658.141 1565.385,1564.988 1603.149,1564.988 			"/>
			<polygon style="fill:#FF7E75;" points="1489.543,1612.392 1489.543,1566.004 1490.371,1564.988 1528.141,1564.988 			"/>
			
				<rect x="1600.507" y="1524.042" transform="matrix(6.123234e-17 -1 1 6.123234e-17 -34.4985 3259.1587)" style="fill:#D9F0FC;" width="23.646" height="245.574"/>
			<rect x="1661.277" y="1564.99" style="fill:#D9F0FC;" width="23.646" height="152.61"/>
			<g>
				<g>
					<path style="fill:#F9C658;" d="M1675.598,1646.09c0,0-37.285-50.618-50.435-33.465c-1.737,3.323-8.767,14.552-8.732,14.874
						c0,0,7.526-10.511,17.568-5.558c8.378,4.132,29.558,20.602,36.973,30.163C1672.63,1650.607,1675.598,1646.09,1675.598,1646.09z
						"/>
					<path style="fill:#F9C658;" d="M1673.788,1652.257c0,0,37.77-50.257,17.563-57.923c-3.682-0.709-16.457-4.217-16.755-4.091
						c0,0,12.23,4.189,10.371,15.23c-1.55,9.211-11.24,34.231-18.268,44.08C1668.608,1650.711,1673.788,1652.257,1673.788,1652.257z
						"/>
					<path style="fill:#F9C658;" d="M1672.071,1654.701c0,0,61.739,11.859,59.751-9.663c-0.98-3.619-3.44-16.637-3.684-16.849
						c0,0,1.609,12.827-9.127,16.007c-8.956,2.653-35.69,4.937-47.625,2.949C1671.184,1649.368,1672.071,1654.701,1672.071,1654.701
						z"/>
					<path style="fill:#F9C658;" d="M1670.854,1651.698c0,0,14.595,61.15,33.393,50.482c2.895-2.382,13.748-9.981,13.841-10.291
						c0,0-11.029,6.744-18.345-1.733c-6.103-7.071-19.185-30.497-22.284-42.193
						C1675.349,1648.695,1670.854,1651.698,1670.854,1651.698z"/>
					<path style="fill:#F9C658;" d="M1669.699,1646.435c0,0-56.35,27.874-41.757,43.817c2.968,2.29,12.797,11.173,13.12,11.195
						c0,0-9.035-9.245-2.405-18.269c5.531-7.527,25.446-25.507,36.156-31.138
						C1673.629,1650.147,1669.699,1646.435,1669.699,1646.435z"/>
					<path style="fill:#F9C658;" d="M1670.972,1652.104c0,0-69.46,3.642-54.541-24.605c1.728-3.328,8.448-14.718,8.732-14.874
						c0,0-3.063,10.298,4.973,16.067c7.588,5.447,33.377,16.801,45.462,17.397
						C1673.404,1648.642,1670.972,1652.104,1670.972,1652.104z"/>
					<path style="fill:#F9C658;" d="M1666.698,1649.553c0,0-23.446-65.485,7.897-59.31c3.683,0.699,16.524,3.864,16.755,4.091
						c0,0-10.744,0.025-13.961,9.38c-3.037,8.833-6.502,36.797-3.602,48.543C1670.713,1650.888,1666.698,1649.553,1666.698,1649.553
						z"/>
					<path style="fill:#F9C658;" d="M1671.386,1647.144c0,0,48.532-49.825,56.752-18.956c0.99,3.616,3.787,16.542,3.684,16.849
						c0,0-4.742-9.641-14.558-8.422c-9.27,1.151-35.914,10.32-45.193,18.085C1671.95,1651.337,1671.386,1647.144,1671.386,1647.144z
						"/>
					<path style="fill:#F9C658;" d="M1677.459,1647.964c0,0,65.381,23.732,40.628,43.925c-2.889,2.39-13.519,10.258-13.841,10.291
						c0,0,6.836-8.289,1.686-16.734c-4.863-7.975-24.183-28.486-35.079-33.748
						C1673.87,1650.203,1677.459,1647.964,1677.459,1647.964z"/>
					<path style="fill:#F9C658;" d="M1674.813,1652.041c0,0-8.542,69.029-33.75,49.406c-2.975-2.282-13.016-10.888-13.12-11.195
						c0,0,9.605,4.814,16.689-2.091c6.689-6.521,22.37-29.931,25.068-41.725C1671.828,1649.042,1674.813,1652.041,1674.813,1652.041
						z"/>
				</g>
			</g>
		</g>
		<g>
			<g>
				<g>
					<polygon style="fill:#F9C658;" points="1362.272,1717.6 1360.898,1643.58 1230.844,1642.683 1228.435,1717.6 					"/>
					<polygon style="fill:#F9C658;" points="1225.94,1651.55 1365.208,1652.511 1364.757,1630.144 1226.699,1629.192 					"/>
					<polygon style="fill:#C79E46;" points="1230.557,1651.582 1230.5,1653.352 1361.096,1654.253 1361.063,1652.483 					"/>
				</g>
				<polygon style="fill:#D9F0FC;" points="1303.428,1717.6 1303.137,1629.719 1288.319,1629.617 1286.814,1717.6 				"/>
			</g>
			<g>
				<path style="fill:#D9F0FC;" d="M1295.183,1628.687c19.229,3.216,48.466-7.114,39.026-19.597
					C1321.661,1592.495,1295.183,1628.687,1295.183,1628.687z M1296.885,1628.2c0,0,16.669-22.781,24.568-12.335
					C1327.394,1623.723,1308.991,1630.225,1296.885,1628.2z"/>
				<g>
					<path style="fill:#C2503E;" d="M1269.378,1605.939c0,0-2.497,1.103-1.356,6.062c1.141,4.959,21.593,17.368,21.593,17.368
						l6.15-1.763c0,0,1.454-22.478-11.554-24.335C1275.343,1604.931,1269.378,1605.939,1269.378,1605.939z"/>
					<path style="fill:#D9F0FC;" d="M1297.658,1628.779c-0.034-1.01,4.96-23.529-5.744-26.469
						c-12.055,1.249-22.537,3.63-22.537,3.63s14.791,1.402,20.237,23.43C1298.448,1631.693,1297.658,1628.779,1297.658,1628.779z"/>
				</g>
				<path style="fill:#D9F0FC;" d="M1247.441,1609.692c-9.615,14.656,23.832,24.011,45.079,18.979
					C1292.52,1628.671,1260.221,1590.208,1247.441,1609.692z M1262.203,1616.309c8.045-12.265,28.379,11.946,28.379,11.946
					C1277.205,1631.423,1256.152,1625.534,1262.203,1616.309z"/>
				<g>
					<polygon style="fill:#D9F0FC;" points="1289.063,1630.474 1305.293,1629.931 1306.149,1621.295 1287.632,1621.915 					"/>
					<path style="fill:#C2503E;" d="M1295.243,1628.67c2.28,0.213,4.6,0.252,6.876-0.145c1.044-0.182,2.063-0.524,3.069-0.956
						c0.119-0.051,0.236-0.107,0.355-0.16l-0.25,2.523l-16.23,0.543l-0.47-2.811
						C1290.829,1628.101,1293.047,1628.465,1295.243,1628.67z"/>
				</g>
			</g>
		</g>
	</g>
	<path style="fill:#F26849;" d="M1086.947,511.769c0,0-4.161-199.745,81.146-251.762s239.278-39.533,276.73,12.484
		c37.452,52.017,37.452,237.197,37.452,237.197l-43.694,4.161c0,0-11.135-198.396-27.049-214.31
		c-27.049-27.049-172.969-56.78-222.633,2.081c-56.178,66.582-49.936,210.149-49.936,210.149H1086.947z"/>
</g>
<g id="text">
	<g>
		<path style="fill:#FFFFFF;" d="M1105.841,1032.548l-35.749-3.238v18.986l32.499,2.943v25.144l-32.499-2.943v44.815l-29.591-2.68
			v-114.089l65.34,5.918V1032.548z"/>
		<path style="fill:#FFFFFF;" d="M1169.641,1013.182c8.553,0.775,19.5,3.134,27.881,12.617c6.5,7.26,9.75,17.474,9.75,26.54
			c0,9.75-3.421,17.993-9.066,22.955c-4.447,3.874-10.434,5.897-15.737,6.443l35.75,49.934l-36.776-3.331l-28.394-46.36v43.789
			l-29.591-2.68V1009L1169.641,1013.182z M1153.05,1062.823l5.645,0.511c4.447,0.403,10.776-0.222,14.368-3.318
			c2.223-2.022,3.763-5.645,3.763-9.237c0-3.421-1.368-7.308-3.934-9.935c-2.737-2.985-7.697-5.144-14.197-5.733l-5.645-0.511
			V1062.823z"/>
		<path style="fill:#FFFFFF;" d="M1260.299,1021.393v114.089l-29.591-2.68v-114.089L1260.299,1021.393z"/>
		<path style="fill:#FFFFFF;" d="M1284.245,1137.651v-114.089l38.828,3.517c11.46,1.038,30.618,4.312,45.328,19.841
			c13.342,14.037,15.907,30.69,15.907,43.006c0,15.052-3.763,28.053-14.881,38.164c-9.065,8.245-24.289,15.076-43.788,13.31
			L1284.245,1137.651z M1313.836,1115.187l5.987,0.542c7.184,0.651,17.276,0.881,24.973-5.948c3.763-3.251,8.723-9.986,8.723-22.644
			c0-10.606-3.25-19.965-8.895-25.779c-7.013-7.135-16.25-8.655-23.605-9.321l-7.184-0.651V1115.187z"/>
		<path style="fill:#FFFFFF;" d="M1466.414,1134.992l-41.393-3.749l-7.698,18.46l-31.302-2.835l43.789-110.124l32.328,2.928
			l42.933,117.977l-31.644-2.866L1466.414,1134.992z M1458.546,1111.701l-12.829-38.108l-12.486,35.816L1458.546,1111.701z"/>
		<path style="fill:#FFFFFF;" d="M1532.611,1105.409l-41.223-63.087l35.407,3.207l21.552,33.083l20.697-29.256l35.921,3.253
			l-42.591,55.496v54.736l-29.762-2.695V1105.409z"/>
	</g>
	<g>
		<polygon style="fill:#FFFFFF;" points="1653.192,1022.164 867.377,950.996 867.377,721.596 1653.192,792.764 		"/>
		<g>
			<path style="fill:#333333;" d="M939.643,910.951V767.206l55.601,5.036c10.344,0.937,22.628,3.557,31.464,14.056
				c4.957,5.837,8.836,15.024,8.836,27.739c0,6.25-1.078,11.54-4.095,17.301c-3.017,5.33-6.25,8.27-11.638,10.153
				c7.543,1.545,15.086,5.676,19.611,10.396c5.819,6.131,9.698,15.748,9.698,27.171c0,13.577-5.172,22.375-10.56,27.275
				c-7.758,7.272-21.336,11.645-39.007,10.044L939.643,910.951z M976.926,827.261l6.896,0.625
				c3.879,0.351,10.345,0.506,14.223-3.237c2.371-2.156,3.448-5.938,3.448-9.17c0-3.664-1.293-7.445-3.448-10.01
				c-2.37-2.586-6.896-4.935-14.223-5.599l-6.896-0.624V827.261z M976.926,885.234l8.405,0.761
				c10.345,0.937,18.965,0.64,23.06-3.731c1.724-1.783,3.017-4.899,3.017-8.993c0-4.526-1.509-8.326-3.664-10.676
				c-4.526-4.936-13.793-5.991-23.059-6.83l-7.759-0.703V885.234z"/>
			<path style="fill:#333333;" d="M1110.112,782.645v112.064l44.826,4.06v31.68l-82.109-7.436V779.268L1110.112,782.645z"/>
			<path style="fill:#333333;" d="M1261.829,915.993l-52.153-4.723l-9.698,23.258l-39.438-3.572l55.17-138.748l40.731,3.689
				l54.093,148.643l-39.869-3.611L1261.829,915.993z M1251.915,886.648l-16.163-48.014l-15.732,45.125L1251.915,886.648z"/>
			<path style="fill:#333333;" d="M1424.97,951.026c-14.87,4.041-23.06,5.023-32.326,4.184
				c-24.999-2.264-43.749-13.875-55.601-26.586c-14.008-15.277-21.767-35.592-21.767-54.341c0-20.474,8.836-39.07,21.767-51.044
				c12.715-11.779,31.896-19.524,54.308-17.495c6.896,0.625,18.103,2.717,33.62,10.372v44.611
				c-12.068-15.963-26.292-18.113-32.542-18.679c-10.775-0.976-18.965,1.515-25.861,7.14c-8.836,7.389-12.499,18.264-12.499,28.393
				c0,9.914,4.094,21.275,11.637,29.071c6.25,6.384,16.163,11.377,26.723,12.333c5.604,0.508,19.396,1.11,32.542-12.138V951.026z"/>
			<path style="fill:#333333;" d="M1485.959,875.949l45.688-55.127l46.119,4.177l-57.11,62.929l62.282,81.284l-48.274-4.372
				l-48.705-66.693v62.282l-37.283-3.377V813.307l37.283,3.377V875.949z"/>
		</g>
	</g>
	<g>
		<polygon style="fill:#FFFFFF;" points="1233.561,1366.637 1203.21,1391.24 1225.454,1423.366 1189.386,1438.394 
			1201.615,1475.504 1162.769,1479.737 1164.08,1518.79 1125.608,1511.962 1115.892,1549.81 1080.913,1532.4 1060.874,1565.941 
			1032.234,1539.351 1003.593,1565.941 983.553,1532.4 948.574,1549.809 938.859,1511.961 900.387,1518.789 901.697,1479.736 
			862.852,1475.502 875.081,1438.394 839.013,1423.366 861.257,1391.24 830.906,1366.637 861.257,1342.033 839.013,1309.907 
			875.081,1294.88 862.853,1257.77 901.698,1253.537 900.388,1214.484 938.86,1221.312 948.575,1183.464 983.554,1200.874 
			1003.593,1167.333 1032.234,1193.923 1060.874,1167.333 1080.914,1200.874 1115.893,1183.464 1125.609,1221.313 
			1164.081,1214.485 1162.77,1253.538 1201.615,1257.771 1189.386,1294.88 1225.454,1309.908 1203.21,1342.033 		"/>
		<g>
			<g>
				<path style="fill:#333333;" d="M951.696,1317.315h-42.669v-22.562h83.957l-58.631,102.375h-29.316L951.696,1317.315z"/>
				<path style="fill:#333333;" d="M1054.684,1317.315h-35.455l-1.842,11.358c3.837-0.614,6.907-0.767,8.288-0.767
					c13.66,0,22.255,5.218,27.013,10.13c4.605,4.605,9.363,12.433,9.363,24.251c0,12.279-4.911,20.568-9.823,25.633
					c-9.516,9.822-22.102,11.512-31.925,11.512c-15.502,0-26.246-3.992-34.534-9.209l3.991-24.865
					c5.372,4.912,10.591,7.521,12.279,8.289c4.605,2.148,10.284,3.53,15.349,3.53c5.372,0,10.283-1.842,13.353-5.065
					c2.302-2.456,3.991-6.14,3.991-10.437c0-5.372-2.609-9.056-4.911-11.051c-5.526-4.912-15.042-5.065-18.419-5.065
					c-7.214,0-13.353,1.535-18.879,4.297l8.902-55.101h53.259V1317.315z"/>
				<path style="fill:#333333;" d="M1126.976,1317.776c0,13.967-9.823,24.251-25.785,24.251c-15.963,0-25.786-10.284-25.786-24.251
					c0-13.968,9.823-24.251,25.786-24.251C1117.153,1293.525,1126.976,1303.808,1126.976,1317.776z M1114.083,1317.776
					c0-7.674-5.372-13.2-12.892-13.2c-7.521,0-12.893,5.526-12.893,13.2s5.372,13.199,12.893,13.199
					C1108.711,1330.975,1114.083,1325.45,1114.083,1317.776z M1152.378,1289.103l12.356,6.877l-60.933,105.445l-12.356-7.031
					L1152.378,1289.103z M1183.695,1374.087c0,13.967-9.823,24.251-25.786,24.251c-15.963,0-25.786-10.284-25.786-24.251
					c0-13.968,9.823-24.251,25.786-24.251C1173.871,1349.837,1183.695,1360.12,1183.695,1374.087z M1172.1,1374.412
					c0-7.674-5.372-13.2-12.893-13.2c-7.521,0-12.893,5.526-12.893,13.2c0,7.674,5.372,13.199,12.893,13.199
					C1166.729,1387.611,1172.1,1382.086,1172.1,1374.412z"/>
			</g>
			<g>
				<path style="fill:#333333;" d="M1015.168,1432.472c4.633,4.47,7.64,11.297,7.64,19.262c0,7.721-2.682,16.093-8.371,21.945
					c-6.827,6.99-15.361,8.371-22.432,8.371c-6.746,0-14.223-1.219-20.644-7.721c-3.738-3.82-7.64-10.078-7.64-18.937
					c0-9.509,3.82-16.905,8.94-21.781c6.908-6.583,15.28-8.209,22.269-8.209C1005.334,1425.4,1011.592,1429.058,1015.168,1432.472z
					 M981.52,1442.143c-3.17,3.332-4.958,7.884-4.958,12.435c0,4.958,1.869,8.859,4.389,11.379
					c3.657,3.739,8.046,4.552,11.866,4.552c3.657,0,8.128-0.569,12.11-4.633c2.926-3.007,5.039-7.721,5.039-13.329
					c0-3.495-0.731-7.884-4.307-11.378c-3.576-3.495-7.884-4.226-11.216-4.226C989.079,1436.941,984.771,1438.73,981.52,1442.143z"
					/>
				<path style="fill:#333333;" d="M1064.259,1437.185h-17.555l-1.301,10.485h16.255l-1.3,10.565h-16.255l-2.845,22.595h-12.516
					l6.746-54.211h30.072L1064.259,1437.185z"/>
				<path style="fill:#333333;" d="M1103.514,1437.185h-17.555l-1.301,10.485h16.255l-1.3,10.565h-16.255l-2.845,22.595h-12.516
					l6.746-54.211h30.072L1103.514,1437.185z"/>
			</g>
		</g>
	</g>
</g>
</svg>
