<?xml version="1.0" encoding="utf-8"?>
<!-- Generator: Adobe Illustrator 27.5.0, SVG Export Plug-In . SVG Version: 6.00 Build 0)  -->
<svg version="1.1" xmlns="http://www.w3.org/2000/svg" xmlns:xlink="http://www.w3.org/1999/xlink" x="0px" y="0px"
	 viewBox="0 0 912.34 841.89" style="enable-background:new 0 0 912.34 841.89;" xml:space="preserve">
<g id="BG">
	<g>
		<rect x="0" style="fill:#DDE8E6;" width="912.339" height="841.89"/>
	</g>
	<g>
		<rect x="0" y="382.714" style="fill:#B0D164;" width="912.34" height="221.743"/>
	</g>
	<g>
		<rect x="0" style="fill:#D4F4FC;" width="912.34" height="496.089"/>
	</g>
	<g>
		<rect x="0" y="659.214" style="fill:#587073;" width="912.339" height="100.174"/>
	</g>
	<g>
		<g>
			<rect x="45.724" y="691.319" style="fill:#F5F5F5;" width="52.32" height="5.658"/>
		</g>
		<g>
			<rect x="130.321" y="691.319" style="fill:#F5F5F5;" width="52.32" height="5.658"/>
		</g>
		<g>
			<rect x="214.918" y="691.319" style="fill:#F5F5F5;" width="52.32" height="5.658"/>
		</g>
		<g>
			<rect x="299.515" y="691.319" style="fill:#F5F5F5;" width="52.32" height="5.658"/>
		</g>
		<g>
			<rect x="384.112" y="691.319" style="fill:#F5F5F5;" width="52.32" height="5.658"/>
		</g>
		<g>
			<rect x="468.709" y="691.319" style="fill:#F5F5F5;" width="52.32" height="5.658"/>
		</g>
		<g>
			<rect x="553.306" y="691.319" style="fill:#F5F5F5;" width="52.32" height="5.658"/>
		</g>
		<g>
			<rect x="637.903" y="691.319" style="fill:#F5F5F5;" width="52.32" height="5.658"/>
		</g>
		<g>
			<rect x="722.5" y="691.319" style="fill:#F5F5F5;" width="52.32" height="5.658"/>
		</g>
		<g>
			<rect x="807.097" y="691.319" style="fill:#F5F5F5;" width="52.32" height="5.658"/>
		</g>
	</g>
</g>
<g id="Graphics">
	<g>
		<path style="fill:#FFFFFF;" d="M281.61,343.822c4.27-0.014,8.528-1.65,11.787-4.909c6.547-6.546,6.547-17.162,0-23.709
			c-4.195-4.194-10.059-5.688-15.454-4.507c-1.331-11.148-10.813-19.794-22.321-19.794c-9.988,0-18.45,6.514-21.382,15.523
			c-1.432-0.457-2.955-0.71-4.537-0.71c-7.811,0-14.205,6.024-14.817,13.68c-3.714-1.729-8.265-0.885-11.084,2.36
			c-1.551,1.786-2.302,3.989-2.3,6.182c-4.33,0.068-7.82,3.594-7.82,7.94c0,4.389,3.557,7.945,7.945,7.945
			C224.92,343.822,272.723,343.822,281.61,343.822z"/>
	</g>
	<g>
		<path style="fill:#FFFFFF;" d="M912.34,185.428c-1.884-0.4-3.836-0.618-5.84-0.618c-12.422,0-22.946,8.101-26.593,19.305
			c-1.78-0.568-3.675-0.883-5.643-0.883c-9.715,0-17.666,7.493-18.428,17.014c-4.62-2.149-10.28-1.101-13.786,2.936
			c-1.929,2.222-2.862,4.962-2.86,7.689c-5.386,0.085-9.727,4.47-9.727,9.875c0,5.457,4.423,9.882,9.881,9.882
			c18.704,0,50.108,0,72.996,0V185.428z"/>
	</g>
	<g>
		<path style="fill:#FDD57F;" d="M427.703,235.3c0,39.591-32.095,71.688-71.687,71.688c-39.59,0-71.686-32.097-71.686-71.688
			c0-39.592,32.096-71.687,71.686-71.687C395.608,163.613,427.703,195.708,427.703,235.3z"/>
	</g>
	<g>
		<path style="fill:#FFFFFF;" d="M453.929,239.952c-2.9,0-5.641,0.659-8.107,1.806c-2.107-10.558-11.425-18.516-22.604-18.516
			c-11.445,0-20.938,8.345-22.739,19.281c-0.938-0.257-1.922-0.406-2.942-0.406c-6.15,0-11.139,4.988-11.139,11.14
			c0,0.193,0.02,0.383,0.029,0.576c-0.517-0.066-1.041-0.112-1.576-0.112c-6.837,0-12.376,5.542-12.376,12.377
			c0,6.835,5.54,12.378,12.376,12.378c6.835,0,60.69,0,69.079,0c10.638,0,19.261-8.626,19.261-19.263
			C473.19,248.575,464.567,239.952,453.929,239.952z"/>
	</g>
	<g>
		<path style="fill:#FFFFFF;" d="M57.725,266.549c-2.514,0-4.889,0.572-7.027,1.565c-1.826-9.151-9.902-16.049-19.592-16.049
			c-9.921,0-18.149,7.233-19.71,16.712c-0.813-0.222-1.666-0.352-2.55-0.352c-3.957,0-7.355,2.384-8.845,5.792v25.722
			c10.958,0,51.032,0,57.725,0c9.221,0,16.695-7.476,16.695-16.696C74.419,274.023,66.945,266.549,57.725,266.549z"/>
	</g>
	<g>
		<path style="fill:#FFFFFF;" d="M715.406,287.272c2.188,0,4.254,0.497,6.114,1.361c1.589-7.961,8.616-13.963,17.047-13.963
			c8.631,0,15.79,6.292,17.148,14.54c0.707-0.193,1.45-0.306,2.219-0.306c4.639,0,8.401,3.762,8.401,8.4
			c0,0.147-0.015,0.29-0.022,0.435c0.39-0.05,0.785-0.085,1.188-0.085c5.156,0,9.334,4.18,9.334,9.334
			c0,5.155-4.178,9.335-9.334,9.335c-5.155,0-45.769,0-52.096,0c-8.023,0-14.525-6.505-14.525-14.526
			C700.881,293.775,707.384,287.272,715.406,287.272z"/>
	</g>
	<g>
		<g>
			<rect x="17.673" y="477.07" style="fill:#8ACDDD;" width="101.194" height="68.378"/>
		</g>
		<g>
			<rect x="39.505" y="469.77" style="fill:#8ACDDD;" width="34.156" height="68.378"/>
		</g>
		<g>
			<rect x="814.132" y="466.493" style="fill:#8ACDDD;" width="83.54" height="91.298"/>
		</g>
		<g>
			<rect x="816.263" y="454.234" style="fill:#8ACDDD;" width="47.685" height="91.298"/>
		</g>
		<g>
			<rect x="832.035" y="449.6" style="fill:#8ACDDD;" width="21.124" height="22.887"/>
		</g>
		<g>
			<rect x="221.643" y="409.714" style="fill:#8ACDDD;" width="87.825" height="150.351"/>
		</g>
		<g>
			<rect x="282.472" y="489.408" style="fill:#8ACDDD;" width="108.561" height="70.656"/>
		</g>
		<g>
			<rect x="411.576" y="451.839" style="fill:#8ACDDD;" width="108.561" height="108.226"/>
		</g>
		<g>
			<rect x="547.493" y="490.207" style="fill:#8ACDDD;" width="108.562" height="69.857"/>
		</g>
		<g>
			<g>
				<rect x="350.869" y="395.529" style="fill:#6EB4C7;" width="100.645" height="161.986"/>
			</g>
			<g>
				<g>
					<rect x="421.021" y="531.524" style="fill:#629FAC;" width="9.369" height="12.95"/>
				</g>
			</g>
			<g>
				<g>
					<rect x="436.452" y="531.433" style="fill:#629FAC;" width="9.369" height="12.949"/>
				</g>
			</g>
			<g>
				<rect x="381.798" y="552.831" style="fill:#C7CBD1;" width="37.476" height="4.96"/>
			</g>
			<g>
				<rect x="383.452" y="516" style="fill:#6EB4C7;" width="34.444" height="36.924"/>
			</g>
			<g>
				<polygon style="fill:#8ACDDD;" points="451.514,414.31 451.514,395.574 451.514,395.574 451.514,395.529 350.869,395.529 
					350.869,414.141 352.292,414.141 352.292,413.06 355.875,413.06 355.875,414.141 358.722,414.141 358.722,413.06 
					361.938,413.06 361.938,414.141 364.785,414.141 364.785,413.06 368.367,413.06 368.367,414.226 371.214,414.226 
					371.214,413.06 374.796,413.06 374.796,414.141 377.645,414.141 377.645,413.06 381.043,413.06 381.043,414.141 
					381.043,414.141 381.043,414.31 383.891,414.31 383.891,414.141 383.891,413.06 387.473,413.06 387.473,414.31 390.32,414.31 
					390.32,413.06 393.535,413.06 393.535,414.31 396.382,414.31 396.382,413.06 399.965,413.06 399.965,414.396 402.813,414.396 
					402.813,413.06 406.395,413.06 406.395,414.31 409.243,414.31 409.243,413.06 412.642,413.06 412.642,414.31 415.488,414.31 
					415.488,413.06 418.707,413.06 418.704,414.31 421.551,414.31 421.551,413.06 425.133,413.06 425.133,414.31 427.981,414.31 
					427.981,413.06 431.196,413.06 431.196,414.31 434.043,414.31 434.043,413.06 437.625,413.06 437.625,414.396 440.473,414.396 
					440.473,413.06 444.056,413.06 444.056,414.31 446.903,414.31 446.903,413.06 450.301,413.06 450.301,414.31 				"/>
			</g>
			<g>
				<rect x="355.989" y="419.19" style="fill:#629FAC;" width="88.46" height="6.95"/>
			</g>
			<g>
				<rect x="355.989" y="435.291" style="fill:#629FAC;" width="88.46" height="6.949"/>
			</g>
			<g>
				<rect x="355.989" y="451.391" style="fill:#629FAC;" width="88.46" height="6.95"/>
			</g>
			<g>
				<rect x="355.989" y="467.49" style="fill:#629FAC;" width="88.46" height="6.95"/>
			</g>
			<g>
				<rect x="355.989" y="483.591" style="fill:#629FAC;" width="88.46" height="6.95"/>
			</g>
			<g>
				<rect x="355.989" y="499.69" style="fill:#629FAC;" width="88.46" height="6.95"/>
			</g>
			<g>
				<path style="fill:#8D909E;" d="M453.639,557.841H418v-10.104h32.713c1.617,0,2.927,1.31,2.927,2.927V557.841z"/>
			</g>
			<g>
				<path style="fill:#629FAC;" d="M383.523,557.841h-35.64v-7.177c0-1.617,1.31-2.927,2.927-2.927h32.713V557.841z"/>
			</g>
			<g>
				<g>
					<path style="fill:#6EB4C7;" d="M371.766,408.976h-7.348v-7.35c0-2.029,1.645-3.674,3.674-3.674
						c2.029,0,3.674,1.645,3.674,3.674V408.976z"/>
				</g>
			</g>
			<g>
				<g>
					<path style="fill:#6EB4C7;" d="M393.627,408.976h-7.348v-7.35c0-2.029,1.646-3.674,3.674-3.674
						c2.029,0,3.674,1.645,3.674,3.674V408.976z"/>
				</g>
			</g>
			<g>
				<g>
					<path style="fill:#6EB4C7;" d="M416.407,408.79h-7.348v-7.347c0-2.029,1.645-3.675,3.674-3.675
						c2.029,0,3.673,1.646,3.673,3.675V408.79z"/>
				</g>
			</g>
			<g>
				<g>
					<path style="fill:#6EB4C7;" d="M438.636,408.79h-7.348v-7.347c0-2.029,1.645-3.675,3.674-3.675
						c2.029,0,3.674,1.646,3.674,3.675V408.79z"/>
				</g>
			</g>
			<g>
				<rect x="343.981" y="376.186" style="fill:#629FAC;" width="113.082" height="12.804"/>
			</g>
			<g>
				<g>
					<g>
						<path style="fill:#629FAC;" d="M374.2,379.478h-1.174v-23.557c0-0.322,0.262-0.587,0.587-0.587
							c0.324,0,0.587,0.265,0.587,0.587V379.478z"/>
					</g>
				</g>
				<g>
					<g>
						<path style="fill:#629FAC;" d="M380.991,365.692h-14.458c-2.013,0-3.65-1.637-3.65-3.651c0-2.013,1.638-3.652,3.65-3.652
							h14.458c2.013,0,3.651,1.64,3.651,3.652C384.642,364.056,383.004,365.692,380.991,365.692z M366.533,359.433
							c-1.437,0-2.608,1.17-2.608,2.608c0,1.439,1.171,2.608,2.608,2.608h14.458c1.438,0,2.608-1.17,2.608-2.608
							c0-1.438-1.17-2.608-2.608-2.608H366.533z"/>
					</g>
				</g>
				<g>
					<g>
						<path style="fill:#629FAC;" d="M378.287,371.655h-9.294c-1.397,0-2.533-1.138-2.533-2.535c0-1.397,1.136-2.534,2.533-2.534
							h9.294c1.397,0,2.533,1.137,2.533,2.534C380.82,370.518,379.684,371.655,378.287,371.655z M368.993,367.631
							c-0.821,0-1.49,0.668-1.49,1.489c0,0.822,0.669,1.491,1.49,1.491h9.294c0.822,0,1.49-0.669,1.49-1.491
							c0-0.821-0.669-1.489-1.49-1.489H368.993z"/>
					</g>
				</g>
			</g>
			<g>
				<path style="fill:#6BAFBF;" d="M455.518,388.909H345.77v2.764c0,0.54,0.438,0.977,0.976,0.977h1.463v2.683
					c0,0.539,0.436,0.976,0.975,0.976h103.733c0.539,0,0.976-0.436,0.976-0.976v-2.683h0.651c0.538,0,0.975-0.437,0.975-0.977
					V388.909z"/>
			</g>
			<g>
				<rect x="419.491" y="369.871" style="fill:#629FAC;" width="4.39" height="9.146"/>
			</g>
			<g>
				<rect x="430.741" y="366.58" style="fill:#629FAC;" width="3.84" height="10.974"/>
			</g>
			<g>
				<path style="fill:#6EB4C7;" d="M392.434,528.864c-3.559,0.106-6.411,3.022-6.411,6.607v17.359h6.411V528.864z"/>
			</g>
			<g>
				<path style="fill:#9CAABB;" d="M417.879,557.759H383.49v-1.097c0-0.675,0.546-1.22,1.22-1.22h31.949
					c0.673,0,1.22,0.545,1.22,1.22V557.759z"/>
			</g>
			<g>
				<path style="fill:#629FAC;" d="M471.572,561.256c0,2.075-1.683,3.757-3.756,3.757H332.002c-2.075,0-3.756-1.682-3.756-3.757
					s1.682-3.755,3.756-3.755h135.813C469.89,557.501,471.572,559.181,471.572,561.256z"/>
			</g>
		</g>
		<g>
			<g>
				<g>
					<rect x="489.305" y="548.912" style="fill:#7E5244;" width="63.364" height="7.707"/>
				</g>
				<g>
					<rect x="482.39" y="295.887" style="fill:#736F6D;" width="3.21" height="20.978"/>
				</g>
				<g>
					<rect x="520.018" y="325.428" style="fill:#50565C;" width="28.257" height="223.484"/>
				</g>
				<g>
					<rect x="476.931" y="325.428" style="fill:#838FA0;" width="55.657" height="223.484"/>
				</g>
				<g>
					<rect x="504.331" y="325.428" style="fill:#616E7D;" width="28.258" height="223.484"/>
				</g>
				<g>
					<rect x="473.078" y="548.912" style="fill:#736F6D;" width="63.364" height="7.707"/>
				</g>
				<g>
					<rect x="473.078" y="548.912" style="fill:#8B5643;" width="63.364" height="7.707"/>
				</g>
				<g>
					<rect x="516.32" y="332.278" style="fill:#838FA0;" width="8.133" height="17.554"/>
				</g>
				<g>
					<rect x="484.208" y="332.278" style="fill:#616E7D;" width="8.135" height="17.554"/>
				</g>
				<g>
					<rect x="516.32" y="357.539" style="fill:#838FA0;" width="8.133" height="17.553"/>
				</g>
				<g>
					<rect x="484.208" y="357.539" style="fill:#616E7D;" width="8.135" height="17.553"/>
				</g>
				<g>
					<rect x="516.32" y="381.514" style="fill:#838FA0;" width="8.133" height="17.555"/>
				</g>
				<g>
					<rect x="484.208" y="381.514" style="fill:#616E7D;" width="8.135" height="17.555"/>
				</g>
				<g>
					<rect x="516.32" y="405.06" style="fill:#838FA0;" width="8.133" height="17.556"/>
				</g>
				<g>
					<rect x="484.208" y="405.06" style="fill:#616E7D;" width="8.135" height="17.556"/>
				</g>
				<g>
					<rect x="516.32" y="430.321" style="fill:#838FA0;" width="8.133" height="17.553"/>
				</g>
				<g>
					<rect x="484.208" y="430.321" style="fill:#616E7D;" width="8.135" height="17.553"/>
				</g>
				<g>
					<rect x="516.32" y="455.151" style="fill:#838FA0;" width="8.133" height="17.555"/>
				</g>
				<g>
					<rect x="484.208" y="455.151" style="fill:#616E7D;" width="8.135" height="17.555"/>
				</g>
				<g>
					<rect x="516.32" y="479.126" style="fill:#838FA0;" width="8.133" height="17.555"/>
				</g>
				<g>
					<rect x="484.208" y="479.126" style="fill:#616E7D;" width="8.135" height="17.555"/>
				</g>
				<g>
					<rect x="516.32" y="503.959" style="fill:#838FA0;" width="8.133" height="17.554"/>
				</g>
				<g>
					<rect x="535.792" y="332.278" style="fill:#69727B;" width="8.135" height="17.554"/>
				</g>
				<g>
					<rect x="535.792" y="357.539" style="fill:#69727B;" width="8.135" height="17.553"/>
				</g>
				<g>
					<rect x="535.792" y="381.514" style="fill:#69727B;" width="8.135" height="17.555"/>
				</g>
				<g>
					<rect x="535.792" y="405.06" style="fill:#69727B;" width="8.135" height="17.556"/>
				</g>
				<g>
					<rect x="535.792" y="429.779" style="fill:#69727B;" width="8.135" height="17.554"/>
				</g>
				<g>
					<rect x="535.792" y="455.151" style="fill:#69727B;" width="8.135" height="17.555"/>
				</g>
				<g>
					<rect x="535.792" y="479.126" style="fill:#69727B;" width="8.135" height="17.555"/>
				</g>
				<g>
					<rect x="535.792" y="503.959" style="fill:#69727B;" width="8.135" height="17.554"/>
				</g>
				<g>
					<rect x="484.208" y="503.959" style="fill:#616E7D;" width="8.135" height="17.554"/>
				</g>
				<g>
					<path style="fill:#626059;" d="M534.568,323.607c0,1.183-0.958,2.142-2.14,2.142h-55.677c-1.182,0-2.142-0.959-2.142-2.142
						v-2.996h59.958V323.607z"/>
				</g>
				<g>
					<path style="fill:#8C5A4A;" d="M550.796,323.607c0,1.183-0.959,2.142-2.141,2.142h-55.677c-1.183,0-2.141-0.959-2.141-2.142
						v-2.996h59.958V323.607z"/>
				</g>
				<g>
					<path style="fill:#7D5244;" d="M554.81,318.579c0,1.182-0.958,2.139-2.14,2.139h-63.364c-1.183,0-2.141-0.957-2.141-2.139
						v-0.856c0-1.185,0.958-2.143,2.141-2.143h63.364c1.182,0,2.14,0.958,2.14,2.143V318.579z"/>
				</g>
				<g>
					<rect x="485.208" y="529.077" style="fill:#8D675A;" width="38.675" height="19.835"/>
				</g>
				<g>
					<path style="fill:#9ED1EC;" d="M487.206,297.279c0,1.831-1.486,3.315-3.317,3.315c-1.833,0-3.319-1.484-3.319-3.315
						c0-1.834,1.486-3.318,3.319-3.318C485.72,293.961,487.206,295.445,487.206,297.279z"/>
				</g>
				<g>
					<path style="fill:#838FA0;" d="M517.175,536.711c0-2.6-2.109-4.71-4.709-4.71h-16.697c-2.602,0-4.71,2.109-4.71,4.71v12.095
						h26.116V536.711z"/>
				</g>
				<g>
					<path style="fill:#9CAABB;" d="M504.545,532.001h-8.776c-2.602,0-4.71,2.109-4.71,4.71v12.095h13.486V532.001z"/>
				</g>
				<g>
					<path style="fill:#9CAABB;" d="M525.952,551.482h-42.599v-1.748c0-0.473,0.383-0.857,0.856-0.857h40.887
						c0.473,0,0.856,0.385,0.856,0.857V551.482z"/>
				</g>
				<g>
					<path style="fill:#8A97A1;" d="M527.772,554.04l-46.132,0.02l-0.001-1.713c0-0.474,0.383-0.857,0.856-0.857l44.419-0.02
						c0.473,0,0.857,0.384,0.857,0.858L527.772,554.04z"/>
				</g>
				<g>
					<path style="fill:#7F8A97;" d="M530.126,556.607l-51.055,0.019v-1.71c0-0.473,0.383-0.856,0.855-0.856l49.342-0.021
						c0.473-0.002,0.857,0.383,0.857,0.854V556.607z"/>
				</g>
				<g>
					<g>
						<rect x="473.827" y="529.968" style="fill:#9CAABB;" width="1.605" height="18.944"/>
					</g>
					<g>
						<path style="fill:#9CAABB;" d="M475.86,545.273c0-0.236-0.192-0.428-0.428-0.428h-1.605c-0.237,0-0.428,0.191-0.428,0.428
							v3.639h2.461V545.273z"/>
					</g>
				</g>
				<g>
					<g>
						<rect x="533.979" y="529.968" style="fill:#9CAABB;" width="1.606" height="18.944"/>
					</g>
					<g>
						<path style="fill:#9CAABB;" d="M536.014,545.273c0-0.236-0.192-0.428-0.428-0.428h-1.606c-0.237,0-0.429,0.191-0.429,0.428
							v3.639h2.463V545.273z"/>
					</g>
				</g>
				<g>
					<g>
						<rect x="550.207" y="529.968" style="fill:#87939F;" width="1.606" height="18.944"/>
					</g>
					<g>
						<path style="fill:#87939F;" d="M552.241,545.273c0-0.236-0.192-0.428-0.428-0.428h-1.606c-0.236,0-0.429,0.191-0.429,0.428
							v3.639h2.463V545.273z"/>
					</g>
				</g>
				<g>
					<path style="fill:#A3C8B4;" d="M511.61,527.079h-14.985V336.559c0-4.138,3.354-7.492,7.491-7.492
						c4.139,0,7.494,3.354,7.494,7.492V527.079z"/>
				</g>
				<g>
					<path style="fill:#536F8C;" d="M503.368,541.849c0,0.384-0.311,0.695-0.695,0.695c-0.384,0-0.696-0.312-0.696-0.695
						c0-0.385,0.312-0.696,0.696-0.696C503.056,541.152,503.368,541.464,503.368,541.849z"/>
				</g>
				<g>
					<path style="fill:#536F8C;" d="M507.06,541.813c0,0.385-0.31,0.695-0.695,0.695c-0.385,0-0.696-0.31-0.696-0.695
						c0-0.384,0.311-0.695,0.696-0.695C506.75,541.118,507.06,541.43,507.06,541.813z"/>
				</g>
				<g>
					<path style="fill:#C6DCCF;" d="M504.047,329.071c-4.106,0.036-7.422,3.374-7.422,7.487v190.521h7.422V329.071z"/>
				</g>
				<g>
					<g>
						<path style="fill:#749481;" d="M499.756,405.06c-0.783,0-1.418,0.636-1.418,1.419v18.189c0,0.783,0.635,1.419,1.418,1.419
							h8.509c0.783,0,1.418-0.636,1.418-1.419v-18.189c0-0.783-0.635-1.419-1.418-1.419H499.756z"/>
					</g>
					<g>
						<path style="fill:#558162;" d="M508.265,405.06h-8.509c-0.783,0-1.418,0.636-1.418,1.419v1.654h11.345v-1.654
							C509.683,405.695,509.048,405.06,508.265,405.06z"/>
					</g>
				</g>
				<g>
					<g>
						<rect x="503.332" y="329.066" style="fill:#56616A;" width="1.284" height="75.993"/>
					</g>
				</g>
				<g>
					<path style="fill:#558162;" d="M506.043,404.524c0-0.354-0.287-0.642-0.642-0.642h-2.783c-0.355,0-0.642,0.288-0.642,0.642
						c0,0.355,0.287,0.644,0.642,0.644h2.783C505.756,405.168,506.043,404.88,506.043,404.524z"/>
				</g>
				<g>
					<path style="fill:#4F6476;" d="M552.663,528.791c0,0.708-0.575,1.285-1.284,1.285H489.62c-0.708,0-1.284-0.577-1.284-1.285
						v-2.568h64.327V528.791z"/>
				</g>
				<g>
					<path style="fill:#DADEDD;" d="M574.085,561.329c0,2.719-2.205,4.923-4.924,4.923H452.494c-2.718,0-4.922-2.204-4.922-4.923
						c0-2.721,2.205-4.924,4.922-4.924h116.666C571.88,556.405,574.085,558.608,574.085,561.329z"/>
				</g>
				<g>
					<path style="fill:#9B624B;" d="M534.568,323.607c0,1.183-0.958,2.142-2.14,2.142h-55.677c-1.182,0-2.142-0.959-2.142-2.142
						v-2.996h59.958V323.607z"/>
				</g>
				<g>
					<path style="fill:#8B5643;" d="M538.581,318.579c0,1.182-0.958,2.139-2.14,2.139h-63.364c-1.182,0-2.141-0.957-2.141-2.139
						v-0.856c0-1.185,0.958-2.143,2.141-2.143h63.364c1.182,0,2.14,0.958,2.14,2.143V318.579z"/>
				</g>
				<g>
					<path style="fill:#536F8C;" d="M536.977,528.791c0,0.708-0.576,1.285-1.285,1.285h-61.758c-0.708,0-1.284-0.577-1.284-1.285
						v-2.568h64.327V528.791z"/>
				</g>
			</g>
			<g>
				<rect x="489.305" y="548.912" style="fill:#767989;" width="63.364" height="7.707"/>
			</g>
			<g>
				<rect x="482.39" y="295.887" style="fill:#6EB4C7;" width="3.21" height="20.978"/>
			</g>
			<g>
				<rect x="520.018" y="325.428" style="fill:#629FAC;" width="28.257" height="223.484"/>
			</g>
			<g>
				<rect x="476.931" y="325.428" style="fill:#6EB4C7;" width="55.657" height="223.484"/>
			</g>
			<g>
				<rect x="504.331" y="325.428" style="fill:#6BAFBF;" width="28.258" height="223.484"/>
			</g>
			<g>
				<rect x="473.078" y="548.912" style="fill:#736F6D;" width="63.364" height="7.707"/>
			</g>
			<g>
				<rect x="473.078" y="548.912" style="fill:#767989;" width="63.364" height="7.707"/>
			</g>
			<g>
				<rect x="516.32" y="332.278" style="fill:#8ACDDD;" width="8.133" height="17.554"/>
			</g>
			<g>
				<rect x="484.208" y="332.278" style="fill:#8ACDDD;" width="8.135" height="17.554"/>
			</g>
			<g>
				<rect x="516.32" y="357.539" style="fill:#8ACDDD;" width="8.133" height="17.553"/>
			</g>
			<g>
				<rect x="484.208" y="357.539" style="fill:#8ACDDD;" width="8.135" height="17.553"/>
			</g>
			<g>
				<rect x="516.32" y="381.514" style="fill:#8ACDDD;" width="8.133" height="17.555"/>
			</g>
			<g>
				<rect x="484.208" y="381.514" style="fill:#8ACDDD;" width="8.135" height="17.555"/>
			</g>
			<g>
				<rect x="516.32" y="405.06" style="fill:#8ACDDD;" width="8.133" height="17.556"/>
			</g>
			<g>
				<rect x="484.208" y="405.06" style="fill:#8ACDDD;" width="8.135" height="17.556"/>
			</g>
			<g>
				<rect x="516.32" y="430.321" style="fill:#8ACDDD;" width="8.133" height="17.553"/>
			</g>
			<g>
				<rect x="484.208" y="430.321" style="fill:#8ACDDD;" width="8.135" height="17.553"/>
			</g>
			<g>
				<rect x="516.32" y="455.151" style="fill:#8ACDDD;" width="8.133" height="17.555"/>
			</g>
			<g>
				<rect x="484.208" y="455.151" style="fill:#8ACDDD;" width="8.135" height="17.555"/>
			</g>
			<g>
				<rect x="516.32" y="479.126" style="fill:#8ACDDD;" width="8.133" height="17.555"/>
			</g>
			<g>
				<rect x="484.208" y="479.126" style="fill:#8ACDDD;" width="8.135" height="17.555"/>
			</g>
			<g>
				<rect x="516.32" y="503.959" style="fill:#8ACDDD;" width="8.133" height="17.554"/>
			</g>
			<g>
				<rect x="535.792" y="332.278" style="fill:#6EB4C7;" width="8.135" height="17.554"/>
			</g>
			<g>
				<rect x="535.792" y="357.539" style="fill:#6EB4C7;" width="8.135" height="17.553"/>
			</g>
			<g>
				<rect x="535.792" y="381.514" style="fill:#6EB4C7;" width="8.135" height="17.555"/>
			</g>
			<g>
				<rect x="535.792" y="405.06" style="fill:#6EB4C7;" width="8.135" height="17.556"/>
			</g>
			<g>
				<rect x="535.792" y="429.779" style="fill:#6EB4C7;" width="8.135" height="17.554"/>
			</g>
			<g>
				<rect x="535.792" y="455.151" style="fill:#6EB4C7;" width="8.135" height="17.555"/>
			</g>
			<g>
				<rect x="535.792" y="479.126" style="fill:#6EB4C7;" width="8.135" height="17.555"/>
			</g>
			<g>
				<rect x="535.792" y="503.959" style="fill:#6EB4C7;" width="8.135" height="17.554"/>
			</g>
			<g>
				<rect x="484.208" y="503.959" style="fill:#8ACDDD;" width="8.135" height="17.554"/>
			</g>
			<g>
				<path style="fill:#626059;" d="M534.568,323.607c0,1.183-0.958,2.142-2.14,2.142h-55.677c-1.182,0-2.142-0.959-2.142-2.142
					v-2.996h59.958V323.607z"/>
			</g>
			<g>
				<path style="fill:#629FAC;" d="M550.796,323.607c0,1.183-0.959,2.142-2.141,2.142h-55.677c-1.183,0-2.141-0.959-2.141-2.142
					v-2.996h59.958V323.607z"/>
			</g>
			<g>
				<path style="fill:#629FAC;" d="M554.81,318.579c0,1.182-0.958,2.139-2.14,2.139h-63.364c-1.183,0-2.141-0.957-2.141-2.139
					v-0.856c0-1.185,0.958-2.143,2.141-2.143h63.364c1.182,0,2.14,0.958,2.14,2.143V318.579z"/>
			</g>
			<g>
				<rect x="485.208" y="529.077" style="fill:#629FAC;" width="38.675" height="19.835"/>
			</g>
			<g>
				<path style="fill:#8ACDDD;" d="M487.206,297.279c0,1.831-1.486,3.315-3.317,3.315c-1.833,0-3.319-1.484-3.319-3.315
					c0-1.834,1.486-3.318,3.319-3.318C485.72,293.961,487.206,295.445,487.206,297.279z"/>
			</g>
			<g>
				<path style="fill:#7E98B6;" d="M517.175,536.711c0-2.6-2.109-4.71-4.709-4.71h-16.697c-2.602,0-4.71,2.109-4.71,4.71v12.095
					h26.116V536.711z"/>
			</g>
			<g>
				<path style="fill:#9CAABB;" d="M504.545,532.001h-8.776c-2.602,0-4.71,2.109-4.71,4.71v12.095h13.486V532.001z"/>
			</g>
			<g>
				<path style="fill:#9CAABB;" d="M525.952,551.482h-42.599v-1.748c0-0.473,0.383-0.857,0.856-0.857h40.887
					c0.473,0,0.856,0.385,0.856,0.857V551.482z"/>
			</g>
			<g>
				<path style="fill:#7E98B6;" d="M527.772,554.04l-46.132,0.02l-0.001-1.713c0-0.474,0.383-0.857,0.856-0.857l44.419-0.02
					c0.473,0,0.857,0.384,0.857,0.858L527.772,554.04z"/>
			</g>
			<g>
				<path style="fill:#718AA5;" d="M530.126,556.607l-51.055,0.019v-1.71c0-0.473,0.383-0.856,0.855-0.856l49.342-0.021
					c0.473-0.002,0.857,0.383,0.857,0.854V556.607z"/>
			</g>
			<g>
				<g>
					<rect x="473.827" y="529.968" style="fill:#629FAC;" width="1.605" height="18.944"/>
				</g>
				<g>
					<path style="fill:#9CAABB;" d="M475.86,545.273c0-0.236-0.192-0.428-0.428-0.428h-1.605c-0.237,0-0.428,0.191-0.428,0.428
						v3.639h2.461V545.273z"/>
				</g>
			</g>
			<g>
				<g>
					<rect x="533.979" y="529.968" style="fill:#9CAABB;" width="1.606" height="18.944"/>
				</g>
				<g>
					<path style="fill:#9CAABB;" d="M536.014,545.273c0-0.236-0.192-0.428-0.428-0.428h-1.606c-0.237,0-0.429,0.191-0.429,0.428
						v3.639h2.463V545.273z"/>
				</g>
			</g>
			<g>
				<g>
					<rect x="550.207" y="529.968" style="fill:#629FAC;" width="1.606" height="18.944"/>
				</g>
				<g>
					<path style="fill:#87939F;" d="M552.241,545.273c0-0.236-0.192-0.428-0.428-0.428h-1.606c-0.236,0-0.429,0.191-0.429,0.428
						v3.639h2.463V545.273z"/>
				</g>
			</g>
			<g>
				<path style="fill:#8ACDDD;" d="M511.61,527.079h-14.985V336.559c0-4.138,3.354-7.492,7.491-7.492
					c4.139,0,7.494,3.354,7.494,7.492V527.079z"/>
			</g>
			<g>
				<path style="fill:#767989;" d="M503.368,541.849c0,0.384-0.311,0.695-0.695,0.695c-0.384,0-0.696-0.312-0.696-0.695
					c0-0.385,0.312-0.696,0.696-0.696C503.056,541.152,503.368,541.464,503.368,541.849z"/>
			</g>
			<g>
				<path style="fill:#767989;" d="M507.06,541.813c0,0.385-0.31,0.695-0.695,0.695c-0.385,0-0.696-0.31-0.696-0.695
					c0-0.384,0.311-0.695,0.696-0.695C506.75,541.118,507.06,541.43,507.06,541.813z"/>
			</g>
			<g>
				<path style="fill:#8ACDDD;" d="M504.047,329.071c-4.106,0.036-7.422,3.374-7.422,7.487v190.521h7.422V329.071z"/>
			</g>
			<g>
				<g>
					<path style="fill:#6EB4C7;" d="M499.756,405.06c-0.783,0-1.418,0.636-1.418,1.419v18.189c0,0.783,0.635,1.419,1.418,1.419
						h8.509c0.783,0,1.418-0.636,1.418-1.419v-18.189c0-0.783-0.635-1.419-1.418-1.419H499.756z"/>
				</g>
				<g>
					<path style="fill:#629FAC;" d="M508.265,405.06h-8.509c-0.783,0-1.418,0.636-1.418,1.419v1.654h11.345v-1.654
						C509.683,405.695,509.048,405.06,508.265,405.06z"/>
				</g>
			</g>
			<g>
				<g>
					<rect x="503.332" y="329.066" style="fill:#629FAC;" width="1.284" height="75.993"/>
				</g>
			</g>
			<g>
				<path style="fill:#629FAC;" d="M506.043,404.524c0-0.354-0.287-0.642-0.642-0.642h-2.783c-0.355,0-0.642,0.288-0.642,0.642
					c0,0.355,0.287,0.644,0.642,0.644h2.783C505.756,405.168,506.043,404.88,506.043,404.524z"/>
			</g>
			<g>
				<path style="fill:#629FAC;" d="M552.663,528.791c0,0.708-0.575,1.285-1.284,1.285H489.62c-0.708,0-1.284-0.577-1.284-1.285
					v-2.568h64.327V528.791z"/>
			</g>
			<g>
				<path style="fill:#EDEDED;" d="M574.085,561.329c0,2.719-2.205,4.923-4.924,4.923H452.494c-2.718,0-4.922-2.204-4.922-4.923
					c0-2.721,2.205-4.924,4.922-4.924h116.666C571.88,556.405,574.085,558.608,574.085,561.329z"/>
			</g>
			<g>
				<path style="fill:#6BAFBF;" d="M534.568,323.607c0,1.183-0.958,2.142-2.14,2.142h-55.677c-1.182,0-2.142-0.959-2.142-2.142
					v-2.996h59.958V323.607z"/>
			</g>
			<g>
				<path style="fill:#6BAFBF;" d="M538.581,318.579c0,1.182-0.958,2.139-2.14,2.139h-63.364c-1.182,0-2.141-0.957-2.141-2.139
					v-0.856c0-1.185,0.958-2.143,2.141-2.143h63.364c1.182,0,2.14,0.958,2.14,2.143V318.579z"/>
			</g>
			<g>
				<path style="fill:#8ACDDD;" d="M536.977,528.791c0,0.708-0.576,1.285-1.285,1.285h-61.758c-0.708,0-1.284-0.577-1.284-1.285
					v-2.568h64.327V528.791z"/>
			</g>
			<g>
				<path style="fill:#C6CBCB;" d="M569.161,556.405h-32.857v9.847h32.857c2.719,0,4.924-2.204,4.924-4.923
					C574.085,558.608,571.88,556.405,569.161,556.405z"/>
			</g>
		</g>
		<g>
			<g>
				<polygon style="fill:#8ACDDD;" points="177.97,540.252 130.31,540.252 130.31,313.331 177.97,341.056 				"/>
			</g>
			<g>
				<rect x="137.767" y="340.267" style="fill:#A3DBE8;" width="8.994" height="12.882"/>
			</g>
			<g>
				<rect x="137.767" y="358.806" style="fill:#A3DBE8;" width="8.994" height="12.88"/>
			</g>
			<g>
				<rect x="137.767" y="376.398" style="fill:#A3DBE8;" width="8.994" height="12.882"/>
			</g>
			<g>
				<rect x="137.767" y="393.68" style="fill:#A3DBE8;" width="8.994" height="12.882"/>
			</g>
			<g>
				<rect x="137.767" y="412.217" style="fill:#A3DBE8;" width="8.994" height="12.882"/>
			</g>
			<g>
				<rect x="137.767" y="430.44" style="fill:#A3DBE8;" width="8.994" height="12.884"/>
			</g>
			<g>
				<rect x="137.767" y="448.036" style="fill:#A3DBE8;" width="8.994" height="12.881"/>
			</g>
			<g>
				<rect x="150.18" y="340.267" style="fill:#A3DBE8;" width="8.994" height="12.882"/>
			</g>
			<g>
				<rect x="150.18" y="358.806" style="fill:#A3DBE8;" width="8.994" height="12.88"/>
			</g>
			<g>
				<rect x="150.18" y="376.398" style="fill:#A3DBE8;" width="8.994" height="12.882"/>
			</g>
			<g>
				<rect x="150.18" y="393.68" style="fill:#A3DBE8;" width="8.994" height="12.882"/>
			</g>
			<g>
				<rect x="150.18" y="412.217" style="fill:#A3DBE8;" width="8.994" height="12.882"/>
			</g>
			<g>
				<rect x="150.18" y="430.44" style="fill:#A3DBE8;" width="8.994" height="12.884"/>
			</g>
			<g>
				<rect x="150.18" y="448.036" style="fill:#A3DBE8;" width="8.994" height="12.881"/>
			</g>
		</g>
		<g>
			<g>
				<rect x="105.377" y="572.67" style="fill:#6EB4C7;" width="87.774" height="16.451"/>
			</g>
			<g>
				<rect x="50.673" y="497.664" style="fill:#6EB4C7;" width="194.933" height="75.497"/>
			</g>
			<g>
				<rect x="94.44" y="468.093" style="fill:#6EB4C7;" width="109.102" height="105.166"/>
			</g>
			<g>
				<rect x="122.013" y="512.45" style="fill:#8ACDDD;" width="4.374" height="33.195"/>
			</g>
			<g>
				<rect x="146.53" y="512.352" style="fill:#8ACDDD;" width="4.375" height="33.195"/>
			</g>
			<g>
				<rect x="169.954" y="512.45" style="fill:#8ACDDD;" width="4.375" height="33.195"/>
			</g>
			<g>
				<path style="fill:#8ACDDD;" d="M127.731,512.548c0,0.648-0.488,1.175-1.093,1.175h-4.989c-0.605,0-1.095-0.526-1.095-1.175
					v-1.175h7.178V512.548z"/>
			</g>
			<g>
				<path style="fill:#8ACDDD;" d="M152.205,512.475c0,0.648-0.489,1.175-1.094,1.175h-4.989c-0.605,0-1.095-0.526-1.095-1.175
					v-1.176h7.178V512.475z"/>
			</g>
			<g>
				<path style="fill:#8ACDDD;" d="M175.788,512.548c0,0.648-0.489,1.175-1.094,1.175h-4.99c-0.605,0-1.093-0.526-1.093-1.175
					v-1.175h7.177V512.548z"/>
			</g>
			<g>
				<g>
					<path style="fill:#8ACDDD;" d="M113.899,554.459v27.613h6.293v-11.947c0-3.027,2.283-5.482,5.102-5.482
						c2.821,0,5.104,2.455,5.104,5.482v11.947h5.106v-11.947c0-3.027,2.284-5.482,5.104-5.482c2.819,0,5.103,2.455,5.103,5.482
						v11.947h5.106v-11.947c0-3.027,2.283-5.482,5.104-5.482c2.819,0,5.103,2.455,5.103,5.482v11.947h5.106v-11.947
						c0-3.027,2.284-5.482,5.103-5.482c2.819,0,5.103,2.455,5.103,5.482v11.947h6.292v-27.613H113.899z"/>
				</g>
				<g>
					<path style="fill:#B3E1E8;" d="M185.222,552.597c0,1.244-0.939,2.253-2.095,2.253h-69.819c-1.158,0-2.096-1.009-2.096-2.253
						c0-1.243,0.938-2.25,2.096-2.25h69.819C184.283,550.347,185.222,551.354,185.222,552.597z"/>
				</g>
			</g>
			<g>
				<path style="fill:#8ACDDD;" d="M129.805,545.448c0-1.299-0.979-2.35-2.188-2.35h-6.563c-1.207,0-2.187,1.051-2.187,2.35v1.566
					h10.938V545.448z"/>
			</g>
			<g>
				<path style="fill:#8ACDDD;" d="M154.325,545.548c0-1.298-0.981-2.351-2.189-2.351h-6.563c-1.207,0-2.186,1.053-2.186,2.351
					v1.566h10.938V545.548z"/>
			</g>
			<g>
				<path style="fill:#8ACDDD;" d="M177.657,545.547c0-1.297-0.98-2.351-2.188-2.351h-6.562c-1.21,0-2.189,1.054-2.189,2.351v1.567
					h10.939V545.547z"/>
			</g>
			<g>
				<path style="fill:#8ACDDD;" d="M122.74,512.792c0,1.352-1.02,2.448-2.278,2.448c-1.259,0-2.279-1.097-2.279-2.448
					c0-1.352,1.021-2.447,2.279-2.447C121.721,510.345,122.74,511.44,122.74,512.792z"/>
			</g>
			<g>
				<path style="fill:#8ACDDD;" d="M130.214,512.792c0,1.352-1.02,2.448-2.278,2.448c-1.259,0-2.278-1.097-2.278-2.448
					c0-1.352,1.019-2.447,2.278-2.447C129.194,510.345,130.214,511.44,130.214,512.792z"/>
			</g>
			<g>
				<path style="fill:#8ACDDD;" d="M147.305,512.792c0,1.352-1.021,2.448-2.279,2.448c-1.259,0-2.279-1.097-2.279-2.448
					c0-1.352,1.02-2.447,2.279-2.447C146.285,510.345,147.305,511.44,147.305,512.792z"/>
			</g>
			<g>
				<path style="fill:#8ACDDD;" d="M154.779,512.792c0,1.352-1.02,2.448-2.279,2.448c-1.259,0-2.278-1.097-2.278-2.448
					c0-1.352,1.02-2.447,2.278-2.447C153.758,510.345,154.779,511.44,154.779,512.792z"/>
			</g>
			<g>
				<path style="fill:#8ACDDD;" d="M170.73,512.792c0,1.352-1.021,2.448-2.278,2.448c-1.26,0-2.279-1.097-2.279-2.448
					c0-1.352,1.019-2.447,2.279-2.447C169.709,510.345,170.73,511.44,170.73,512.792z"/>
			</g>
			<g>
				<path style="fill:#8ACDDD;" d="M178.203,512.792c0,1.352-1.019,2.448-2.278,2.448c-1.257,0-2.278-1.097-2.278-2.448
					c0-1.352,1.02-2.447,2.278-2.447C177.184,510.345,178.203,511.44,178.203,512.792z"/>
			</g>
			<g>
				<polygon style="fill:#8ACDDD;" points="183.718,511.569 147.807,472.987 111.895,511.569 				"/>
			</g>
			<g>
				<polygon style="fill:#629FAC;" points="165.171,504.248 147.374,485.128 129.578,504.248 				"/>
			</g>
			<g>
				<path style="fill:#629FAC;" d="M206.002,470.13l-114.297,0.117v-4.191c0-2.598,1.958-4.702,4.375-4.707l105.547-0.107
					c2.417-0.003,4.375,2.101,4.375,4.695V470.13z"/>
			</g>
			<g>
				<path style="fill:#629FAC;" d="M46.007,495.222c0,1.565,1.269,2.835,2.835,2.835h45.6v-9.988H46.007V495.222z"/>
			</g>
			<g>
				<path style="fill:#629FAC;" d="M203.498,497.811h41.017c2.416,0,4.375-2.105,4.375-4.7v-5.288h-45.391V497.811z"/>
			</g>
			<g>
				<path style="fill:#629FAC;" d="M162.619,461.238c0-5.191-3.919-9.399-8.751-9.399h-9.479c-4.831,0-8.749,4.208-8.749,9.399
					v9.009h26.979V461.238z"/>
			</g>
			<g>
				<g>
					<rect x="56.16" y="499.629" style="fill:#7F8794;" width="8.75" height="12.128"/>
				</g>
				<g>
					<rect x="69.285" y="499.629" style="fill:#7F8794;" width="8.75" height="12.128"/>
				</g>
				<g>
					<rect x="82.411" y="499.629" style="fill:#7F8794;" width="8.749" height="12.128"/>
				</g>
				<g>
					<rect x="56.16" y="517.255" style="fill:#7F8794;" width="8.75" height="12.129"/>
				</g>
				<g>
					<rect x="69.285" y="517.255" style="fill:#7F8794;" width="8.75" height="12.129"/>
				</g>
				<g>
					<rect x="82.411" y="517.255" style="fill:#7F8794;" width="8.749" height="12.129"/>
				</g>
				<g>
					<rect x="56.16" y="534.88" style="fill:#7F8794;" width="8.75" height="12.128"/>
				</g>
				<g>
					<rect x="69.285" y="534.88" style="fill:#7F8794;" width="8.75" height="12.128"/>
				</g>
				<g>
					<rect x="82.411" y="534.88" style="fill:#7F8794;" width="8.749" height="12.128"/>
				</g>
				<g>
					<rect x="56.16" y="552.506" style="fill:#7F8794;" width="8.75" height="12.127"/>
				</g>
				<g>
					<rect x="69.285" y="552.506" style="fill:#7F8794;" width="8.75" height="12.127"/>
				</g>
				<g>
					<rect x="82.411" y="552.506" style="fill:#7F8794;" width="8.749" height="12.127"/>
				</g>
			</g>
			<g>
				<g>
					<rect x="56.16" y="499.629" style="fill:#8ACDDD;" width="8.75" height="12.128"/>
				</g>
				<g>
					<rect x="69.285" y="499.629" style="fill:#8ACDDD;" width="8.75" height="12.128"/>
				</g>
				<g>
					<rect x="82.411" y="499.629" style="fill:#8ACDDD;" width="8.749" height="12.128"/>
				</g>
				<g>
					<rect x="56.16" y="517.255" style="fill:#8ACDDD;" width="8.75" height="12.129"/>
				</g>
				<g>
					<rect x="69.285" y="517.255" style="fill:#8ACDDD;" width="8.75" height="12.129"/>
				</g>
				<g>
					<rect x="82.411" y="517.255" style="fill:#8ACDDD;" width="8.749" height="12.129"/>
				</g>
				<g>
					<rect x="56.16" y="534.88" style="fill:#8ACDDD;" width="8.75" height="12.128"/>
				</g>
				<g>
					<rect x="69.285" y="534.88" style="fill:#8ACDDD;" width="8.75" height="12.128"/>
				</g>
				<g>
					<rect x="82.411" y="534.88" style="fill:#8ACDDD;" width="8.749" height="12.128"/>
				</g>
				<g>
					<rect x="56.16" y="552.506" style="fill:#8ACDDD;" width="8.75" height="12.127"/>
				</g>
				<g>
					<rect x="69.285" y="552.506" style="fill:#8ACDDD;" width="8.75" height="12.127"/>
				</g>
				<g>
					<rect x="82.411" y="552.506" style="fill:#8ACDDD;" width="8.749" height="12.127"/>
				</g>
			</g>
			<g>
				<rect x="101.368" y="479.263" style="fill:#8ACDDD;" width="8.75" height="12.127"/>
			</g>
			<g>
				<rect x="101.368" y="496.888" style="fill:#8ACDDD;" width="8.75" height="12.128"/>
			</g>
			<g>
				<rect x="101.368" y="514.513" style="fill:#8ACDDD;" width="8.75" height="12.129"/>
			</g>
			<g>
				<rect x="101.368" y="532.139" style="fill:#8ACDDD;" width="8.75" height="12.128"/>
			</g>
			<g>
				<g>
					<rect x="186.68" y="478.87" style="fill:#8ACDDD;" width="8.752" height="12.129"/>
				</g>
				<g>
					<rect x="186.68" y="496.495" style="fill:#8ACDDD;" width="8.752" height="12.129"/>
				</g>
				<g>
					<rect x="186.68" y="514.12" style="fill:#8ACDDD;" width="8.752" height="12.131"/>
				</g>
				<g>
					<rect x="186.68" y="531.746" style="fill:#8ACDDD;" width="8.752" height="12.13"/>
				</g>
			</g>
			<g>
				<g>
					<rect x="206.734" y="499.14" style="fill:#8ACDDD;" width="8.749" height="12.129"/>
				</g>
				<g>
					<rect x="219.859" y="499.14" style="fill:#8ACDDD;" width="8.75" height="12.129"/>
				</g>
				<g>
					<rect x="232.984" y="499.14" style="fill:#8ACDDD;" width="8.751" height="12.129"/>
				</g>
				<g>
					<rect x="206.734" y="516.765" style="fill:#8ACDDD;" width="8.749" height="12.129"/>
				</g>
				<g>
					<rect x="219.859" y="516.765" style="fill:#8ACDDD;" width="8.75" height="12.129"/>
				</g>
				<g>
					<rect x="232.984" y="516.765" style="fill:#8ACDDD;" width="8.751" height="12.129"/>
				</g>
				<g>
					<rect x="206.734" y="534.389" style="fill:#8ACDDD;" width="8.749" height="12.131"/>
				</g>
				<g>
					<rect x="219.859" y="534.389" style="fill:#8ACDDD;" width="8.75" height="12.131"/>
				</g>
				<g>
					<rect x="232.984" y="534.389" style="fill:#8ACDDD;" width="8.751" height="12.131"/>
				</g>
				<g>
					<rect x="206.734" y="552.017" style="fill:#8ACDDD;" width="8.749" height="12.128"/>
				</g>
				<g>
					<rect x="219.859" y="552.017" style="fill:#8ACDDD;" width="8.75" height="12.128"/>
				</g>
				<g>
					<rect x="232.984" y="552.017" style="fill:#8ACDDD;" width="8.751" height="12.128"/>
				</g>
			</g>
			<g>
				<rect x="105.241" y="581.337" style="fill:#8ACDDD;" width="87.911" height="2.938"/>
			</g>
			<g>
				<rect x="116.497" y="547.015" style="fill:#8ACDDD;" width="63.438" height="3.332"/>
			</g>
		</g>
		<g>
			<g>
				<polygon style="fill:#6EB4C7;" points="912.339,559.419 912.339,454.253 891.342,454.253 891.342,483.824 847.576,483.824 
					847.576,559.321 891.342,559.321 891.342,559.419 				"/>
			</g>
			<g>
				<path style="fill:#629FAC;" d="M912.339,447.489l-19.356,0.02c-2.417,0.005-4.375,2.109-4.375,4.707v4.191l23.731-0.024V447.489
					z"/>
			</g>
			<g>
				<path style="fill:#629FAC;" d="M842.909,481.382c0,1.565,1.269,2.835,2.834,2.835h45.6v-9.988h-48.435V481.382z"/>
			</g>
			<g>
				<g>
					<rect x="853.063" y="485.789" style="fill:#7F8794;" width="8.749" height="12.128"/>
				</g>
				<g>
					<rect x="866.188" y="485.789" style="fill:#7F8794;" width="8.75" height="12.128"/>
				</g>
				<g>
					<rect x="879.313" y="485.789" style="fill:#7F8794;" width="8.749" height="12.128"/>
				</g>
				<g>
					<rect x="853.063" y="503.415" style="fill:#7F8794;" width="8.749" height="12.129"/>
				</g>
				<g>
					<rect x="866.188" y="503.415" style="fill:#7F8794;" width="8.75" height="12.129"/>
				</g>
				<g>
					<rect x="879.313" y="503.415" style="fill:#7F8794;" width="8.749" height="12.129"/>
				</g>
				<g>
					<rect x="853.063" y="521.04" style="fill:#7F8794;" width="8.749" height="12.128"/>
				</g>
				<g>
					<rect x="866.188" y="521.04" style="fill:#7F8794;" width="8.75" height="12.128"/>
				</g>
				<g>
					<rect x="879.313" y="521.04" style="fill:#7F8794;" width="8.749" height="12.128"/>
				</g>
				<g>
					<rect x="853.063" y="538.666" style="fill:#7F8794;" width="8.749" height="12.127"/>
				</g>
				<g>
					<rect x="866.188" y="538.666" style="fill:#7F8794;" width="8.75" height="12.127"/>
				</g>
				<g>
					<rect x="879.313" y="538.666" style="fill:#7F8794;" width="8.749" height="12.127"/>
				</g>
			</g>
			<g>
				<g>
					<rect x="853.063" y="485.789" style="fill:#8ACDDD;" width="8.749" height="12.128"/>
				</g>
				<g>
					<rect x="866.188" y="485.789" style="fill:#8ACDDD;" width="8.75" height="12.128"/>
				</g>
				<g>
					<rect x="879.313" y="485.789" style="fill:#8ACDDD;" width="8.749" height="12.128"/>
				</g>
				<g>
					<rect x="853.063" y="503.415" style="fill:#8ACDDD;" width="8.749" height="12.129"/>
				</g>
				<g>
					<rect x="866.188" y="503.415" style="fill:#8ACDDD;" width="8.75" height="12.129"/>
				</g>
				<g>
					<rect x="879.313" y="503.415" style="fill:#8ACDDD;" width="8.749" height="12.129"/>
				</g>
				<g>
					<rect x="853.063" y="521.04" style="fill:#8ACDDD;" width="8.749" height="12.128"/>
				</g>
				<g>
					<rect x="866.188" y="521.04" style="fill:#8ACDDD;" width="8.75" height="12.128"/>
				</g>
				<g>
					<rect x="879.313" y="521.04" style="fill:#8ACDDD;" width="8.749" height="12.128"/>
				</g>
				<g>
					<rect x="853.063" y="538.666" style="fill:#8ACDDD;" width="8.749" height="12.127"/>
				</g>
				<g>
					<rect x="866.188" y="538.666" style="fill:#8ACDDD;" width="8.75" height="12.127"/>
				</g>
				<g>
					<rect x="879.313" y="538.666" style="fill:#8ACDDD;" width="8.749" height="12.127"/>
				</g>
			</g>
			<g>
				<rect x="898.271" y="465.423" style="fill:#8ACDDD;" width="8.75" height="12.127"/>
			</g>
			<g>
				<rect x="898.271" y="483.048" style="fill:#8ACDDD;" width="8.75" height="12.128"/>
			</g>
			<g>
				<rect x="898.271" y="500.673" style="fill:#8ACDDD;" width="8.75" height="12.129"/>
			</g>
			<g>
				<rect x="898.271" y="518.299" style="fill:#8ACDDD;" width="8.75" height="12.128"/>
			</g>
			<g>
				<rect x="902.28" y="552.835" style="fill:#64A4B5;" width="10.06" height="16.451"/>
			</g>
			<g>
				<rect x="902.143" y="551.236" style="fill:#8ACDDD;" width="10.196" height="3.058"/>
			</g>
			<g>
				<rect x="902.143" y="566.969" style="fill:#8ACDDD;" width="10.196" height="3.058"/>
			</g>
		</g>
		<g>
			<g>
				<rect x="620.961" y="460.718" style="fill:#8ACDDD;" width="21.283" height="8.861"/>
			</g>
			<g>
				<rect x="589.443" y="460.718" style="fill:#8ACDDD;" width="12.131" height="7.249"/>
			</g>
			<g>
				<rect x="754.544" y="404.764" style="fill:#6EB4C7;" width="26.685" height="8.393"/>
			</g>
			<g>
				<rect x="794.035" y="404.764" style="fill:#6EB4C7;" width="11.414" height="10.229"/>
			</g>
			<g>
				<rect x="711.308" y="413.858" style="fill:#6EB4C7;" width="111.824" height="162.028"/>
			</g>
			<g>
				<rect x="575.451" y="467.779" style="fill:#6EB4C7;" width="96.625" height="108.107"/>
			</g>
			<g>
				<rect x="580.242" y="471.686" style="fill:#8ACDDD;" width="34.65" height="29.425"/>
			</g>
			<g>
				<rect x="619.333" y="471.686" style="fill:#8ACDDD;" width="34.65" height="29.425"/>
			</g>
			<g>
				<rect x="572.313" y="532.146" style="fill:#629FAC;" width="94.713" height="6.537"/>
			</g>
			<g>
				<rect x="572.313" y="465.147" style="fill:#6EB4C7;" width="94.713" height="6.539"/>
			</g>
			<g>
				<rect x="631.118" y="547.481" style="fill:#7DC4D2;" width="30.289" height="28.406"/>
			</g>
			<g>
				<rect x="638.838" y="554.886" style="fill:#629FAC;" width="22.569" height="21.001"/>
			</g>
			<g>
				<rect x="580.242" y="503.133" style="fill:#8ACDDD;" width="15.105" height="13.538"/>
			</g>
			<g>
				<rect x="599.787" y="503.133" style="fill:#8ACDDD;" width="15.105" height="13.538"/>
			</g>
			<g>
				<rect x="619.333" y="503.133" style="fill:#8ACDDD;" width="15.105" height="13.538"/>
			</g>
			<g>
				<rect x="638.878" y="503.133" style="fill:#8ACDDD;" width="15.105" height="13.538"/>
			</g>
			<g>
				<rect x="580.242" y="518.609" style="fill:#8ACDDD;" width="15.105" height="13.537"/>
			</g>
			<g>
				<rect x="599.787" y="518.609" style="fill:#8ACDDD;" width="15.105" height="13.537"/>
			</g>
			<g>
				<rect x="619.333" y="518.609" style="fill:#8ACDDD;" width="15.105" height="13.537"/>
			</g>
			<g>
				<rect x="638.878" y="518.609" style="fill:#8ACDDD;" width="15.105" height="13.537"/>
			</g>
			<g>
				<rect x="646.346" y="359.673" style="fill:#6EB4C7;" width="97.553" height="216.214"/>
			</g>
			<g>
				<rect x="669.683" y="546.04" style="fill:#8ACDDD;" width="52.649" height="29.847"/>
			</g>
			<g>
				<rect x="740.727" y="410.16" style="fill:#629FAC;" width="85.477" height="6.54"/>
			</g>
			<g>
				<rect x="740.727" y="436.693" style="fill:#629FAC;" width="85.477" height="6.537"/>
			</g>
			<g>
				<rect x="740.727" y="463.225" style="fill:#629FAC;" width="85.477" height="6.537"/>
			</g>
			<g>
				<rect x="740.727" y="489.755" style="fill:#629FAC;" width="85.477" height="6.537"/>
			</g>
			<g>
				<rect x="740.727" y="516.286" style="fill:#629FAC;" width="85.477" height="6.536"/>
			</g>
			<g>
				<rect x="740.727" y="542.817" style="fill:#629FAC;" width="85.477" height="6.539"/>
			</g>
			<g>
				<rect x="740.727" y="569.35" style="fill:#629FAC;" width="85.477" height="6.537"/>
			</g>
			<g>
				<rect x="746.992" y="418.546" style="fill:#8ACDDD;" width="15.104" height="13.539"/>
			</g>
			<g>
				<rect x="766.537" y="418.546" style="fill:#8ACDDD;" width="15.105" height="13.539"/>
			</g>
			<g>
				<rect x="786.083" y="418.546" style="fill:#8ACDDD;" width="15.104" height="13.539"/>
			</g>
			<g>
				<rect x="805.628" y="418.546" style="fill:#8ACDDD;" width="15.104" height="13.539"/>
			</g>
			<g>
				<rect x="746.992" y="444.984" style="fill:#8ACDDD;" width="15.104" height="13.539"/>
			</g>
			<g>
				<rect x="766.537" y="444.984" style="fill:#8ACDDD;" width="15.105" height="13.539"/>
			</g>
			<g>
				<rect x="786.083" y="444.984" style="fill:#8ACDDD;" width="15.104" height="13.539"/>
			</g>
			<g>
				<rect x="805.628" y="444.984" style="fill:#8ACDDD;" width="15.104" height="13.539"/>
			</g>
			<g>
				<rect x="746.992" y="471.686" style="fill:#8ACDDD;" width="15.104" height="13.538"/>
			</g>
			<g>
				<rect x="766.537" y="471.686" style="fill:#8ACDDD;" width="15.105" height="13.538"/>
			</g>
			<g>
				<rect x="786.083" y="471.686" style="fill:#8ACDDD;" width="15.104" height="13.538"/>
			</g>
			<g>
				<rect x="805.628" y="471.686" style="fill:#8ACDDD;" width="15.104" height="13.538"/>
			</g>
			<g>
				<rect x="746.992" y="498.123" style="fill:#8ACDDD;" width="15.104" height="13.538"/>
			</g>
			<g>
				<rect x="766.537" y="498.123" style="fill:#8ACDDD;" width="15.105" height="13.538"/>
			</g>
			<g>
				<rect x="786.083" y="498.123" style="fill:#8ACDDD;" width="15.104" height="13.538"/>
			</g>
			<g>
				<rect x="805.628" y="498.123" style="fill:#8ACDDD;" width="15.104" height="13.538"/>
			</g>
			<g>
				<rect x="746.992" y="524.709" style="fill:#8ACDDD;" width="15.104" height="13.539"/>
			</g>
			<g>
				<rect x="766.537" y="524.709" style="fill:#8ACDDD;" width="15.105" height="13.539"/>
			</g>
			<g>
				<rect x="786.083" y="524.709" style="fill:#8ACDDD;" width="15.104" height="13.539"/>
			</g>
			<g>
				<rect x="805.628" y="524.709" style="fill:#8ACDDD;" width="15.104" height="13.539"/>
			</g>
			<g>
				<rect x="746.992" y="551.146" style="fill:#8ACDDD;" width="15.104" height="13.539"/>
			</g>
			<g>
				<rect x="766.537" y="551.146" style="fill:#8ACDDD;" width="15.105" height="13.539"/>
			</g>
			<g>
				<rect x="786.083" y="551.146" style="fill:#8ACDDD;" width="15.104" height="13.539"/>
			</g>
			<g>
				<rect x="805.628" y="551.146" style="fill:#8ACDDD;" width="15.104" height="13.539"/>
			</g>
			<g>
				<polygon style="fill:#629FAC;" points="710.299,361.602 679.946,361.602 649.593,361.602 649.593,388.805 679.946,388.805 
					710.299,388.805 740.652,388.805 740.652,361.602 				"/>
			</g>
			<g>
				<polygon style="fill:#629FAC;" points="710.299,391.791 679.946,391.791 649.593,391.791 649.593,418.995 679.946,418.995 
					710.299,418.995 740.652,418.995 740.652,391.791 				"/>
			</g>
			<g>
				<polygon style="fill:#629FAC;" points="710.299,422.065 679.946,422.065 649.593,422.065 649.593,449.27 679.946,449.27 
					710.299,449.27 740.652,449.27 740.652,422.065 				"/>
			</g>
			<g>
				<polygon style="fill:#629FAC;" points="710.299,452.338 679.946,452.338 649.593,452.338 649.593,479.544 679.946,479.544 
					710.299,479.544 740.652,479.544 740.652,452.338 				"/>
			</g>
			<g>
				<polygon style="fill:#629FAC;" points="710.299,483.04 679.946,483.04 649.593,483.04 649.593,510.244 679.946,510.244 
					710.299,510.244 740.652,510.244 740.652,483.04 				"/>
			</g>
			<g>
				<polygon style="fill:#629FAC;" points="710.299,513.738 679.946,513.738 649.593,513.738 649.593,540.943 679.946,540.943 
					710.299,540.943 740.652,540.943 740.652,513.738 				"/>
			</g>
			<g>
				<rect x="642.724" y="540.943" style="fill:#8ACDDD;" width="104.268" height="6.537"/>
			</g>
			<g>
				<rect x="642.724" y="355.063" style="fill:#6EB4C7;" width="104.268" height="6.539"/>
			</g>
			<g>
				<path style="fill:#8ACDDD;" d="M737.239,390.086c0,0.47-0.426,0.852-0.953,0.852h-5.649c-0.525,0-0.951-0.382-0.951-0.852
					v-2.561c0-0.47,0.426-0.852,0.951-0.852h5.649c0.526,0,0.953,0.382,0.953,0.852V390.086z"/>
			</g>
			<g>
				<path style="fill:#8ACDDD;" d="M737.239,419.933c0,0.472-0.426,0.854-0.953,0.854h-5.649c-0.525,0-0.951-0.382-0.951-0.854
					v-2.559c0-0.472,0.426-0.853,0.951-0.853h5.649c0.526,0,0.953,0.382,0.953,0.853V419.933z"/>
			</g>
			<g>
				<path style="fill:#8ACDDD;" d="M737.239,450.206c0,0.472-0.426,0.854-0.953,0.854h-5.649c-0.525,0-0.951-0.382-0.951-0.854
					v-2.559c0-0.471,0.426-0.853,0.951-0.853h5.649c0.526,0,0.953,0.382,0.953,0.853V450.206z"/>
			</g>
			<g>
				<path style="fill:#8ACDDD;" d="M737.239,480.478c0,0.474-0.426,0.856-0.953,0.856h-5.649c-0.525,0-0.951-0.382-0.951-0.856
					v-2.557c0-0.472,0.426-0.852,0.951-0.852h5.649c0.526,0,0.953,0.38,0.953,0.852V480.478z"/>
			</g>
			<g>
				<path style="fill:#8ACDDD;" d="M737.239,511.181c0,0.472-0.426,0.853-0.953,0.853h-5.649c-0.525,0-0.951-0.381-0.951-0.853
					v-2.56c0-0.47,0.426-0.853,0.951-0.853h5.649c0.526,0,0.953,0.383,0.953,0.853V511.181z"/>
			</g>
			<g>
				<rect x="728.2" y="547.481" style="fill:#8ACDDD;" width="9.872" height="28.406"/>
			</g>
			<g>
				<rect x="653.032" y="547.481" style="fill:#8ACDDD;" width="9.871" height="28.406"/>
			</g>
			<g>
				<rect x="725.642" y="574.015" style="fill:#ACC2DD;" width="14.987" height="1.872"/>
			</g>
			<g>
				<rect x="675.986" y="551.146" style="fill:#6EB4C7;" width="18.554" height="24.741"/>
			</g>
			<g>
				<rect x="697.712" y="551.146" style="fill:#6EB4C7;" width="18.554" height="24.741"/>
			</g>
			<g>
				<rect x="587.378" y="547.481" style="fill:#7DC4D2;" width="30.29" height="28.406"/>
			</g>
			<g>
				<rect x="595.638" y="554.886" style="fill:#629FAC;" width="22.03" height="21.001"/>
			</g>
		</g>
		<g>
			<g>
				<rect x="3.108" y="440.951" style="fill:#6EB4C7;" width="9.814" height="8.795"/>
			</g>
			<g>
				<rect x="0" y="448.772" style="fill:#6EB4C7;" width="28.128" height="139.33"/>
			</g>
			<g>
				<rect x="0" y="445.591" style="fill:#629FAC;" width="30.77" height="5.624"/>
			</g>
			<g>
				<rect x="0" y="468.407" style="fill:#629FAC;" width="30.77" height="5.622"/>
			</g>
			<g>
				<rect x="0" y="491.223" style="fill:#629FAC;" width="30.77" height="5.621"/>
			</g>
			<g>
				<rect x="0" y="514.036" style="fill:#629FAC;" width="30.77" height="5.621"/>
			</g>
			<g>
				<rect x="0" y="536.851" style="fill:#629FAC;" width="30.77" height="5.62"/>
			</g>
			<g>
				<rect x="0" y="559.665" style="fill:#629FAC;" width="30.77" height="5.623"/>
			</g>
			<g>
				<rect x="0" y="582.481" style="fill:#629FAC;" width="30.77" height="5.621"/>
			</g>
			<g>
				<rect x="0" y="452.803" style="fill:#8ACDDD;" width="9.258" height="11.642"/>
			</g>
			<g>
				<rect x="13.078" y="452.803" style="fill:#8ACDDD;" width="12.989" height="11.642"/>
			</g>
			<g>
				<rect x="0" y="475.537" style="fill:#8ACDDD;" width="9.258" height="11.643"/>
			</g>
			<g>
				<rect x="13.078" y="475.537" style="fill:#8ACDDD;" width="12.989" height="11.643"/>
			</g>
			<g>
				<rect x="0" y="498.499" style="fill:#8ACDDD;" width="9.258" height="11.642"/>
			</g>
			<g>
				<rect x="13.078" y="498.499" style="fill:#8ACDDD;" width="12.989" height="11.642"/>
			</g>
			<g>
				<rect x="0" y="521.232" style="fill:#8ACDDD;" width="9.258" height="11.642"/>
			</g>
			<g>
				<rect x="13.078" y="521.232" style="fill:#8ACDDD;" width="12.989" height="11.642"/>
			</g>
			<g>
				<rect x="0" y="544.094" style="fill:#8ACDDD;" width="9.258" height="11.642"/>
			</g>
			<g>
				<rect x="13.078" y="544.094" style="fill:#8ACDDD;" width="12.989" height="11.642"/>
			</g>
			<g>
				<rect x="0" y="566.826" style="fill:#8ACDDD;" width="9.258" height="11.643"/>
			</g>
			<g>
				<rect x="13.078" y="566.826" style="fill:#8ACDDD;" width="12.989" height="11.643"/>
			</g>
		</g>
		<g>
			<g>
				<rect x="265.611" y="233.357" style="fill:#6EB4C7;" width="4.116" height="26.887"/>
			</g>
			<g>
				<rect x="258.615" y="271.221" style="fill:#6EB4C7;" width="71.338" height="286.455"/>
			</g>
			<g>
				<rect x="293.736" y="271.221" style="fill:#6BAFBF;" width="36.217" height="286.455"/>
			</g>
			<g>
				<rect x="253.676" y="557.676" style="fill:#629FAC;" width="81.217" height="9.877"/>
			</g>
			<g>
				<rect x="309.1" y="280.002" style="fill:#8ACDDD;" width="10.427" height="22.498"/>
			</g>
			<g>
				<rect x="267.944" y="280.002" style="fill:#8ACDDD;" width="10.427" height="22.498"/>
			</g>
			<g>
				<rect x="309.1" y="312.378" style="fill:#8ACDDD;" width="10.427" height="22.499"/>
			</g>
			<g>
				<rect x="267.944" y="312.378" style="fill:#8ACDDD;" width="10.427" height="22.499"/>
			</g>
			<g>
				<rect x="309.1" y="343.108" style="fill:#8ACDDD;" width="10.427" height="22.499"/>
			</g>
			<g>
				<rect x="267.944" y="343.108" style="fill:#8ACDDD;" width="10.427" height="22.499"/>
			</g>
			<g>
				<rect x="309.1" y="373.292" style="fill:#8ACDDD;" width="10.427" height="22.498"/>
			</g>
			<g>
				<rect x="267.944" y="373.292" style="fill:#8ACDDD;" width="10.427" height="22.498"/>
			</g>
			<g>
				<rect x="309.1" y="405.667" style="fill:#8ACDDD;" width="10.427" height="22.499"/>
			</g>
			<g>
				<rect x="267.944" y="405.667" style="fill:#8ACDDD;" width="10.427" height="22.499"/>
			</g>
			<g>
				<rect x="309.1" y="437.496" style="fill:#8ACDDD;" width="10.427" height="22.5"/>
			</g>
			<g>
				<rect x="267.944" y="437.496" style="fill:#8ACDDD;" width="10.427" height="22.5"/>
			</g>
			<g>
				<rect x="309.1" y="468.227" style="fill:#8ACDDD;" width="10.427" height="22.499"/>
			</g>
			<g>
				<rect x="267.944" y="468.227" style="fill:#8ACDDD;" width="10.427" height="22.499"/>
			</g>
			<g>
				<rect x="309.1" y="500.056" style="fill:#8ACDDD;" width="10.427" height="22.498"/>
			</g>
			<g>
				<rect x="267.944" y="500.056" style="fill:#8ACDDD;" width="10.427" height="22.498"/>
			</g>
			<g>
				<path style="fill:#629FAC;" d="M332.492,268.889c0,1.515-1.229,2.742-2.744,2.742h-71.364c-1.516,0-2.744-1.228-2.744-2.742
					v-3.842h76.851V268.889z"/>
			</g>
			<g>
				<path style="fill:#629FAC;" d="M337.637,262.441c0,1.515-1.229,2.743-2.744,2.743h-81.217c-1.515,0-2.744-1.229-2.744-2.743
					v-1.097c0-1.517,1.229-2.746,2.744-2.746h81.217c1.516,0,2.744,1.229,2.744,2.746V262.441z"/>
			</g>
			<g>
				<rect x="269.225" y="532.249" style="fill:#629FAC;" width="49.572" height="25.427"/>
			</g>
			<g>
				<path style="fill:#8ACDDD;" d="M271.785,235.141c0,2.348-1.904,4.251-4.253,4.251s-4.253-1.903-4.253-4.251
					c0-2.352,1.904-4.255,4.253-4.255S271.785,232.789,271.785,235.141z"/>
			</g>
			<g>
				<path style="fill:#6EB4C7;" d="M310.198,542.036c0-3.334-2.703-6.037-6.036-6.037H282.76c-3.334,0-6.036,2.703-6.036,6.037
					v15.502h33.474V542.036z"/>
			</g>
			<g>
				<path style="fill:#6EB4C7;" d="M294.01,535.999h-11.25c-3.334,0-6.036,2.703-6.036,6.037v15.502h17.286V535.999z"/>
			</g>
			<g>
				<path style="fill:#8ACDDD;" d="M321.449,560.969h-54.603v-2.242c0-0.607,0.492-1.099,1.098-1.099h52.406
					c0.606,0,1.099,0.492,1.099,1.099V560.969z"/>
			</g>
			<g>
				<path style="fill:#6EB4C7;" d="M323.781,564.247l-59.13,0.026l-0.001-2.196c0-0.607,0.492-1.098,1.098-1.098l56.934-0.024
					c0.607-0.001,1.098,0.49,1.099,1.097L323.781,564.247z"/>
			</g>
			<g>
				<path style="fill:#629FAC;" d="M326.799,567.537l-65.439,0.028l-0.001-2.196c-0.001-0.606,0.49-1.096,1.097-1.097l63.244-0.027
					c0.606,0,1.098,0.491,1.098,1.097L326.799,567.537z"/>
			</g>
			<g>
				<g>
					<rect x="254.637" y="533.393" style="fill:#629FAC;" width="2.058" height="24.283"/>
				</g>
				<g>
					<path style="fill:#629FAC;" d="M257.243,553.011c0-0.303-0.245-0.549-0.548-0.549h-2.058c-0.303,0-0.549,0.246-0.549,0.549
						v4.665h3.155V553.011z"/>
				</g>
			</g>
			<g>
				<g>
					<rect x="331.738" y="533.393" style="fill:#629FAC;" width="2.057" height="24.283"/>
				</g>
				<g>
					<path style="fill:#629FAC;" d="M334.344,553.011c0-0.303-0.245-0.549-0.548-0.549h-2.057c-0.304,0-0.549,0.246-0.549,0.549
						v4.665h3.154V553.011z"/>
				</g>
			</g>
			<g>
				<path style="fill:#8ACDDD;" d="M303.065,529.69h-19.207v-244.2c0-5.304,4.3-9.604,9.603-9.604c5.304,0,9.604,4.301,9.604,9.604
					V529.69z"/>
			</g>
			<g>
				<path style="fill:#629FAC;" d="M292.5,548.62c0,0.492-0.398,0.893-0.891,0.893s-0.892-0.4-0.892-0.893s0.399-0.891,0.892-0.891
					S292.5,548.128,292.5,548.62z"/>
			</g>
			<g>
				<path style="fill:#629FAC;" d="M297.234,548.574c0,0.493-0.398,0.893-0.891,0.893c-0.493,0-0.892-0.399-0.892-0.893
					c0-0.493,0.399-0.892,0.892-0.892C296.835,547.683,297.234,548.081,297.234,548.574z"/>
			</g>
			<g>
				<path style="fill:#8ACDDD;" d="M293.371,275.89c-5.262,0.049-9.513,4.325-9.513,9.6v244.2h9.513V275.89z"/>
			</g>
			<g>
				<g>
					<path style="fill:#6EB4C7;" d="M287.871,373.292c-1.003,0-1.817,0.811-1.817,1.816v23.314c0,1.004,0.815,1.818,1.817,1.818
						h10.907c1.004,0,1.818-0.814,1.818-1.818v-23.314c0-1.006-0.814-1.816-1.818-1.816H287.871z"/>
				</g>
				<g>
					<path style="fill:#629FAC;" d="M298.777,373.292h-10.907c-1.003,0-1.817,0.811-1.817,1.816v2.12h14.543v-2.12
						C300.596,374.103,299.782,373.292,298.777,373.292z"/>
				</g>
			</g>
			<g>
				<g>
					<rect x="292.456" y="275.885" style="fill:#629FAC;" width="1.645" height="97.407"/>
				</g>
			</g>
			<g>
				<path style="fill:#629FAC;" d="M295.932,372.604c0-0.455-0.369-0.823-0.824-0.823h-3.566c-0.455,0-0.823,0.368-0.823,0.823
					c0,0.455,0.368,0.824,0.823,0.824h3.566C295.563,373.429,295.932,373.06,295.932,372.604z"/>
			</g>
			<g>
				<path style="fill:#629FAC;" d="M335.58,531.883c0,0.909-0.737,1.647-1.647,1.647h-79.159c-0.909,0-1.646-0.738-1.646-1.647
					v-3.292h82.452V531.883z"/>
			</g>
			<g>
				<path style="fill:#6EB4C7;" d="M374.129,573.59c0,3.485-2.825,6.31-6.31,6.31H218.281c-3.485,0-6.311-2.825-6.311-6.31
					c0-3.486,2.825-6.31,6.311-6.31h149.539C371.304,567.28,374.129,570.104,374.129,573.59z"/>
			</g>
		</g>
	</g>
	<g>
		<g>
			<path style="fill:#D3673D;" d="M752.043,549.459c3.853-0.01,6.973,1.981,6.982,4.443l-0.279,64.082
				c0.002,2.463-3.105,4.469-6.951,4.476l0,0c-3.841,0.01-6.969-1.978-6.976-4.437l0.284-64.088
				C745.091,551.472,748.2,549.473,752.043,549.459L752.043,549.459z"/>
		</g>
		<g>
			<path style="fill:#819C2A;" d="M745.095,544.227c0,13.418-10.877,24.295-24.295,24.295c-13.415,0-24.29-10.877-24.29-24.295
				c0-13.413,10.875-24.29,24.29-24.29C734.218,519.938,745.095,530.815,745.095,544.227z"/>
		</g>
		<g>
			<path style="fill:#819C2A;" d="M767.171,547.199c0,15.053-12.204,27.26-27.26,27.26c-15.058,0-27.261-12.207-27.261-27.26
				c0-15.058,12.204-27.262,27.261-27.262C754.967,519.938,767.171,532.142,767.171,547.199z"/>
		</g>
		<g>
			<path style="fill:#819C2A;" d="M784.034,510.184c0,12.186-9.876,22.062-22.063,22.062c-12.182,0-22.059-9.876-22.059-22.062
				c0-12.183,9.876-22.06,22.059-22.06C774.158,488.123,784.034,498.001,784.034,510.184z"/>
		</g>
		<g>
			<path style="fill:#819C2A;" d="M761.97,515.188c0,13.414-10.875,24.291-24.294,24.291c-13.417,0-24.29-10.877-24.29-24.291
				c0-13.416,10.872-24.296,24.29-24.296C751.095,490.893,761.97,501.772,761.97,515.188z"/>
		</g>
		<g>
			<path style="fill:#819C2A;" d="M807.469,539.859c0,17.25-13.986,31.232-31.232,31.232c-17.255,0-31.236-13.982-31.236-31.232
				c0-17.248,13.981-31.23,31.236-31.23C793.483,508.629,807.469,522.611,807.469,539.859z"/>
		</g>
		<g>
			<path style="fill:#819C2A;" d="M778.083,630.87c-5.546-8.434-15.075-14.014-25.927-14.014c-10.85,0-20.381,5.58-25.932,14.014
				H778.083z"/>
		</g>
	</g>
	<g>
		<path style="fill:#FFFFFF;" d="M164.956,184.857c-1.138-5.499-6.007-9.631-11.844-9.631c-5.441,0-10.043,3.592-11.564,8.533
			c-4.01,0.037-7.307,3.021-7.845,6.894c-4.122,0.227-7.397,3.632-7.397,7.811c0,4.326,3.506,7.832,7.833,7.832
			c3.884,0,24,0,28.59,0c5.984,0,10.835-4.851,10.835-10.836C173.564,190.24,169.872,185.885,164.956,184.857z"/>
	</g>
	<g>
		<path style="fill:#FFFFFF;" d="M663.129,167.723c-3.542-17.113-18.699-29.973-36.862-29.973c-16.934,0-31.253,11.18-35.993,26.561
			c-12.478,0.112-22.742,9.403-24.415,21.452c-12.829,0.708-23.022,11.303-23.022,24.308c0,13.463,10.912,24.379,24.376,24.379
			c12.09,0,74.698,0,88.982,0c18.623,0,33.723-15.098,33.723-33.726C689.919,184.482,678.429,170.924,663.129,167.723z"/>
	</g>
	<g>
		<g>
			<path style="fill:#D3673D;" d="M22.58,573.084c1.85-0.006,3.35,1.56,3.357,3.502l-0.09,50.504
				c0.005,1.94-1.486,3.518-3.336,3.519l0,0c-1.845,0.007-3.35-1.561-3.354-3.501l0.092-50.501
				C19.241,574.662,20.733,573.091,22.58,573.084L22.58,573.084z"/>
		</g>
		<g>
			<path style="fill:#819C2A;" d="M49.813,531.876c-0.264-10.42-8.537-18.791-18.731-18.791c-4.54,0-8.702,1.661-11.946,4.424
				c-2.648-1.271-5.591-2.001-8.706-2.001c-3.81,0-7.367,1.081-10.43,2.934v66.494c3.573,2.319,7.793,3.68,12.33,3.68
				c6.516,0,12.401-2.772,16.612-7.228c4.121,2.708,9.014,4.283,14.268,4.283c14.66,0,26.55-12.232,26.55-27.32
				C69.76,545.604,61.28,534.898,49.813,531.876z"/>
		</g>
		<g>
			<path style="fill:#819C2A;" d="M44.78,637.97c-4.713-7.375-12.816-12.258-22.039-12.258c-9.224,0-17.325,4.883-22.044,12.258
				H44.78z"/>
		</g>
	</g>
	<g>
		<g>
			<path style="fill:#AFAFAF;" d="M112.235,620.551H98.678v-36.686c0-0.881,0.714-1.595,1.595-1.595h10.367
				c0.881,0,1.595,0.714,1.595,1.595V620.551z"/>
		</g>
		<g>
			<rect x="100.273" y="515.943" style="fill:#AFAFAF;" width="9.57" height="101.815"/>
		</g>
		<g>
			<path style="fill:#7D9496;" d="M119.387,640.594c-0.26-0.261-0.615-0.406-0.983-0.406c-0.378,0-0.686-0.309-0.686-0.685v-28.987
				c0-6.717-5.445-12.161-12.162-12.161c-6.716,0-12.163,5.444-12.163,12.161V639.5c0,0.379-0.307,0.688-0.687,0.688
				c-0.368,0-0.724,0.146-0.984,0.406l-7.301,7.302l42.317,0.052L119.387,640.594z"/>
		</g>
		<g>
			<path style="fill:#E05322;" d="M108.514,444.5c0,2.094-1.696,3.789-3.788,3.789s-3.789-1.695-3.789-3.789
				c0-2.091,1.696-3.788,3.789-3.788S108.514,442.409,108.514,444.5z"/>
		</g>
		<g>
			<path style="fill:#F36C35;" d="M118.484,461.315c0-7.487-6.071-13.557-13.559-13.557c-7.488,0-13.559,6.069-13.559,13.557v1.862
				h27.117V461.315z"/>
		</g>
		<g>
			<path style="fill:#E05322;" d="M124.997,463.042h-39.61l0,0c0,1.396,1.13,2.526,2.526,2.526h34.558
				C123.865,465.568,124.997,464.438,124.997,463.042L124.997,463.042z"/>
		</g>
		<g>
			<path style="fill:#FC8860;" d="M122.006,465.369H88.312l0,0c0,1.393,1.13,2.525,2.525,2.525h28.643
				C120.875,467.895,122.006,466.763,122.006,465.369L122.006,465.369z"/>
		</g>
		<g style="opacity:0.8;">
			<path style="fill:#F7E5C1;" d="M91.999,469.897v21.156c0,3.941,1.566,7.747,4.341,10.549c3.302,3.334,5.158,7.867,5.143,12.559
				l-0.008,2.447l7.2-0.064v-2.24c0-4.726,1.868-9.289,5.181-12.657c2.782-2.831,4.353-6.666,4.353-10.635v-21.115H91.999z"/>
		</g>
		<g>
			<path style="fill:#E05322;" d="M120.08,467.695H90.105l0,0c0,1.394,1.131,2.526,2.525,2.526h24.922
				C118.948,470.222,120.08,469.089,120.08,467.695L120.08,467.695z"/>
		</g>
		<g>
			<rect x="101.402" y="500.393" style="fill:#BF593A;" width="7.445" height="8.838"/>
		</g>
		<g>
			<g>
				<path style="fill:#FFFFFF;" d="M110.99,491.3c0-3.267-2.648-5.914-5.915-5.914c-3.266,0-5.914,2.647-5.914,5.914
					c0,1.008,0.253,1.956,0.697,2.786c0.502,0.934,0.996,1.916,0.996,2.978v2.967c0,2.354,1.91,4.266,4.265,4.266
					c2.356,0,4.266-1.911,4.266-4.266v-3.061c0-1.048,0.46-2.027,0.945-2.957C110.75,493.2,110.99,492.279,110.99,491.3z"/>
			</g>
			<g>
				<path style="fill:#D3673D;" d="M109.34,501.033c0,2.344-1.9,4.244-4.244,4.244c-2.344,0-4.244-1.9-4.244-4.244v-0.405h8.488
					V501.033z"/>
			</g>
		</g>
		<g>
			<path style="fill:#FC8860;" d="M110.601,510.347c-0.44-0.414-0.691-0.995-0.691-1.599v-0.115c0-0.221-0.18-0.398-0.399-0.398
				h-8.773c-0.22,0-0.398,0.178-0.398,0.398v0.112c0,0.605-0.246,1.19-0.677,1.615l-0.666,0.653
				c-0.182,0.177-0.284,0.422-0.284,0.676v6.381c0,1.762,1.428,3.191,3.189,3.191h6.513c1.761,0,3.19-1.43,3.19-3.191v-6.381
				c0-0.253-0.105-0.496-0.291-0.672L110.601,510.347z"/>
		</g>
	</g>
	<g>
		<g>
			<path style="fill:#AFAFAF;" d="M846.313,620.702h-14.225v-38.491c0-0.924,0.75-1.673,1.674-1.673h10.877
				c0.925,0,1.674,0.749,1.674,1.673V620.702z"/>
		</g>
		<g>
			<rect x="833.761" y="510.948" style="fill:#AFAFAF;" width="10.04" height="106.825"/>
		</g>
		<g>
			<path style="fill:#7D9496;" d="M853.815,641.732c-0.273-0.274-0.646-0.427-1.031-0.427c-0.397,0-0.719-0.323-0.719-0.72v-30.413
				c0-7.048-5.713-12.76-12.761-12.76c-7.046,0-12.761,5.712-12.761,12.76v30.411c0,0.398-0.322,0.722-0.72,0.722
				c-0.386,0-0.759,0.152-1.032,0.427l-7.661,7.66l44.4,0.055L853.815,641.732z"/>
		</g>
		<g>
			<path style="fill:#E05322;" d="M842.408,435.989c0,2.196-1.779,3.976-3.975,3.976c-2.195,0-3.975-1.779-3.975-3.976
				c0-2.193,1.78-3.975,3.975-3.975C840.629,432.015,842.408,433.796,842.408,435.989z"/>
		</g>
		<g>
			<path style="fill:#F36C35;" d="M852.868,453.631c0-7.855-6.369-14.224-14.225-14.224c-7.856,0-14.226,6.368-14.226,14.224v1.954
				h28.451V453.631z"/>
		</g>
		<g>
			<path style="fill:#E05322;" d="M859.702,455.443h-41.56l0,0c0,1.464,1.187,2.651,2.651,2.651h36.258
				C858.514,458.095,859.702,456.907,859.702,455.443L859.702,455.443z"/>
		</g>
		<g>
			<path style="fill:#FC8860;" d="M856.563,457.885h-35.353l0,0c0,1.463,1.187,2.65,2.65,2.65h30.052
				C855.377,460.535,856.563,459.348,856.563,457.885L856.563,457.885z"/>
		</g>
		<g style="opacity:0.8;">
			<path style="fill:#F7E5C1;" d="M825.08,462.636v22.196c0,4.136,1.643,8.129,4.555,11.068c3.463,3.498,5.412,8.255,5.396,13.178
				l-0.009,2.567l7.554-0.067v-2.351c0-4.958,1.96-9.746,5.437-13.28c2.919-2.97,4.567-6.993,4.567-11.157v-22.154H825.08z"/>
		</g>
		<g>
			<path style="fill:#E05322;" d="M854.542,460.326h-31.449l0,0c0,1.462,1.186,2.65,2.65,2.65h26.148
				C853.355,462.977,854.542,461.788,854.542,460.326L854.542,460.326z"/>
		</g>
		<g>
			<rect x="834.946" y="494.632" style="fill:#BF593A;" width="7.811" height="9.274"/>
		</g>
		<g>
			<g>
				<path style="fill:#FFFFFF;" d="M845.005,485.092c0-3.428-2.778-6.205-6.207-6.205c-3.427,0-6.205,2.777-6.205,6.205
					c0,1.058,0.265,2.053,0.731,2.923c0.526,0.98,1.044,2.011,1.044,3.124v3.113c0,2.471,2.004,4.475,4.475,4.475
					c2.472,0,4.476-2.005,4.476-4.475v-3.212c0-1.1,0.483-2.127,0.991-3.103C844.754,487.086,845.005,486.119,845.005,485.092z"/>
			</g>
			<g>
				<path style="fill:#D3673D;" d="M843.274,495.304c0,2.46-1.993,4.453-4.453,4.453c-2.458,0-4.452-1.993-4.452-4.453v-0.425h8.905
					V495.304z"/>
			</g>
		</g>
		<g>
			<path style="fill:#FC8860;" d="M844.598,505.076c-0.462-0.435-0.726-1.045-0.726-1.678v-0.121c0-0.232-0.188-0.418-0.418-0.418
				h-9.205c-0.23,0-0.418,0.186-0.418,0.418v0.118c0,0.635-0.258,1.248-0.711,1.694l-0.698,0.685
				c-0.19,0.186-0.297,0.443-0.297,0.709v6.695c0,1.849,1.498,3.349,3.346,3.349h6.833c1.848,0,3.347-1.5,3.347-3.349v-6.695
				c0-0.265-0.11-0.521-0.305-0.704L844.598,505.076z"/>
		</g>
	</g>
	<g>
		<g>
			<rect x="282.856" y="420.559" style="fill:#EEE8D3;" width="359.961" height="188.199"/>
		</g>
		<g>
			<rect x="282.856" y="420.559" style="fill:#FFFFFF;" width="359.961" height="188.199"/>
		</g>
		<g>
			<rect x="311.377" y="442.751" style="fill:#F9A54B;" width="177.518" height="132.314"/>
		</g>
		<g>
			<rect x="317.191" y="438.418" style="fill:#BAE6E8;" width="165.89" height="123.647"/>
		</g>
		<g>
			<rect x="396.382" y="437.03" style="fill:#FFBC70;" width="7.509" height="132.658"/>
		</g>
		<g>
			<path style="fill:#EF6324;" d="M500.397,573.422c0,3.631-2.941,6.575-6.574,6.575H307.269c-3.631,0-6.574-2.944-6.574-6.575
				c0-3.635,2.943-6.576,6.574-6.576h186.555C497.456,566.846,500.397,569.787,500.397,573.422z"/>
		</g>
		<g>
			<path style="fill:#D88F59;" d="M660.075,639.166H267.241v-29.174c0-7.487,6.069-13.56,13.561-13.56h365.712
				c7.489,0,13.561,6.072,13.561,13.56V639.166z"/>
		</g>
		<g>
			<rect x="530.325" y="457.542" style="fill:#FFBC70;" width="84.549" height="170.12"/>
		</g>
		<g>
			<path style="fill:#ED4726;" d="M658.035,372.483c0-11.574-9.381-20.958-20.957-20.958H291.09c-11.576,0-20.96,9.384-20.96,20.958
				v76.426h387.904V372.483z"/>
		</g>
		<g>
			<polygon style="fill:#F9863A;" points="659.267,404.123 703.237,448.909 226.575,448.909 270.131,404.123 			"/>
		</g>
		<g style="opacity:0.29;">
			<path style="fill:#FAFAFA;" d="M421.05,628.316c0,3.592-2.914,6.505-6.51,6.505h-24.631c-3.595,0-6.508-2.913-6.508-6.505v-4.185
				c0-3.594,2.913-6.504,6.508-6.504h24.631c3.596,0,6.51,2.91,6.51,6.504V628.316z"/>
		</g>
		<g style="opacity:0.29;">
			<path style="fill:#FAFAFA;" d="M375.439,609.824c0,3.594-2.915,6.507-6.507,6.507h-24.636c-3.592,0-6.504-2.913-6.504-6.507
				v-4.188c0-3.59,2.913-6.505,6.504-6.505h24.636c3.592,0,6.507,2.915,6.507,6.505V609.824z"/>
		</g>
		<g style="opacity:0.29;">
			<path style="fill:#FAFAFA;" d="M347.704,628.93c0,3.596-2.916,6.507-6.51,6.507H316.56c-3.594,0-6.506-2.911-6.506-6.507v-4.183
				c0-3.595,2.912-6.507,6.506-6.507h24.634c3.594,0,6.51,2.912,6.51,6.507V628.93z"/>
		</g>
		<g style="opacity:0.29;">
			<path style="fill:#FAFAFA;" d="M313.492,611.423c0,3.594-2.914,6.511-6.504,6.511h-24.635c-3.594,0-6.505-2.917-6.505-6.511
				v-4.183c0-3.594,2.911-6.507,6.505-6.507h24.635c3.59,0,6.504,2.913,6.504,6.507V611.423z"/>
		</g>
		<g>
			<rect x="587.6" y="458.003" style="fill:#F9A54B;" width="27.119" height="162.517"/>
		</g>
		<g>
			<rect x="530.431" y="457.542" style="fill:#F9A54B;" width="27.12" height="162.513"/>
		</g>
		<g style="opacity:0.27;">
			<g>
				<g>
					<path style="fill:#41636B;" d="M367.205,465.395h-36.659v0.037H293.89v15.635c0,10.13,8.208,18.339,18.331,18.339
						c10.091,0,18.271-8.147,18.334-18.219c0.083,10.052,8.253,18.177,18.326,18.177c10.087,0,18.266-8.147,18.328-18.221
						c0.062,10.074,8.241,18.221,18.33,18.221c10.126,0,18.335-8.21,18.335-18.335v-15.634h-36.658H367.205z"/>
				</g>
				<g>
					<path style="fill:#41636B;" d="M476.308,465.516H440.55v-0.121h-36.674v15.634c0,10.125,8.21,18.335,18.332,18.335
						c8.792,0,16.127-6.188,17.915-14.438c1.743,8.313,9.111,14.557,17.938,14.557c9.832,0,17.833-7.743,18.295-17.463
						c0.481,9.7,8.472,17.431,18.286,17.431c10.128,0,18.338-8.217,18.338-18.344v-15.631h-36.673V465.516z"/>
				</g>
				<g>
					<path style="fill:#41636B;" d="M586.334,465.395h-36.657v0.037h-36.653v15.635c0,10.13,8.206,18.339,18.329,18.339
						c10.086,0,18.266-8.142,18.333-18.212c0.087,10.047,8.254,18.17,18.325,18.17c10.086,0,18.265-8.147,18.329-18.218
						c0.067,10.071,8.244,18.218,18.328,18.218c10.129,0,18.337-8.21,18.337-18.335v-15.634h-36.657H586.334z"/>
				</g>
			</g>
			<g>
				<path style="fill:#41636B;" d="M282.856,465.476v32.428c6.47-2.829,10.993-9.282,10.993-16.797v-15.631H282.856z"/>
			</g>
			<g>
				<path style="fill:#41636B;" d="M642.766,465.395h-19.757v15.634c0,10.125,8.21,18.335,18.334,18.335
					c0.48,0,0.95-0.032,1.423-0.068V465.395z"/>
			</g>
		</g>
		<g>
			<g>
				<path style="fill:#FFFFFF;" d="M566.122,551.231c0,1.64-1.325,2.965-2.965,2.965h-22.156c-1.642,0-2.967-1.325-2.967-2.965
					c0-1.64,1.325-2.969,2.967-2.969h22.156C564.798,548.262,566.122,549.591,566.122,551.231z"/>
			</g>
			<g>
				<path style="fill:#FFFFFF;" d="M546.355,551.231c0,3.404-2.762,6.16-6.165,6.16c-3.403,0-6.165-2.756-6.165-6.16
					c0-3.401,2.762-6.163,6.165-6.163C543.593,545.067,546.355,547.829,546.355,551.231z"/>
			</g>
		</g>
		<g>
			<g>
				<g>
					<g>
						<path style="fill:#FEAA75;" d="M263.616,464.515c0,10.14-8.219,18.352-18.354,18.352c-10.134,0-18.351-8.213-18.351-18.352
							v-15.642h36.705V464.515z"/>
					</g>
					<g>
						<path style="fill:#EF6324;" d="M300.228,464.478c0,10.139-8.219,18.354-18.357,18.354c-10.13,0-18.348-8.216-18.348-18.354
							v-15.643h36.705V464.478z"/>
					</g>
					<g>
						<path style="fill:#FEAA75;" d="M336.971,464.44c0,10.132-8.219,18.352-18.355,18.352c-10.134,0-18.344-8.22-18.344-18.352
							v-15.647h36.7V464.44z"/>
					</g>
				</g>
				<g>
					<g>
						<path style="fill:#EF6324;" d="M373.656,464.395c0,10.144-8.217,18.357-18.352,18.357c-10.134,0-18.35-8.213-18.35-18.357
							v-15.639h36.702V464.395z"/>
					</g>
					<g>
						<path style="fill:#FEAA75;" d="M410.348,464.395c0,10.144-8.218,18.357-18.355,18.357c-10.129,0-18.349-8.213-18.349-18.357
							v-15.639h36.704V464.395z"/>
					</g>
					<g>
						<path style="fill:#EF6324;" d="M447.052,464.395c0,10.144-8.214,18.357-18.353,18.357c-10.129,0-18.348-8.213-18.348-18.357
							v-15.639h36.701V464.395z"/>
					</g>
				</g>
			</g>
			<g>
				<g>
					<g>
						<path style="fill:#FEAA75;" d="M482.938,464.515c0,10.14-8.219,18.352-18.356,18.352c-10.132,0-18.347-8.213-18.347-18.352
							v-15.642h36.703V464.515z"/>
					</g>
					<g>
						<path style="fill:#EF6324;" d="M519.55,464.478c0,10.139-8.22,18.354-18.354,18.354c-10.134,0-18.35-8.216-18.35-18.354
							v-15.643h36.705V464.478z"/>
					</g>
					<g>
						<path style="fill:#FEAA75;" d="M556.292,464.44c0,10.132-8.216,18.352-18.353,18.352c-10.133,0-18.346-8.22-18.346-18.352
							v-15.647h36.699V464.44z"/>
					</g>
				</g>
				<g>
					<g>
						<path style="fill:#EF6324;" d="M592.981,464.395c0,10.144-8.219,18.357-18.351,18.357c-10.136,0-18.352-8.213-18.352-18.357
							v-15.639h36.703V464.395z"/>
					</g>
					<g>
						<path style="fill:#FEAA75;" d="M629.67,464.395c0,10.144-8.215,18.357-18.352,18.357c-10.133,0-18.35-8.213-18.35-18.357
							v-15.639h36.702V464.395z"/>
					</g>
					<g>
						<path style="fill:#EF6324;" d="M666.376,464.395c0,10.144-8.215,18.357-18.353,18.357c-10.132,0-18.346-8.213-18.346-18.357
							v-15.639h36.699V464.395z"/>
					</g>
				</g>
			</g>
			<g>
				<g>
					<g>
						<path style="fill:#FEAA75;" d="M703.102,464.515c0,10.14-8.217,18.352-18.353,18.352c-10.134,0-18.349-8.213-18.349-18.352
							v-15.642h36.702V464.515z"/>
					</g>
				</g>
			</g>
		</g>
		<g>
			<path style="fill:#B76B37;" d="M641.995,630.121c0-5.443-4.412-9.855-9.86-9.855H512.149c-5.449,0-9.863,4.412-9.863,9.855v8.224
				h139.709V630.121z"/>
		</g>
		<g>
			<polygon style="fill:#FEBC92;" points="666.4,448.873 627.756,404.123 659.267,404.123 703.102,448.873 			"/>
			<polygon style="fill:#F28452;" points="666.4,448.873 627.756,404.123 598.423,404.123 629.67,448.756 			"/>
			<polygon style="fill:#FEBC92;" points="592.981,448.756 568.968,404.006 598.423,404.123 629.67,448.756 			"/>
			<polygon style="fill:#F28452;" points="592.981,448.756 568.968,404.006 538.081,404.006 556.292,448.793 			"/>
			<polygon style="fill:#FEBC92;" points="519.55,448.834 508.151,404.084 538.081,404.006 556.292,448.793 			"/>
			<polygon style="fill:#F28452;" points="519.55,448.834 508.151,404.084 478.328,404.086 482.938,448.873 			"/>
			<polygon style="fill:#FEBC92;" points="446.236,448.873 448.43,404.123 478.328,404.086 482.938,448.873 			"/>
			<polygon style="fill:#F28452;" points="446.236,448.873 448.43,404.123 419.423,403.969 410.348,448.756 			"/>
			<g>
				<polygon style="fill:#FEBC92;" points="263.616,448.873 300.26,404.123 269.749,404.123 226.914,448.873 				"/>
				<polygon style="fill:#F28452;" points="263.616,448.873 300.26,404.123 329.593,404.123 300.346,448.756 				"/>
				<polygon style="fill:#FEBC92;" points="337.035,448.756 359.048,404.006 329.593,404.123 300.346,448.756 				"/>
				<polygon style="fill:#F28452;" points="337.035,448.756 359.048,404.006 389.935,404.006 373.724,448.793 				"/>
				<polygon style="fill:#FEBC92;" points="410.466,448.834 419.423,403.969 389.935,404.006 373.724,448.793 				"/>
			</g>
		</g>
	</g>
	<g>
		<path style="fill:#ED4726;" d="M336.214,790.606h-13.481v13.005h-2.266v-27.723h17.689v1.941h-15.423v10.835h13.481V790.606z"/>
		<path style="fill:#ED4726;" d="M345.163,791.082v12.528h-2.266v-27.704h9.387c2.971,0,5.249,0.651,6.836,1.952
			c1.586,1.301,2.38,3.202,2.38,5.702c0,1.473-0.425,2.79-1.276,3.951c-0.851,1.161-2.05,2.009-3.599,2.542
			c1.714,0.432,2.948,1.203,3.704,2.313c0.755,1.11,1.133,2.504,1.133,4.179v2.609c0,0.863,0.102,1.637,0.305,2.322
			c0.203,0.686,0.539,1.244,1.009,1.676v0.457h-2.323c-0.47-0.457-0.8-1.098-0.99-1.923c-0.19-0.825-0.286-1.682-0.286-2.57v-2.533
			c0-1.7-0.549-3.043-1.647-4.026c-1.098-0.983-2.631-1.476-4.599-1.476H345.163z M345.163,789.14h6.836
			c2.5,0,4.328-0.505,5.483-1.514c1.155-1.009,1.733-2.371,1.733-4.084c0-1.828-0.575-3.233-1.723-4.218
			c-1.15-0.983-2.885-1.476-5.208-1.476h-7.121V789.14z"/>
		<path style="fill:#ED4726;" d="M371.4,803.61h-2.285v-27.723h2.285V803.61z"/>
		<path style="fill:#ED4726;" d="M394.782,790.187h-13.348v11.482h15.29v1.942h-17.555v-27.723h17.46v1.941h-15.194v10.416h13.348
			V790.187z"/>
		<path style="fill:#ED4726;" d="M422.048,803.61h-2.266l-15.747-23.839l-0.114,0.02v23.819h-2.285v-27.723h2.285l15.747,23.801
			l0.114-0.019v-23.781h2.266V803.61z"/>
		<path style="fill:#ED4726;" d="M429.322,803.61v-27.723h8.054c3.389,0,6.188,1.13,8.397,3.389c2.209,2.26,3.313,5.16,3.313,8.702
			v3.561c0,3.554-1.104,6.454-3.313,8.701c-2.209,2.247-5.008,3.37-8.397,3.37H429.322z M431.587,777.829v23.839h5.789
			c2.742,0,4.998-0.957,6.769-2.872c1.771-1.916,2.656-4.338,2.656-7.268v-3.614c0-2.892-0.889-5.295-2.665-7.211
			c-1.777-1.915-4.03-2.873-6.759-2.873H431.587z"/>
		<path style="fill:#ED4726;" d="M457.197,801.668h13.71v1.942h-15.994v-27.723h2.285V801.668z"/>
		<path style="fill:#ED4726;" d="M479.074,791.291l8.587-15.403h2.647l-10.11,17.593v10.13h-2.266v-10.263l-10.034-17.46h2.647
			L479.074,791.291z"/>
		<path style="fill:#ED4726;" d="M519.935,796.803c0-1.508-0.565-2.74-1.695-3.697c-1.13-0.957-3.097-1.803-5.902-2.538
			c-3.034-0.762-5.332-1.751-6.893-2.97c-1.562-1.219-2.342-2.862-2.342-4.932c0-2.12,0.872-3.847,2.618-5.179
			c1.745-1.333,3.989-2,6.731-2c2.856,0,5.16,0.794,6.912,2.38c1.751,1.587,2.602,3.523,2.551,5.808l-0.057,0.114h-2.094
			c0-1.853-0.657-3.376-1.971-4.569c-1.314-1.193-3.094-1.79-5.341-1.79c-2.222,0-3.957,0.495-5.207,1.485
			c-1.25,0.99-1.875,2.222-1.875,3.693c0,1.396,0.577,2.562,1.732,3.494c1.155,0.933,3.148,1.755,5.979,2.466
			c2.982,0.762,5.251,1.79,6.807,3.085c1.555,1.294,2.333,3.002,2.333,5.121c0,2.209-0.904,3.968-2.713,5.274
			c-1.809,1.308-4.116,1.961-6.921,1.961c-2.768,0-5.183-0.694-7.245-2.085c-2.063-1.39-3.063-3.417-2.999-6.083l0.038-0.114h2.095
			c0,2.151,0.806,3.746,2.418,4.784c1.612,1.037,3.51,1.557,5.693,1.557c2.196,0,3.97-0.482,5.322-1.445
			C519.259,799.66,519.935,798.387,519.935,796.803z"/>
		<path style="fill:#ED4726;" d="M547.81,803.61h-2.266v-12.757h-15.766v12.757h-2.266v-27.723h2.266v13.023h15.766v-13.023h2.266
			V803.61z"/>
		<path style="fill:#ED4726;" d="M575.324,792.015c0,3.58-0.981,6.474-2.942,8.683c-1.961,2.209-4.592,3.313-7.893,3.313
			c-3.25,0-5.842-1.104-7.778-3.313c-1.936-2.209-2.904-5.103-2.904-8.683v-4.513c0-3.566,0.965-6.461,2.894-8.683
			c1.929-2.221,4.519-3.332,7.768-3.332c3.3,0,5.934,1.111,7.902,3.332c1.968,2.222,2.952,5.116,2.952,8.683V792.015z
			 M573.058,787.479c0-3-0.759-5.415-2.275-7.246c-1.517-1.831-3.621-2.746-6.312-2.746c-2.64,0-4.696,0.915-6.169,2.746
			c-1.473,1.831-2.208,4.246-2.208,7.246v4.558c0,3.025,0.739,5.454,2.218,7.285c1.479,1.831,3.538,2.746,6.178,2.746
			c2.704,0,4.808-0.912,6.312-2.736c1.504-1.825,2.256-4.256,2.256-7.295V787.479z"/>
		<path style="fill:#ED4726;" d="M583.587,792.091v11.52h-2.266v-27.723h9.539c2.907,0,5.157,0.739,6.75,2.218
			c1.593,1.479,2.39,3.436,2.39,5.874c0,2.463-0.797,4.431-2.39,5.902c-1.593,1.473-3.843,2.209-6.75,2.209H583.587z
			 M583.587,790.148h7.273c2.285,0,4.002-0.58,5.151-1.742c1.148-1.161,1.723-2.624,1.723-4.389c0-1.777-0.571-3.253-1.714-4.427
			c-1.143-1.174-2.863-1.762-5.16-1.762h-7.273V790.148z"/>
	</g>
	<g>
		<path style="fill:#587073;" d="M380.898,827.444c0.84,0,1.581-0.239,2.224-0.718c0.642-0.478,0.963-1.143,0.963-1.993h1.122
			l0.022,0.063c0.035,1.059-0.388,1.945-1.271,2.658c-0.883,0.713-1.902,1.069-3.06,1.069c-1.56,0-2.766-0.535-3.616-1.604
			c-0.851-1.069-1.276-2.444-1.276-4.124v-0.444c0-1.666,0.427-3.035,1.281-4.108c0.854-1.073,2.054-1.609,3.6-1.609
			c1.256,0,2.303,0.37,3.14,1.111c0.836,0.741,1.24,1.716,1.212,2.923l-0.021,0.063h-1.133c0-0.918-0.309-1.65-0.927-2.197
			c-0.618-0.547-1.375-0.82-2.271-0.82c-1.228,0-2.137,0.438-2.727,1.316c-0.589,0.878-0.884,1.983-0.884,3.316v0.443
			c0,1.354,0.292,2.469,0.878,3.343C378.742,827.007,379.656,827.444,380.898,827.444z"/>
		<path style="fill:#587073;" d="M393.159,817.936l-0.942-0.064c-0.798,0-1.452,0.225-1.964,0.673
			c-0.512,0.448-0.878,1.063-1.096,1.848v7.909h-1.271v-11.456h1.112l0.159,1.905v0.127c0.332-0.705,0.776-1.256,1.335-1.651
			c0.557-0.396,1.221-0.593,1.99-0.593c0.163,0,0.319,0.012,0.471,0.037c0.152,0.024,0.277,0.051,0.376,0.079L393.159,817.936z"/>
		<path style="fill:#587073;" d="M399.364,828.524c-1.433,0-2.624-0.529-3.573-1.589c-0.95-1.059-1.424-2.4-1.424-4.023v-0.582
			c0-1.638,0.471-2.996,1.414-4.076c0.942-1.08,2.084-1.62,3.425-1.62c1.405,0,2.509,0.444,3.314,1.334s1.207,2.075,1.207,3.558
			v1.08h-8.089v0.307c0,1.288,0.342,2.366,1.027,3.232c0.685,0.866,1.585,1.3,2.7,1.3c0.79,0,1.465-0.109,2.022-0.328
			c0.558-0.219,1.034-0.533,1.429-0.942l0.54,0.868c-0.431,0.453-0.976,0.814-1.636,1.081
			C401.06,828.391,400.275,828.524,399.364,828.524z M399.206,817.714c-0.939,0-1.726,0.357-2.361,1.071
			c-0.635,0.715-1.006,1.61-1.112,2.688l0.022,0.053h6.713v-0.317c0-0.992-0.293-1.822-0.879-2.491
			C401.002,818.048,400.207,817.714,399.206,817.714z"/>
		<path style="fill:#587073;" d="M413.489,828.302c-0.084-0.388-0.145-0.724-0.18-1.006c-0.036-0.282-0.053-0.568-0.053-0.857
			c-0.423,0.6-0.988,1.098-1.694,1.493c-0.706,0.394-1.501,0.593-2.382,0.593c-1.116,0-1.982-0.297-2.6-0.89
			c-0.618-0.593-0.926-1.387-0.926-2.383c0-1.059,0.457-1.905,1.371-2.541c0.914-0.635,2.147-0.953,3.701-0.953h2.53v-1.418
			c0-0.819-0.263-1.462-0.789-1.928c-0.526-0.466-1.262-0.698-2.208-0.698c-0.882,0-1.615,0.222-2.197,0.667
			c-0.583,0.444-0.874,0.988-0.874,1.63l-1.165-0.01l-0.021-0.063c-0.043-0.854,0.348-1.618,1.17-2.293
			c0.822-0.674,1.869-1.011,3.14-1.011c1.263,0,2.28,0.321,3.049,0.963c0.77,0.643,1.154,1.564,1.154,2.764v5.633
			c0,0.402,0.022,0.795,0.069,1.176c0.045,0.381,0.122,0.759,0.228,1.133H413.489z M409.328,827.401
			c0.911,0,1.715-0.213,2.414-0.641c0.699-0.427,1.204-0.972,1.514-1.636v-2.393h-2.552c-1.15,0-2.07,0.245-2.758,0.735
			c-0.688,0.491-1.032,1.1-1.032,1.827c0,0.621,0.213,1.127,0.641,1.52C407.981,827.206,408.572,827.401,409.328,827.401z"/>
		<path style="fill:#587073;" d="M419.884,813.912v2.934h2.52v1.037h-2.52v7.465c0,0.748,0.136,1.279,0.408,1.594
			c0.271,0.313,0.633,0.471,1.085,0.471c0.205,0,0.404-0.009,0.599-0.026c0.194-0.018,0.418-0.048,0.672-0.09l0.19,0.942
			c-0.212,0.092-0.47,0.162-0.773,0.212c-0.304,0.049-0.607,0.074-0.911,0.074c-0.805,0-1.431-0.255-1.879-0.763
			c-0.448-0.508-0.672-1.313-0.672-2.414v-7.465h-1.98v-1.037h1.98v-2.934H419.884z"/>
		<path style="fill:#587073;" d="M426.512,813.563h-1.26v-1.778h1.26V813.563z M426.512,828.302h-1.26v-11.456h1.26V828.302z"/>
		<path style="fill:#587073;" d="M433.278,825.433l0.371,1.345h0.064l0.402-1.345l3.113-8.587h1.313l-4.352,11.456h-1.017
			l-4.362-11.456h1.313L433.278,825.433z"/>
		<path style="fill:#587073;" d="M444.788,828.524c-1.433,0-2.624-0.529-3.573-1.589c-0.95-1.059-1.424-2.4-1.424-4.023v-0.582
			c0-1.638,0.471-2.996,1.414-4.076c0.942-1.08,2.084-1.62,3.425-1.62c1.405,0,2.509,0.444,3.314,1.334
			c0.805,0.89,1.207,2.075,1.207,3.558v1.08h-8.089v0.307c0,1.288,0.342,2.366,1.027,3.232c0.685,0.866,1.584,1.3,2.7,1.3
			c0.79,0,1.465-0.109,2.022-0.328c0.558-0.219,1.034-0.533,1.429-0.942l0.54,0.868c-0.431,0.453-0.976,0.814-1.636,1.081
			C446.483,828.391,445.698,828.524,444.788,828.524z M444.629,817.714c-0.939,0-1.726,0.357-2.361,1.071
			c-0.635,0.715-1.006,1.61-1.112,2.688l0.022,0.053h6.713v-0.317c0-0.992-0.293-1.822-0.879-2.491
			C446.425,818.048,445.631,817.714,444.629,817.714z"/>
		<path style="fill:#587073;" d="M463.793,825.385c0-0.535-0.221-1.004-0.662-1.405c-0.441-0.401-1.237-0.729-2.388-0.982
			c-1.37-0.297-2.381-0.688-3.034-1.176c-0.653-0.486-0.979-1.175-0.979-2.065c0-0.875,0.369-1.614,1.107-2.218
			c0.738-0.604,1.713-0.905,2.928-0.905c1.292,0,2.315,0.319,3.071,0.958c0.755,0.639,1.115,1.438,1.08,2.398l-0.021,0.064h-1.175
			c0-0.628-0.267-1.176-0.799-1.642c-0.533-0.466-1.251-0.698-2.155-0.698c-0.925,0-1.618,0.198-2.081,0.595
			c-0.462,0.398-0.693,0.862-0.693,1.396c0,0.526,0.199,0.962,0.598,1.306c0.398,0.345,1.194,0.646,2.388,0.906
			c1.362,0.305,2.382,0.721,3.06,1.248c0.677,0.528,1.016,1.245,1.016,2.151c0,0.956-0.386,1.729-1.159,2.32
			c-0.773,0.592-1.795,0.888-3.065,0.888c-1.391,0-2.483-0.332-3.277-0.995c-0.794-0.664-1.17-1.454-1.128-2.372l0.022-0.063h1.164
			c0.049,0.822,0.386,1.419,1.011,1.792c0.625,0.372,1.36,0.558,2.208,0.558c0.917,0,1.641-0.201,2.171-0.602
			C463.529,826.44,463.793,825.955,463.793,825.385z"/>
		<path style="fill:#587073;" d="M469.246,818.804c0.381-0.685,0.89-1.217,1.525-1.599c0.635-0.381,1.376-0.571,2.224-0.571
			c1.207,0,2.133,0.374,2.779,1.122c0.646,0.748,0.969,1.909,0.969,3.483v7.063h-1.271v-7.098c0-1.245-0.246-2.138-0.736-2.679
			c-0.491-0.541-1.167-0.811-2.028-0.811c-0.868,0-1.593,0.227-2.176,0.684c-0.583,0.456-1.011,1.063-1.287,1.819v8.084h-1.271
			v-16.518h1.271V818.804z"/>
		<path style="fill:#587073;" d="M479.337,822.404c0-1.688,0.462-3.07,1.387-4.15c0.925-1.08,2.149-1.62,3.674-1.62
			c1.531,0,2.76,0.54,3.685,1.62s1.387,2.463,1.387,4.15v0.35c0,1.693-0.461,3.079-1.382,4.155
			c-0.921,1.077-2.144,1.615-3.669,1.615c-1.539,0-2.771-0.538-3.695-1.615c-0.925-1.076-1.387-2.462-1.387-4.155V822.404z
			 M480.607,822.748c0,1.326,0.335,2.439,1.006,3.342c0.67,0.903,1.605,1.354,2.806,1.354c1.179,0,2.105-0.451,2.779-1.354
			c0.674-0.902,1.011-2.016,1.011-3.342v-0.349c0-1.305-0.339-2.412-1.017-3.321c-0.677-0.91-1.609-1.364-2.795-1.364
			c-1.186,0-2.114,0.454-2.785,1.364c-0.671,0.909-1.006,2.017-1.006,3.321V822.748z"/>
		<path style="fill:#587073;" d="M501.34,822.892c0,1.715-0.389,3.083-1.165,4.103c-0.776,1.021-1.846,1.53-3.208,1.53
			c-0.805,0-1.509-0.152-2.112-0.456c-0.604-0.303-1.096-0.737-1.477-1.302v5.94h-1.271v-15.86h1.07l0.159,1.778
			c0.381-0.635,0.874-1.126,1.477-1.472c0.603-0.346,1.314-0.519,2.133-0.519c1.376,0,2.453,0.549,3.229,1.646
			c0.776,1.098,1.165,2.561,1.165,4.389V822.892z M500.069,822.653c0-1.456-0.289-2.643-0.868-3.562
			c-0.579-0.919-1.426-1.378-2.541-1.378c-0.854,0-1.548,0.203-2.081,0.609c-0.533,0.406-0.934,0.935-1.202,1.584v5.513
			c0.289,0.629,0.707,1.123,1.254,1.483c0.547,0.36,1.23,0.541,2.049,0.541c1.108,0,1.95-0.417,2.525-1.251
			c0.575-0.834,0.863-1.94,0.863-3.317V822.653z"/>
		<path style="fill:#587073;" d="M513.41,822.892c0,1.715-0.389,3.083-1.165,4.103c-0.776,1.021-1.846,1.53-3.208,1.53
			c-0.805,0-1.509-0.152-2.112-0.456c-0.604-0.303-1.096-0.737-1.477-1.302v5.94h-1.271v-15.86h1.07l0.159,1.778
			c0.381-0.635,0.874-1.126,1.477-1.472c0.603-0.346,1.314-0.519,2.133-0.519c1.376,0,2.453,0.549,3.23,1.646
			c0.776,1.098,1.165,2.561,1.165,4.389V822.892z M512.139,822.653c0-1.456-0.289-2.643-0.868-3.562
			c-0.579-0.919-1.426-1.378-2.541-1.378c-0.854,0-1.548,0.203-2.081,0.609c-0.533,0.406-0.934,0.935-1.202,1.584v5.513
			c0.289,0.629,0.708,1.123,1.254,1.483c0.547,0.36,1.23,0.541,2.049,0.541c1.108,0,1.95-0.417,2.525-1.251
			c0.575-0.834,0.863-1.94,0.863-3.317V822.653z"/>
		<path style="fill:#587073;" d="M517.677,813.563h-1.26v-1.778h1.26V813.563z M517.677,828.302h-1.26v-11.456h1.26V828.302z"/>
		<path style="fill:#587073;" d="M522.304,816.846l0.116,2.001c0.367-0.706,0.863-1.251,1.488-1.636
			c0.625-0.385,1.364-0.577,2.218-0.577c1.242,0,2.188,0.379,2.837,1.138s0.974,1.943,0.974,3.553v6.978h-1.271v-6.981
			c0-1.316-0.245-2.246-0.736-2.791c-0.491-0.545-1.188-0.816-2.091-0.816c-0.889,0-1.614,0.235-2.176,0.705
			c-0.561,0.471-0.965,1.095-1.212,1.873v8.01h-1.271v-11.456H522.304z"/>
		<path style="fill:#587073;" d="M532.755,822.669c0-1.828,0.39-3.291,1.17-4.389s1.865-1.646,3.256-1.646
			c0.812,0,1.514,0.178,2.107,0.534c0.593,0.356,1.083,0.859,1.472,1.509l0.148-1.831h1.069v11.308c0,1.476-0.407,2.641-1.223,3.494
			c-0.815,0.854-1.95,1.281-3.404,1.281c-0.55,0-1.137-0.067-1.757-0.201c-0.622-0.134-1.165-0.317-1.631-0.551l0.328-1.069
			c0.452,0.226,0.928,0.397,1.43,0.514c0.501,0.116,1.038,0.175,1.609,0.175c1.115,0,1.957-0.321,2.525-0.964
			c0.568-0.642,0.852-1.535,0.852-2.679v-1.439c-0.388,0.578-0.879,1.025-1.472,1.339c-0.593,0.315-1.285,0.472-2.075,0.472
			c-1.376,0-2.455-0.512-3.235-1.535c-0.78-1.023-1.17-2.39-1.17-4.098V822.669z M534.025,822.893c0,1.383,0.282,2.487,0.847,3.313
			c0.565,0.826,1.405,1.239,2.52,1.239c0.819,0,1.501-0.189,2.049-0.567c0.547-0.378,0.969-0.898,1.265-1.562v-5.314
			c-0.275-0.67-0.679-1.219-1.212-1.646c-0.533-0.427-1.227-0.641-2.081-0.641c-1.115,0-1.958,0.461-2.53,1.382
			c-0.572,0.922-0.858,2.113-0.858,3.573V822.893z"/>
	</g>
</g>
<g id="refs">
</g>
</svg>
