<?xml version="1.0" encoding="utf-8"?>
<!-- Generator: Adobe Illustrator 27.5.0, SVG Export Plug-In . SVG Version: 6.00 Build 0)  -->
<svg version="1.1" xmlns="http://www.w3.org/2000/svg" xmlns:xlink="http://www.w3.org/1999/xlink" x="0px" y="0px"
	 viewBox="0 0 500 500" style="enable-background:new 0 0 500 500;" xml:space="preserve">
<g id="BACKGROUND">
	<rect style="fill:#FFFFFF;" width="500" height="500"/>
	<rect style="fill:#FFFFFF;" width="500" height="500"/>
</g>
<g id="OBJECTS">
	<g>
		<g>
			<ellipse style="fill:#C7D9FF;" cx="247.212" cy="441.851" rx="238.523" ry="33.38"/>
		</g>
		<g>
			<path style="fill:#F17F93;" d="M170.755,113.152V97.647h-11.128c-0.31-1.499-0.715-2.961-1.194-4.391l9.652-5.573l-7.753-13.428
				l-9.676,5.587c-1.005-1.13-2.075-2.199-3.205-3.204l5.587-9.677l-13.428-7.753l-5.574,9.655c-1.43-0.478-2.892-0.883-4.39-1.193
				V56.537H114.14v11.109c-1.504,0.306-2.973,0.707-4.409,1.183l-5.555-9.622L90.747,66.96l5.549,9.611
				c-1.143,1.012-2.227,2.088-3.243,3.226l-9.6-5.543L75.7,87.683l9.557,5.518c-0.487,1.448-0.899,2.929-1.212,4.446H73.03v15.506
				h10.99c0.31,1.525,0.718,3.013,1.202,4.467l-9.522,5.497l7.753,13.428l9.528-5.501c1.023,1.153,2.114,2.244,3.267,3.268
				l-5.501,9.528l13.428,7.753l5.496-9.519c1.455,0.485,2.944,0.893,4.469,1.203v10.985h15.506v-11.008
				c1.519-0.313,3.001-0.726,4.45-1.213l5.514,9.551l13.428-7.753l-5.539-9.594c1.14-1.017,2.216-2.102,3.229-3.246l9.605,5.545
				l7.753-13.428l-9.617-5.552c0.476-1.437,0.878-2.907,1.183-4.412H170.755z M150.086,105.462c0,15.577-12.673,28.25-28.251,28.25
				c-15.576,0-28.249-12.673-28.249-28.25c0-15.578,12.673-28.251,28.249-28.251C137.412,77.211,150.086,89.884,150.086,105.462z"/>
		</g>
		<g>
			<path style="fill:#C7D9FF;" d="M479.791,396.627v-15.506h-11.128c-0.31-1.499-0.715-2.961-1.194-4.391l9.652-5.573l-7.753-13.428
				l-9.676,5.587c-1.005-1.13-2.075-2.199-3.205-3.204l5.587-9.677l-13.428-7.753l-5.574,9.655c-1.43-0.478-2.892-0.883-4.39-1.193
				v-11.132h-15.506v11.109c-1.504,0.306-2.973,0.707-4.409,1.183l-5.555-9.622l-13.428,7.753l5.549,9.611
				c-1.143,1.012-2.227,2.088-3.243,3.226l-9.6-5.543l-7.753,13.428l9.557,5.518c-0.487,1.448-0.899,2.929-1.212,4.446h-11.015
				v15.506h10.99c0.31,1.525,0.718,3.013,1.202,4.467l-9.522,5.497l7.753,13.428l9.528-5.501c1.023,1.153,2.114,2.244,3.267,3.268
				l-5.501,9.528l13.428,7.753l5.496-9.519c1.455,0.485,2.944,0.893,4.469,1.203v10.985h15.506v-11.008
				c1.519-0.313,3.001-0.726,4.45-1.213l5.514,9.551l13.428-7.753l-5.539-9.594c1.14-1.017,2.216-2.102,3.229-3.246l9.605,5.545
				l7.753-13.428l-9.617-5.552c0.476-1.437,0.878-2.907,1.183-4.412H479.791z M459.122,388.937c0,15.577-12.673,28.25-28.251,28.25
				c-15.576,0-28.249-12.673-28.249-28.25c0-15.578,12.673-28.251,28.249-28.251C446.449,360.686,459.122,373.359,459.122,388.937z"
				/>
		</g>
		<g>
			<path style="fill:#C7D9FF;" d="M399.914,101.761V89.376h-8.889c-0.247-1.197-0.572-2.366-0.954-3.508l7.71-4.452l-6.193-10.726
				l-7.729,4.463c-0.803-0.902-1.658-1.757-2.56-2.56l4.463-7.73l-10.726-6.193l-4.453,7.712c-1.142-0.382-2.31-0.706-3.507-0.953
				v-8.892H354.69v8.874c-1.202,0.244-2.375,0.565-3.522,0.945l-4.438-7.686l-10.726,6.193l4.432,7.677
				c-0.913,0.808-1.779,1.668-2.591,2.577l-7.668-4.427l-6.193,10.726l7.634,4.408c-0.389,1.156-0.718,2.339-0.968,3.552h-8.799
				v12.386h8.779c0.247,1.218,0.573,2.407,0.96,3.568l-7.606,4.391l6.193,10.726l7.611-4.394c0.818,0.921,1.689,1.793,2.61,2.61
				l-4.394,7.611l10.726,6.193l4.39-7.603c1.162,0.387,2.351,0.714,3.57,0.961v8.775h12.386v-8.793
				c1.213-0.25,2.397-0.58,3.555-0.969l4.405,7.63l10.726-6.193l-4.425-7.664c0.91-0.812,1.77-1.679,2.579-2.593l7.672,4.429
				l6.193-10.726l-7.682-4.435c0.38-1.148,0.701-2.322,0.945-3.524H399.914z M383.404,95.618c0,12.443-10.123,22.566-22.567,22.566
				c-12.442,0-22.566-10.123-22.566-22.566c0-12.443,10.123-22.567,22.566-22.567C373.281,73.052,383.404,83.175,383.404,95.618z"/>
		</g>
		<g>
			<path style="fill:#B6BA65;" d="M77.708,230.532c-1.635-2.06-3.283-4.41-3.154-7.037c0.129-2.627,3.065-5.133,5.356-3.841
				c-6.026-2.955-11.253-7.522-14.987-13.099c-1.504-2.245-2.812-4.951-2.127-7.565s4.337-4.36,6.216-2.418
				c-8.232-6.219-14.085-15.512-16.137-25.623c-0.932-4.592-0.351-10.582,4.036-12.229c3.476-1.305,7.189,1,10.108,3.295
				c4.659,3.663,9.102,7.6,13.299,11.783c0.235-3.091-0.933-6.635,1.031-9.033c1.68-2.051,4.981-2.041,7.27-0.702
				c2.288,1.339,3.803,3.653,5.234,5.885c4.126,6.435,8.252,12.869,12.378,19.304c0.831-2.993-0.948-7.12,1.683-8.77
				c2.514-1.576,5.348,1.463,6.741,4.083c8.26,15.537,15.59,31.575,21.76,48.053c1.983,5.296,3.869,10.761,3.892,16.416
				c0.023,5.494-2.015,11.502-6.687,14.747c-3.691,2.564-9.489,2.806-13.727,1.448c-3.748-1.201-7.152-4.118-10.437-6.195
				c-5.686-3.595-11.086-7.641-16.136-12.085C87.643,241.954,82.408,236.456,77.708,230.532z"/>
		</g>
		<g>
			<g>
				<g>
					<g>
						<rect x="41.675" y="410.65" style="fill:#FFC466;" width="113.771" height="19.918"/>
					</g>
					<g>
						<rect x="41.675" y="425.001" style="fill:#F7A848;" width="113.771" height="5.567"/>
					</g>
					<g>
						<rect x="116.71" y="410.65" style="fill:#F7A848;" width="14.685" height="18.061"/>
					</g>
					<g>
						<rect x="103.261" y="410.65" style="fill:#F7A848;" width="5.719" height="18.061"/>
					</g>
					<g>
						<rect x="50.704" y="410.65" style="fill:#FFD79C;" width="26.304" height="14.351"/>
					</g>
					<g>
						<rect x="79.816" y="410.65" style="fill:#FFD79C;" width="9.017" height="14.351"/>
					</g>
				</g>
				<g>
					<g>
						<rect x="34.814" y="390.732" style="fill:#FFC466;" width="113.771" height="19.918"/>
					</g>
					<g>
						<rect x="34.814" y="405.083" style="fill:#F7A848;" width="113.771" height="5.567"/>
					</g>
					<g>
						<rect x="109.849" y="390.732" style="fill:#F7A848;" width="14.685" height="18.061"/>
					</g>
					<g>
						<rect x="96.401" y="390.732" style="fill:#F7A848;" width="5.719" height="18.061"/>
					</g>
					<g>
						<rect x="43.843" y="390.732" style="fill:#FFD79C;" width="26.304" height="14.351"/>
					</g>
					<g>
						<rect x="72.956" y="390.732" style="fill:#FFD79C;" width="9.017" height="14.351"/>
					</g>
				</g>
				<g>
					<g>
						<rect x="41.675" y="370.813" style="fill:#FFC466;" width="113.771" height="19.918"/>
					</g>
					<g>
						<rect x="41.675" y="385.165" style="fill:#F7A848;" width="113.771" height="5.567"/>
					</g>
					<g>
						<rect x="116.71" y="370.813" style="fill:#F7A848;" width="14.685" height="18.061"/>
					</g>
					<g>
						<rect x="103.261" y="370.813" style="fill:#F7A848;" width="5.719" height="18.061"/>
					</g>
					<g>
						<rect x="50.704" y="370.813" style="fill:#FFD79C;" width="26.304" height="14.351"/>
					</g>
					<g>
						<rect x="79.816" y="370.813" style="fill:#FFD79C;" width="9.017" height="14.351"/>
					</g>
				</g>
				<g>
					<g>
						<rect x="36.513" y="350.895" style="fill:#FFC466;" width="113.771" height="19.918"/>
					</g>
					<g>
						<rect x="36.513" y="365.246" style="fill:#F7A848;" width="113.771" height="5.567"/>
					</g>
					<g>
						<rect x="111.547" y="350.895" style="fill:#F7A848;" width="14.685" height="18.061"/>
					</g>
					<g>
						<rect x="98.099" y="350.895" style="fill:#F7A848;" width="5.719" height="18.061"/>
					</g>
					<g>
						<rect x="45.542" y="350.895" style="fill:#FFD79C;" width="26.304" height="14.351"/>
					</g>
					<g>
						<rect x="74.654" y="350.895" style="fill:#FFD79C;" width="9.017" height="14.351"/>
					</g>
				</g>
				<g>
					<g>
						<rect x="41.213" y="330.977" style="fill:#FFC466;" width="113.771" height="19.918"/>
					</g>
					<g>
						<rect x="41.213" y="345.328" style="fill:#F7A848;" width="113.771" height="5.567"/>
					</g>
					<g>
						<rect x="116.248" y="330.977" style="fill:#F7A848;" width="14.685" height="18.061"/>
					</g>
					<g>
						<rect x="102.8" y="330.977" style="fill:#F7A848;" width="5.719" height="18.061"/>
					</g>
					<g>
						<rect x="50.242" y="330.977" style="fill:#FFD79C;" width="26.304" height="14.351"/>
					</g>
					<g>
						<rect x="79.355" y="330.977" style="fill:#FFD79C;" width="9.017" height="14.351"/>
					</g>
				</g>
				<g>
					<g>
						<rect x="34.814" y="311.059" style="fill:#FFC466;" width="113.771" height="19.918"/>
					</g>
					<g>
						<rect x="34.814" y="325.41" style="fill:#F7A848;" width="113.771" height="5.567"/>
					</g>
					<g>
						<rect x="109.849" y="311.059" style="fill:#F7A848;" width="14.685" height="18.061"/>
					</g>
					<g>
						<rect x="96.401" y="311.059" style="fill:#F7A848;" width="5.719" height="18.061"/>
					</g>
					<g>
						<rect x="43.843" y="311.059" style="fill:#FFD79C;" width="26.304" height="14.351"/>
					</g>
					<g>
						<rect x="72.956" y="311.059" style="fill:#FFD79C;" width="9.017" height="14.351"/>
					</g>
				</g>
				<g>
					<g>
						<rect x="44.655" y="291.141" style="fill:#FFC466;" width="113.771" height="19.918"/>
					</g>
					<g>
						<rect x="44.655" y="305.492" style="fill:#F7A848;" width="113.771" height="5.567"/>
					</g>
					<g>
						<rect x="119.69" y="291.141" style="fill:#F7A848;" width="14.685" height="18.061"/>
					</g>
					<g>
						<rect x="106.242" y="291.141" style="fill:#F7A848;" width="5.719" height="18.061"/>
					</g>
					<g>
						<rect x="53.684" y="291.141" style="fill:#FFD79C;" width="26.304" height="14.351"/>
					</g>
					<g>
						<rect x="82.797" y="291.141" style="fill:#FFD79C;" width="9.017" height="14.351"/>
					</g>
				</g>
				<g>
					<g>
						<rect x="39.515" y="271.209" style="fill:#FFC466;" width="113.771" height="19.918"/>
					</g>
					<g>
						<rect x="39.515" y="285.561" style="fill:#F7A848;" width="113.771" height="5.567"/>
					</g>
					<g>
						<rect x="114.55" y="271.209" style="fill:#F7A848;" width="14.685" height="18.061"/>
					</g>
					<g>
						<rect x="101.101" y="271.209" style="fill:#F7A848;" width="5.719" height="18.061"/>
					</g>
					<g>
						<rect x="48.544" y="271.209" style="fill:#FFD79C;" width="26.304" height="14.351"/>
					</g>
					<g>
						<rect x="77.657" y="271.209" style="fill:#FFD79C;" width="9.017" height="14.351"/>
					</g>
				</g>
				<g>
					<g>
						<rect x="44.216" y="251.291" style="fill:#FFC466;" width="113.771" height="19.918"/>
					</g>
					<g>
						<rect x="44.216" y="265.642" style="fill:#F7A848;" width="113.771" height="5.567"/>
					</g>
					<g>
						<rect x="119.25" y="251.291" style="fill:#F7A848;" width="14.685" height="18.061"/>
					</g>
					<g>
						<rect x="105.802" y="251.291" style="fill:#F7A848;" width="5.719" height="18.061"/>
					</g>
					<g>
						<rect x="53.245" y="251.291" style="fill:#FFD79C;" width="26.304" height="14.351"/>
					</g>
					<g>
						<rect x="82.357" y="251.291" style="fill:#FFD79C;" width="9.017" height="14.351"/>
					</g>
				</g>
				<g>
					<g>
						<rect x="36.513" y="231.373" style="fill:#FFC466;" width="113.771" height="19.918"/>
					</g>
					<g>
						<rect x="36.513" y="245.724" style="fill:#F7A848;" width="113.771" height="5.567"/>
					</g>
					<g>
						<rect x="111.547" y="231.373" style="fill:#F7A848;" width="14.685" height="18.061"/>
					</g>
					<g>
						<rect x="98.099" y="231.373" style="fill:#F7A848;" width="5.719" height="18.061"/>
					</g>
					<g>
						<rect x="45.542" y="231.373" style="fill:#FFD79C;" width="26.304" height="14.351"/>
					</g>
					<g>
						<rect x="74.654" y="231.373" style="fill:#FFD79C;" width="9.017" height="14.351"/>
					</g>
				</g>
			</g>
			<g>
				<path style="fill:#FFFFFF;" d="M93.398,339.932c-2.615-7.059-0.925-5.37-7.984-7.984c7.059-2.615,5.369-0.925,7.984-7.984
					c2.615,7.059,0.925,5.37,7.984,7.984C94.323,334.563,96.013,332.873,93.398,339.932z"/>
			</g>
			<g>
				<path style="fill:#FFFFFF;" d="M100.468,323.426c-1.7-4.59-0.602-3.491-5.191-5.191c4.59-1.7,3.491-0.602,5.191-5.191
					c1.7,4.59,0.602,3.491,5.191,5.191C101.07,319.934,102.168,318.836,100.468,323.426z"/>
			</g>
			<g>
				<path style="fill:#FFFFFF;" d="M41.675,403.098c-1.7-4.59-0.602-3.491-5.191-5.191c4.59-1.7,3.491-0.602,5.191-5.191
					c1.7,4.59,0.602,3.491,5.191,5.191C42.276,399.607,43.375,398.509,41.675,403.098z"/>
			</g>
		</g>
		<g>
			<path style="fill:#B6BA65;" d="M369.759,160.137c1.53-2.139,3.335-4.371,5.896-4.971c2.561-0.6,5.779,1.532,5.168,4.09
				c1.18-6.607,4.131-12.889,8.464-18.016c1.744-2.064,3.985-4.067,6.686-4.128s5.386,2.968,4.037,5.309
				c3.711-9.627,11.032-17.813,20.186-22.571c4.157-2.161,10.076-3.252,12.868,0.511c2.212,2.982,1.019,7.186-0.383,10.624
				c-2.238,5.487-4.798,10.843-7.664,16.031c3.036-0.625,6.121-2.725,8.967-1.497c2.435,1.05,3.334,4.226,2.678,6.795
				c-0.657,2.569-2.464,4.662-4.215,6.653c-5.049,5.739-10.098,11.478-15.147,17.217c3.106-0.026,6.583-2.873,8.894-0.798
				c2.207,1.983,0.067,5.544-2.068,7.605c-12.66,12.221-26.059,23.684-40.2,34.156c-4.544,3.365-9.279,6.684-14.709,8.264
				c-5.275,1.535-11.612,1.231-16.019-2.366c-3.482-2.842-5.311-8.349-5.173-12.797c0.122-3.934,1.988-8.009,3.08-11.74
				c1.89-6.456,4.292-12.762,7.172-18.841C361.516,172.834,365.359,166.287,369.759,160.137z"/>
		</g>
		<g>
			<path style="fill:#B6BA65;" d="M382.951,192.129c2.159-1.502,4.607-3.001,7.221-2.707c2.614,0.293,4.931,3.38,3.498,5.586
				c3.326-5.83,8.212-10.759,14.012-14.138c2.335-1.36,5.117-2.496,7.683-1.649s4.08,4.601,2.024,6.355
				c6.723-7.827,16.364-13.086,26.584-14.501c4.641-0.643,10.583,0.313,11.952,4.794c1.085,3.551-1.448,7.112-3.921,9.882
				c-3.947,4.42-8.155,8.608-12.593,12.535c3.07,0.429,6.68-0.516,8.95,1.595c1.942,1.805,1.725,5.099,0.246,7.299
				c-1.479,2.2-3.884,3.567-6.201,4.856c-6.68,3.715-13.361,7.43-20.041,11.145c2.935,1.017,7.165-0.501,8.647,2.229
				c1.415,2.608-1.795,5.246-4.497,6.472c-16.023,7.271-32.489,13.582-49.322,18.708c-5.409,1.647-10.983,3.188-16.628,2.857
				c-5.484-0.321-11.353-2.732-14.3-7.598c-2.328-3.844-2.206-9.646-0.585-13.791c1.434-3.665,4.557-6.88,6.837-10.029
				c3.944-5.449,8.321-10.585,13.072-15.348C370.929,201.329,376.744,196.448,382.951,192.129z"/>
		</g>
		<g>
			<g>
				<rect x="447.072" y="290.297" style="fill:#C7D9FF;" width="15.784" height="25.409"/>
			</g>
			<g>
				<polygon style="fill:#C7D9FF;" points="438.349,292.797 454.964,276.182 471.579,292.797 				"/>
			</g>
		</g>
		<g>
			<g>
				<rect x="177.742" y="50.89" style="fill:#C7D9FF;" width="15.784" height="25.409"/>
			</g>
			<g>
				<polygon style="fill:#C7D9FF;" points="169.019,53.39 185.634,36.775 202.249,53.39 				"/>
			</g>
		</g>
		<g>
			<g>
				<rect x="38.023" y="203.097" style="fill:#C7D9FF;" width="11.64" height="18.739"/>
			</g>
			<g>
				<polygon style="fill:#C7D9FF;" points="31.59,204.941 43.843,192.688 56.097,204.941 				"/>
			</g>
		</g>
		<g>
			<g>
				<rect x="286.751" y="46.725" style="fill:#C7D9FF;" width="11.64" height="18.739"/>
			</g>
			<g>
				<polygon style="fill:#C7D9FF;" points="280.318,48.569 292.571,36.316 304.824,48.569 				"/>
			</g>
		</g>
		<g>
			<g>
				<rect x="114.802" y="99.462" style="fill:#4F2830;" width="260.951" height="341.683"/>
			</g>
			<g>
				<rect x="129.672" y="117.879" style="fill:#281419;" width="231.211" height="313.613"/>
			</g>
			<g>
				<rect x="129.672" y="113.497" style="fill:#FFFFFF;" width="231.211" height="313.613"/>
			</g>
			<g>
				<g>
					<path style="fill:#B6BA65;" d="M185.812,234.148C185.812,234.148,185.812,234.148,185.812,234.148
						c0-32.79,26.676-59.466,59.465-59.466c32.79,0,59.466,26.676,59.466,59.465c0,0,0,0,0,0h25.637c0,0,0,0,0,0
						c0-46.926-38.177-85.102-85.103-85.102c-46.926,0-85.102,38.177-85.102,85.102c0,0,0,0,0,0H185.812z"/>
				</g>
				<g>
					<path style="fill:#FFC466;" d="M314.937,185.315c0,0,15.557,17.932,15.443,48.833h-25.637c0,0,0.795-17.831-10.595-33.843
						L314.937,185.315z"/>
				</g>
				<g>
					<g>
						<path style="fill:#7F9DD3;" d="M337.93,235.902H152.626c-0.969,0-1.754-0.785-1.754-1.754s0.785-1.754,1.754-1.754H337.93
							c0.969,0,1.754,0.785,1.754,1.754S338.899,235.902,337.93,235.902z"/>
					</g>
					<g>
						<path style="fill:#7F9DD3;" d="M247.214,235.902c-0.545,0-1.081-0.253-1.424-0.728c-0.566-0.786-0.389-1.882,0.397-2.449
							l90.717-65.411c0.786-0.564,1.882-0.39,2.448,0.397c0.567,0.786,0.389,1.882-0.396,2.449l-90.717,65.411
							C247.928,235.794,247.569,235.902,247.214,235.902z"/>
					</g>
				</g>
			</g>
			<g>
				<g>
					<g>
						<rect x="191.974" y="87.345" style="fill:#FFC466;" width="106.607" height="41.941"/>
					</g>
					<g>
						<circle style="fill:#FFC466;" cx="245.613" cy="90.09" r="33.553"/>
					</g>
				</g>
				<g>
					<path style="fill:#F7A848;" d="M265.055,87.345c-0.56-10.451-9.186-18.759-19.777-18.759c-10.591,0-19.217,8.308-19.777,18.759
						H265.055z"/>
				</g>
			</g>
			<g>
				<g>
					<g>
						<g>
							<rect x="205.685" y="310.991" style="fill:#C7D9FF;" width="97.914" height="6.955"/>
						</g>
						<g>
							<rect x="205.685" y="324.993" style="fill:#C7D9FF;" width="131.192" height="6.955"/>
						</g>
					</g>
					<g>
						<g>
							<path style="fill:#B6BA65;" d="M168.638,339.858c-0.009,0-0.017,0-0.026,0c-1.629-0.008-3.172-0.802-4.128-2.12
								l-10.139-13.99c-1.137-1.569-0.787-3.762,0.782-4.899c1.568-1.137,3.761-0.788,4.899,0.781l8.629,11.907l20.027-27.036
								c1.153-1.557,3.349-1.885,4.907-0.731c1.557,1.153,1.884,3.35,0.731,4.907l-21.559,29.105
								C171.798,339.083,170.258,339.858,168.638,339.858z"/>
						</g>
					</g>
				</g>
				<g>
					<g>
						<g>
							<g>
								<rect x="205.685" y="258.136" style="fill:#C7D9FF;" width="97.914" height="6.955"/>
							</g>
							<g>
								<rect x="205.685" y="272.138" style="fill:#C7D9FF;" width="131.192" height="6.955"/>
							</g>
						</g>
						<g>
							<g>
								<path style="fill:#B6BA65;" d="M168.638,287.003c-0.009,0-0.017,0-0.026,0c-1.629-0.008-3.172-0.802-4.128-2.12
									l-10.139-13.99c-1.137-1.569-0.787-3.762,0.782-4.899c1.568-1.137,3.761-0.788,4.899,0.781l8.629,11.907l20.027-27.036
									c1.153-1.557,3.349-1.885,4.907-0.731c1.557,1.153,1.884,3.35,0.731,4.907l-21.559,29.105
									C171.798,286.228,170.258,287.003,168.638,287.003z"/>
							</g>
						</g>
					</g>
					<g>
						<g>
							<g>
								<rect x="205.685" y="363.847" style="fill:#C7D9FF;" width="97.914" height="6.955"/>
							</g>
							<g>
								<rect x="205.685" y="377.848" style="fill:#C7D9FF;" width="131.192" height="6.955"/>
							</g>
						</g>
						<g>
							<g>
								<path style="fill:#B6BA65;" d="M168.638,392.714c-0.009,0-0.017,0-0.026,0c-1.629-0.008-3.172-0.802-4.128-2.12
									l-10.139-13.99c-1.137-1.569-0.787-3.762,0.782-4.899c1.568-1.137,3.761-0.788,4.899,0.781l8.629,11.907l20.027-27.036
									c1.153-1.557,3.349-1.885,4.907-0.731c1.557,1.153,1.884,3.35,0.731,4.907l-21.559,29.105
									C171.798,391.938,170.258,392.714,168.638,392.714z"/>
							</g>
						</g>
					</g>
				</g>
			</g>
		</g>
		<g>
			<g>
				<g>
					<g>
						<g>
							<rect x="322.32" y="433.978" style="fill:#FFC466;" width="113.771" height="19.918"/>
						</g>
						<g>
							<rect x="322.32" y="448.329" style="fill:#F7A848;" width="113.771" height="5.567"/>
						</g>
						<g>
							<rect x="397.355" y="433.978" style="fill:#F7A848;" width="14.685" height="18.061"/>
						</g>
						<g>
							<rect x="383.906" y="433.978" style="fill:#F7A848;" width="5.719" height="18.061"/>
						</g>
						<g>
							<rect x="331.349" y="433.978" style="fill:#FFD79C;" width="26.304" height="14.351"/>
						</g>
						<g>
							<rect x="360.461" y="433.978" style="fill:#FFD79C;" width="9.017" height="14.351"/>
						</g>
					</g>
					<g>
						<g>
							<rect x="315.459" y="414.06" style="fill:#FFC466;" width="113.771" height="19.918"/>
						</g>
						<g>
							<rect x="315.459" y="428.411" style="fill:#F7A848;" width="113.771" height="5.567"/>
						</g>
						<g>
							<rect x="390.494" y="414.06" style="fill:#F7A848;" width="14.685" height="18.061"/>
						</g>
						<g>
							<rect x="377.046" y="414.06" style="fill:#F7A848;" width="5.719" height="18.061"/>
						</g>
						<g>
							<rect x="324.488" y="414.06" style="fill:#FFD79C;" width="26.304" height="14.351"/>
						</g>
						<g>
							<rect x="353.601" y="414.06" style="fill:#FFD79C;" width="9.017" height="14.351"/>
						</g>
					</g>
					<g>
						<g>
							<rect x="322.32" y="394.142" style="fill:#FFC466;" width="113.771" height="19.918"/>
						</g>
						<g>
							<rect x="322.32" y="408.493" style="fill:#F7A848;" width="113.771" height="5.567"/>
						</g>
						<g>
							<rect x="397.355" y="394.142" style="fill:#F7A848;" width="14.685" height="18.061"/>
						</g>
						<g>
							<rect x="383.906" y="394.142" style="fill:#F7A848;" width="5.719" height="18.061"/>
						</g>
						<g>
							<rect x="331.349" y="394.142" style="fill:#FFD79C;" width="26.304" height="14.351"/>
						</g>
						<g>
							<rect x="360.461" y="394.142" style="fill:#FFD79C;" width="9.017" height="14.351"/>
						</g>
					</g>
					<g>
						<g>
							<rect x="317.158" y="374.224" style="fill:#FFC466;" width="113.771" height="19.918"/>
						</g>
						<g>
							<rect x="317.158" y="388.575" style="fill:#F7A848;" width="113.771" height="5.567"/>
						</g>
						<g>
							<rect x="392.192" y="374.224" style="fill:#F7A848;" width="14.685" height="18.061"/>
						</g>
						<g>
							<rect x="378.744" y="374.224" style="fill:#F7A848;" width="5.719" height="18.061"/>
						</g>
						<g>
							<rect x="326.186" y="374.224" style="fill:#FFD79C;" width="26.304" height="14.351"/>
						</g>
						<g>
							<rect x="355.299" y="374.224" style="fill:#FFD79C;" width="9.017" height="14.351"/>
						</g>
					</g>
					<g>
						<g>
							<rect x="321.858" y="354.305" style="fill:#FFC466;" width="113.771" height="19.918"/>
						</g>
						<g>
							<rect x="321.858" y="368.657" style="fill:#F7A848;" width="113.771" height="5.567"/>
						</g>
						<g>
							<rect x="396.893" y="354.305" style="fill:#F7A848;" width="14.685" height="18.061"/>
						</g>
						<g>
							<rect x="383.444" y="354.305" style="fill:#F7A848;" width="5.719" height="18.061"/>
						</g>
						<g>
							<rect x="330.887" y="354.305" style="fill:#FFD79C;" width="26.304" height="14.351"/>
						</g>
						<g>
							<rect x="360" y="354.305" style="fill:#FFD79C;" width="9.017" height="14.351"/>
						</g>
					</g>
					<g>
						<g>
							<rect x="315.459" y="334.387" style="fill:#FFC466;" width="113.771" height="19.918"/>
						</g>
						<g>
							<rect x="315.459" y="348.738" style="fill:#F7A848;" width="113.771" height="5.567"/>
						</g>
						<g>
							<rect x="390.494" y="334.387" style="fill:#F7A848;" width="14.685" height="18.061"/>
						</g>
						<g>
							<rect x="377.046" y="334.387" style="fill:#F7A848;" width="5.719" height="18.061"/>
						</g>
						<g>
							<rect x="324.488" y="334.387" style="fill:#FFD79C;" width="26.304" height="14.351"/>
						</g>
						<g>
							<rect x="353.601" y="334.387" style="fill:#FFD79C;" width="9.017" height="14.351"/>
						</g>
					</g>
					<g>
						<g>
							<rect x="325.3" y="314.469" style="fill:#FFC466;" width="113.771" height="19.918"/>
						</g>
						<g>
							<rect x="325.3" y="328.82" style="fill:#F7A848;" width="113.771" height="5.567"/>
						</g>
						<g>
							<rect x="400.335" y="314.469" style="fill:#F7A848;" width="14.685" height="18.061"/>
						</g>
						<g>
							<rect x="386.886" y="314.469" style="fill:#F7A848;" width="5.719" height="18.061"/>
						</g>
						<g>
							<rect x="334.329" y="314.469" style="fill:#FFD79C;" width="26.304" height="14.351"/>
						</g>
						<g>
							<rect x="363.442" y="314.469" style="fill:#FFD79C;" width="9.017" height="14.351"/>
						</g>
					</g>
				</g>
				<g>
					<g>
						<circle style="fill:#FFC466;" cx="377.046" cy="258.07" r="58.881"/>
					</g>
					<g>
						<path style="fill:#F7A848;" d="M377.063,310.424c-0.233,0-0.467-0.001-0.701-0.004c-28.865-0.377-52.043-24.168-51.667-53.033
							c0.374-28.633,23.788-51.67,52.339-51.67c0.231,0,0.462,0.002,0.694,0.004c13.983,0.183,27.058,5.8,36.817,15.815
							c9.759,10.017,15.032,23.234,14.849,37.216c-0.183,13.983-5.8,27.058-15.816,36.817
							C403.73,305.164,390.787,310.424,377.063,310.424z M377.035,208.808c-26.867,0-48.895,21.675-49.247,48.619
							c-0.354,27.16,21.455,49.546,48.615,49.901c13.189,0.212,25.595-4.791,35.018-13.973c9.426-9.182,14.711-21.484,14.882-34.642
							l0,0c0.172-13.158-4.791-25.594-13.972-35.019c-9.183-9.425-21.486-14.71-34.642-14.881
							C377.471,208.809,377.251,208.808,377.035,208.808z"/>
					</g>
					<g>
						<g>
							<path style="fill:#F7A848;" d="M374.113,299.133l-0.009-5.496c-0.395,0.037-0.792,0.073-1.189,0.11s-0.795,0.039-1.198,0.011
								c-5.394,0.031-9.511-1.071-12.35-3.307c-2.84-2.236-4.425-5.171-4.761-8.806c-0.214-2.312,0.241-4.42,1.364-6.322
								c1.125-1.903,2.842-2.962,5.155-3.176c0.594-0.055,0.91,0.116,0.946,0.513c0.024,0.265-0.116,0.544-0.423,0.839
								c-0.24,0.289-0.504,0.862-0.79,1.721c-0.287,0.862-0.44,1.558-0.456,2.092c-0.043,0.271-0.052,0.522-0.031,0.752
								c0.022,0.233,0.041,0.446,0.06,0.645c0.317,3.436,1.823,6.045,4.521,7.828c2.697,1.785,5.757,2.817,9.182,3.101l0.375-27.322
								c-2.237-1.124-4.412-2.323-6.529-3.594c-2.115-1.269-3.978-2.663-5.583-4.182c-1.614-1.582-2.871-3.299-3.774-5.148
								c-0.904-1.848-1.447-3.764-1.63-5.746c-0.305-3.302,0.344-6.544,1.95-9.725c1.604-3.18,4.039-5.853,7.304-8.021
								c2.707-1.716,5.63-2.885,8.771-3.51l0.029-5.099c0.016-0.534,0.178-0.949,0.484-1.244c0.306-0.294,0.658-0.461,1.055-0.498
								c0.395-0.037,0.788,0.062,1.176,0.292c0.387,0.231,0.572,0.614,0.556,1.148l-0.128,5.108c3.85-0.156,7.112,0.71,9.784,2.595
								c2.674,1.886,4.221,5.107,4.642,9.666c0.165,1.784-0.155,3.198-0.958,4.236c-0.804,1.041-1.668,1.603-2.592,1.689
								c-0.661,0.061-1.261-0.132-1.803-0.582c-0.542-0.45-0.862-1.203-0.959-2.261c-0.018-0.197-0.038-0.412-0.059-0.643
								c-0.021-0.231-0.011-0.481,0.03-0.753c0.113-0.943,0.127-1.876,0.041-2.802c-0.207-2.244-0.969-4.173-2.284-5.786
								c-1.314-1.61-3.273-2.428-5.874-2.456l-0.298,30.313l5.447,2.695c3.558,1.738,6.452,3.301,8.679,4.695
								c2.228,1.393,3.898,2.889,5.012,4.485c1.113,1.595,1.777,3.55,1.991,5.862c0.025,0.266,0.031,0.514,0.019,0.749
								c-0.013,0.235-0.005,0.484,0.019,0.747c0.018,4.531-1.81,8.531-5.487,12.002c-3.678,3.472-9.036,5.698-16.075,6.682
								l-0.083,5.604c-0.017,0.535-0.179,0.949-0.484,1.244c-0.308,0.295-0.658,0.461-1.055,0.498
								c-0.395,0.036-0.791-0.077-1.18-0.34C374.272,299.969,374.088,299.601,374.113,299.133z M374.595,253.512l0.32-27.915
								c-2.137,0.664-3.963,1.815-5.478,3.455c-1.515,1.639-2.656,3.529-3.424,5.665c-0.77,2.137-1.049,4.328-0.842,6.574
								c0.134,1.455,0.5,2.887,1.097,4.296c0.596,1.412,1.477,2.662,2.645,3.753c0.805,0.793,1.69,1.528,2.652,2.205
								C372.528,252.222,373.537,252.877,374.595,253.512z M377.442,289.73l1.189-0.11c1.254-0.116,2.486-0.312,3.693-0.59
								s2.32-0.665,3.342-1.159c2.114-0.927,3.713-2.174,4.802-3.742c1.086-1.565,1.705-2.988,1.854-4.269
								c0.125-0.81,0.154-1.579,0.087-2.306c-0.189-2.047-0.988-3.84-2.396-5.376s-3.189-2.969-5.346-4.304
								c-2.156-1.333-4.456-2.62-6.902-3.86L377.442,289.73z"/>
						</g>
					</g>
				</g>
			</g>
			<g>
				<path style="fill:#FFFFFF;" d="M412.04,382.087c-3.183-8.594-1.126-6.537-9.721-9.721c8.594-3.183,6.537-1.126,9.721-9.721
					c3.183,8.594,1.126,6.537,9.721,9.721C413.166,375.55,415.223,373.493,412.04,382.087z"/>
			</g>
			<g>
				<path style="fill:#FFFFFF;" d="M337.98,262.464c-2.615-7.059-0.925-5.37-7.984-7.984c7.059-2.615,5.369-0.925,7.984-7.984
					c2.615,7.059,0.925,5.37,7.984,7.984C338.905,257.094,340.595,255.405,337.98,262.464z"/>
			</g>
			<g>
				<path style="fill:#FFFFFF;" d="M402.036,291.844c-1.585-4.28-0.561-3.256-4.841-4.841c4.28-1.585,3.256-0.561,4.841-4.841
					c1.585,4.28,0.561,3.256,4.841,4.841C402.597,288.589,403.622,287.564,402.036,291.844z"/>
			</g>
			<g>
				<path style="fill:#FFFFFF;" d="M336.829,385.059c-2.361-6.375-0.836-4.849-7.211-7.211c6.375-2.361,4.849-0.836,7.211-7.211
					c2.361,6.375,0.836,4.849,7.211,7.211C337.664,380.21,339.19,378.684,336.829,385.059z"/>
			</g>
			<g>
				<path style="fill:#FFFFFF;" d="M417.645,394.18c-1.835-4.955-0.649-3.769-5.605-5.605c4.955-1.835,3.769-0.65,5.605-5.605
					c1.835,4.955,0.65,3.769,5.605,5.605C418.294,390.41,419.48,389.224,417.645,394.18z"/>
			</g>
		</g>
	</g>
</g>
</svg>
